<svg width="1920" height="2160" viewBox="0 0 1920 2160" fill="none" xmlns="http://www.w3.org/2000/svg">
<rect width="1920" height="2160" fill="url(#paint0_linear_557_1389)" fill-opacity="0.52"/>
<g filter="url(#filter0_f_557_1389)">
<ellipse cx="460" cy="1291.5" rx="292" ry="290.5" fill="#FBB79A"/>
</g>
<ellipse cx="459.679" cy="1291.94" rx="158.679" ry="157.937" fill="#F5C5AF"/>
<path d="M651.613 1354.02L611.671 1363.85C585.855 1370.21 561.696 1382.01 540.812 1398.47C517.283 1417 489.638 1429.6 460.213 1435.2L348 1456.56L155.85 1492.14C65.5314 1508.86 0 1587.65 0 1679.5V1866.5C0 1969.22 83.275 2052.5 186 2052.5H590H808H979H1160.5H1298H1381H1388.08C1681.85 2052.5 1920 1814.35 1920 1520.58V1328.52L1856.66 1307.18L1748.7 1265.92L1695.22 1248.71C1689.65 1246.91 1683.82 1246 1677.96 1246C1669.57 1246 1661.28 1247.88 1653.71 1251.49L1645.67 1255.33C1631.1 1262.27 1615.02 1265.43 1598.92 1264.49L1521.5 1260C1465.41 1295.75 1403.24 1321.99 1338.45 1337.05L1243.45 1362.66L1133.6 1406.23C1125.55 1409.42 1117.23 1411.89 1108.73 1413.59C1075.63 1420.21 1041.26 1415.01 1011.6 1398.88L997.299 1391.11L979.744 1380.21C960.972 1368.54 943.548 1354.84 927.788 1339.35C910.852 1322.7 891.998 1308.12 871.622 1295.93L821.5 1265.92L778.503 1296.2C740.171 1323.2 697.138 1342.81 651.613 1354.02Z" fill="url(#paint1_linear_557_1389)"/>
<path d="M514.5 1416L534.5 1403.5C550.083 1390.57 567.472 1379.99 586.117 1372.09L587.5 1371.5L608.5 1364.5L632.5 1358.5L679 1346.5L717.5 1331.5L687 1380.5L699.579 1441.15L752 1513L672.291 1485.7L620.588 1428.94L565.294 1431.09L514.5 1416Z" fill="#D5351C" fill-opacity="0.4"/>
<path d="M848 1282L821.5 1266L779 1296L799.5 1299.5L821.5 1324.5L784.5 1363L799.5 1400L769 1463.5L891.5 1383L875.5 1324.5V1299.5L848 1282Z" fill="#D5351C" fill-opacity="0.4"/>
<path d="M1010 1422L935.553 1473.68C916.589 1486.84 896.081 1497.63 874.489 1505.79L847.5 1516C732.924 1542.36 752.075 1711 869.644 1711H1375.5H1679.5C1812.32 1711 1920 1603.32 1920 1470.5V1219.5C1905.76 1230.83 1888.09 1237 1869.89 1237H1839.32C1810.27 1237 1781.72 1229.47 1756.45 1215.14L1731.5 1201L1651 1268L1636.81 1279.77C1619 1294.53 1599.45 1307.05 1578.59 1317.04L1539 1336L1516.5 1348L1483.1 1340.97C1467.48 1337.68 1452.55 1331.73 1438.95 1323.38C1429.35 1317.48 1420.51 1310.44 1412.61 1302.41L1394 1283.5L1336.5 1302C1330.37 1310.07 1321.56 1315.68 1311.65 1317.81L1266.79 1327.5C1254.14 1344.23 1237.45 1357.47 1218.28 1365.99L1152.75 1395.11C1143.95 1399.02 1134.69 1401.78 1125.19 1403.32L1010 1422Z" fill="url(#paint2_linear_557_1389)" stroke="#CE2A47"/>
<path d="M1414.5 1354L1394 1283L1417.51 1306.29C1436.39 1324.99 1460.51 1337.5 1486.67 1342.17L1516.5 1347.5L1474 1383.5L1438 1453L1424.5 1502.5L1333.5 1557L1393.5 1486L1361.5 1453L1404.5 1406.5L1414.5 1354Z" fill="#AF263D"/>
<path d="M1589.5 1432.5L1532 1488.5L1580 1476L1610 1472L1680.5 1465.5H1740L1799.5 1449.5L1920 1366V1225L1897.5 1244H1869L1834 1300.5L1754 1332.5L1682.5 1395.5L1635 1432.5H1589.5Z" fill="#AF263D"/>
<path d="M5.78945 1392.81L-1 1393.09V2004H1919V1551.5V1376.5L1810.41 1451.25C1777.8 1473.7 1738.02 1483.27 1698.77 1478.1C1686.13 1476.44 1673.34 1476.29 1660.66 1477.66L1582.45 1486.13L1517.5 1502C1517.5 1515.41 1510.73 1527.92 1499.5 1535.25L1496.31 1537.33C1491.28 1540.62 1485.66 1542.9 1479.76 1544.05L1373 1565L1369.72 1566.82C1353.36 1575.87 1335.56 1582.01 1317.1 1584.95L1271.86 1592.16C1243.79 1596.64 1215.03 1593.6 1188.51 1583.36L1106 1551.5C1058.02 1575.22 1000.87 1573.81 954.377 1547.31L945.6 1542.3L894.298 1503.68H834.151L810.825 1507.36C775.493 1512.94 739.311 1506.6 707.987 1489.33L679.355 1473.54C667.03 1466.75 655.649 1458.37 645.503 1448.61L623.025 1427H572.917C550.008 1427 527.363 1422.11 506.494 1412.66L475.93 1398.82C467.589 1395.04 458.538 1393.09 449.382 1393.09C433.979 1393.09 419.087 1387.56 407.411 1377.51L393.763 1365.77C388.55 1361.28 382.667 1357.64 376.329 1354.98L349.8 1343.82C341.422 1340.29 335.973 1332.09 335.973 1323L307.019 1309.5C286.281 1311.25 266.248 1301.51 254.803 1284.13L250.108 1277L158.251 1312.33L130.18 1329.51C121.015 1335.12 110.903 1339.02 100.342 1341L99.0939 1348.34C97.3759 1358.45 90.7702 1367.06 81.4486 1371.33L66.2366 1378.3C47.2211 1387.02 26.6894 1391.94 5.78945 1392.81Z" fill="#7B1135"/>
<path d="M641.5 1725L558 1600.5L421 1560.5L306 1499.5L271.5 1406L176.5 1309.5L250 1277.5L254.264 1283.85C265.037 1299.88 283.088 1309.5 302.407 1309.5H307L336 1323L336.649 1326.57C338.114 1334.63 343.583 1341.38 351.158 1344.48L376.723 1354.97C384.83 1358.29 392.211 1363.16 398.455 1369.31L400.111 1370.94C413.865 1384.48 432.209 1392.36 451.5 1393L459.5 1394C464.818 1395 470.015 1396.56 475.003 1398.66L521 1418L527.697 1420.07C537.209 1423.02 546.988 1425.02 556.892 1426.05L566 1427H600.5L590.5 1463L641.5 1649.5V1725Z" fill="#600423"/>
<path d="M1757.5 1495L1919 1376.5V1666.5L1814 1685.5L1747 1801L1267 1916.5L1441 1819L1495.5 1744.5L1572 1666.5L1591.5 1554L1757.5 1495Z" fill="#600423" stroke="#600423"/>
<path d="M91.9557 1735.75L79.354 1716.87H51L91.9557 1786.08V2011H148.664V1852.14L229 1743.61H181.743L148.664 1795.52V1698H91.9557V1735.75Z" fill="#2A102D"/>
<path d="M90.0507 1453.19L72.9249 1482.86L108.437 1485.12L124.463 1488.18C137.059 1490.59 148.517 1497.06 157.084 1506.61C165.086 1515.52 170.165 1526.67 171.64 1538.56L173.641 1554.69L198.533 1511.57C204.883 1500.57 208.45 1488.19 208.921 1475.5L209.243 1466.83C209.645 1456 206.608 1445.33 200.567 1436.34C192.17 1423.84 178.702 1415.67 163.74 1413.99L160.678 1413.65C149.29 1412.37 137.78 1414.5 127.604 1419.77L122.007 1422.67C108.657 1429.58 97.5674 1440.17 90.0507 1453.19Z" fill="#2A102D"/>
<path d="M14.3278 1496.53L3.22484 1506.99C2.59164 1507.58 2.03688 1508.26 1.57389 1509C0.545556 1510.63 0 1512.53 0 1514.46V1542L0.0001297 1568L0 1612.5L19.6061 1610.77C24.7929 1610.32 30.0096 1610.32 35.1968 1610.77L50.8845 1612.13C59.1087 1612.85 66.9083 1616.1 73.2074 1621.43C80.155 1627.32 84.8801 1635.4 86.5978 1644.35L91.7966 1671.41L93.432 1683.41C95.1944 1696.35 106.244 1706 119.302 1706C130.921 1706 141.142 1698.32 144.378 1687.16L148.701 1672.26C151.524 1662.52 157.434 1653.97 165.539 1647.88L175.048 1640.74C189.315 1630.03 206.673 1624.24 224.514 1624.24H248.859L250.882 1591.83C251.624 1579.95 250.692 1568.03 248.113 1556.42L247.974 1555.79C244.411 1539.74 237.685 1524.56 228.19 1511.14C220.04 1499.62 209.826 1489.47 198.291 1481.35C182.116 1469.95 163.271 1462.36 143.695 1459.48L140.659 1459.03C127.007 1457.02 113.133 1457.05 99.4899 1459.12L89.4008 1460.65C75.3701 1462.78 61.7347 1466.99 48.9436 1473.13L47.1067 1474.02C35.0886 1479.79 24.0324 1487.38 14.3278 1496.53Z" fill="#2A102D"/>
<path d="M0.500095 1673.5L0.5 1693.5L0.500229 1709L0.500286 1722L0.500254 1723.67C0.50016 1728.63 3.71997 1733.01 8.449 1734.48C9.5428 1734.83 10.6821 1735 11.8281 1735H25.0833C44.1125 1735 62.7316 1729.47 78.6755 1719.08L85.7749 1714.46L95.4592 1707.18C105.244 1699.82 111 1688.29 111 1676.05C111 1669.12 109.151 1662.32 105.644 1656.34L99.09 1645.17C96.5249 1640.8 93.5666 1636.68 90.2518 1632.84L85.9827 1627.91C78.6326 1619.4 69.0578 1613.12 58.3338 1609.76C52.4877 1607.93 46.3971 1607 40.2708 1607H15.4666C11.9965 1607 8.63429 1608.21 5.95509 1610.41C2.50118 1613.25 0.500095 1617.49 0.500095 1621.97V1643V1673.5Z" fill="#2A102D"/>
<path d="M134 1676.86V1684.5C134 1693.48 135.801 1702.36 139.296 1710.62L140.149 1712.64C144.735 1723.48 151.719 1733.14 160.576 1740.89L163.371 1743.34C168.749 1748.04 174.759 1751.97 181.227 1755.02C188.425 1758.4 196.107 1760.64 203.995 1761.66L222.072 1764H230.938C259.36 1764 287.138 1755.53 310.725 1739.67L312.018 1738.8L323.104 1730.2C335.025 1720.95 342 1706.71 342 1691.63C342 1683.17 339.801 1674.85 335.617 1667.49L327.742 1653.64C324.761 1648.4 321.313 1643.44 317.44 1638.82L311.979 1632.3C303.434 1622.1 292.185 1614.52 279.524 1610.43C272.497 1608.16 265.158 1607 257.773 1607H238.251C227.508 1607 216.809 1608.36 206.408 1611.05C191.978 1614.78 178.316 1621.02 166.046 1629.48L154.813 1637.23C152.188 1639.04 149.748 1641.11 147.531 1643.4C138.852 1652.38 134 1664.38 134 1676.86Z" fill="#2A102D"/>
<path d="M0 1816.61V1842.5V1867V2085H6V1862.5L37 1816.61H0Z" fill="#480A2F"/>
<path d="M0 1549.31L-3.05176e-05 1592L16 1611V1569.53C16 1551.69 10.4039 1534.3 0 1519.81V1549.31Z" fill="#480A2F"/>
<path d="M0 1636V1650.5V1689.5L4.57764e-05 1713.5L-5.27225e-05 1732.21C-6.1527e-05 1733.88 1.35576 1735.24 3.02826 1735.24H54.8588L56.8824 1702.83C57.6238 1690.95 56.6916 1679.03 54.1132 1667.42C50.4586 1650.95 43.5592 1635.38 33.8182 1621.61L21.8757 1604.74L10.9308 1592.36C7.1188 1588.05 0 1590.75 0 1596.5V1610V1636Z" fill="#480A2F"/>
<path d="M6.86646e-05 1718.5L0 1763.5L7.62939e-05 1791L0.000135422 1809L1.72395e-05 1825.66C-3.34168e-05 1832.8 4.37728 1839.21 11.0281 1841.81C13.0397 1842.6 15.1806 1843 17.3404 1843H34.1154C55.2518 1843 75.9089 1836.7 93.4494 1824.91L104.018 1817.8L115.104 1809.2C127.025 1799.95 134 1785.71 134 1770.63C134 1762.17 131.801 1753.85 127.617 1746.49L119.742 1732.64C116.761 1727.4 113.313 1722.44 109.44 1717.82L103.979 1711.3C95.4341 1701.1 84.1848 1693.52 71.5242 1689.43C64.4974 1687.16 57.1582 1686 49.7734 1686H17.0031C15.0634 1686 13.1381 1686.33 11.3103 1686.98C4.52981 1689.39 6.86646e-05 1695.81 6.86646e-05 1703V1703.5V1718.5Z" fill="#480A2F"/>
<path d="M330.806 1815.27L320.097 1796.63H296L330.806 1864.95V2087H379V1930.17V1874.27V1778H330.806V1815.27Z" fill="#2A102D"/>
<path d="M280 1619.06V1635.41L309.518 1625.28L325.415 1621.46C335.714 1618.98 346.446 1618.9 356.778 1621.24C368.497 1623.89 379.32 1629.55 388.179 1637.67L394 1643V1615.46C394 1604.59 390.424 1594.02 383.824 1585.38C377.851 1577.57 369.684 1571.7 360.366 1568.54L358.297 1567.84C347.094 1564.04 334.984 1563.84 323.662 1567.27L316.932 1569.3C308.078 1571.98 300.1 1576.97 293.819 1583.76C284.935 1593.37 280 1605.97 280 1619.06Z" fill="#480A2F"/>
<path d="M246.363 1659.83L242.746 1666.04C237.823 1674.5 234.333 1683.71 232.418 1693.3L230.904 1700.88C230.304 1703.89 230.124 1706.96 230.367 1710.01C231.795 1727.88 242.157 1743.82 257.911 1752.38L264.873 1756.16C268.911 1758.35 273.365 1759.68 277.947 1760.04L293.436 1761.27C301.769 1761.94 308.192 1768.89 308.192 1777.25L313.53 1801.04C316.053 1812.29 323.193 1821.96 333.201 1827.68C345.51 1834.72 360.582 1834.91 373.06 1828.17L374.37 1827.46C384.754 1821.86 392.432 1812.3 395.658 1800.95L402.601 1776.53C403.898 1771.97 405.94 1767.65 408.646 1763.76C416.677 1752.2 429.858 1745.31 443.93 1745.31H462.345L464.055 1717.89C464.682 1707.85 463.894 1697.76 461.715 1687.94L461.595 1687.4C458.584 1673.83 452.9 1660.99 444.875 1649.64C437.985 1639.9 429.351 1631.32 419.597 1624.44C405.92 1614.8 389.991 1608.38 373.437 1605.94L370.883 1605.56C359.341 1603.86 347.611 1603.89 336.078 1605.64L327.556 1606.93C315.692 1608.73 304.163 1612.29 293.349 1617.49L290.93 1618.66C281.347 1623.26 272.531 1629.32 264.794 1636.62C257.568 1643.43 251.36 1651.25 246.363 1659.83Z" fill="#480A2F"/>
<path d="M363 1771.73V1776.78C363 1783.02 364.282 1789.2 366.767 1794.94L367.411 1796.42C370.65 1803.89 375.552 1810.53 381.745 1815.82L383.83 1817.6C387.702 1820.9 392.014 1823.66 396.643 1825.78C401.74 1828.12 407.164 1829.67 412.728 1830.37L425.667 1832H431.107C451.915 1832 472.269 1825.92 489.667 1814.51L497.791 1808.36C506.111 1802.06 511 1792.23 511 1781.79C511 1775.9 509.436 1770.11 506.468 1765.01L500.911 1755.48C498.753 1751.78 496.262 1748.28 493.469 1745.02L489.798 1740.75C483.612 1733.55 475.534 1728.21 466.478 1725.36C461.522 1723.8 456.356 1723 451.159 1723H437.111C429.511 1723 421.94 1723.94 414.57 1725.8C404.268 1728.4 394.493 1732.76 385.677 1738.69L377.747 1744.03C375.92 1745.26 374.219 1746.66 372.669 1748.23C366.475 1754.48 363 1762.92 363 1771.73Z" fill="#480A2F"/>
<path d="M199 1765.36V1770.27C199 1776.47 200.282 1782.6 202.766 1788.27L203.424 1789.78C206.654 1797.16 211.532 1803.71 217.683 1808.91L219.805 1810.71C223.694 1814 228.019 1816.74 232.657 1818.84C237.745 1821.16 243.154 1822.69 248.7 1823.38L261.667 1825H267.195C287.952 1825 308.263 1818.98 325.667 1807.67L333.879 1801.51C342.139 1795.31 347 1785.59 347 1775.27C347 1769.42 345.436 1763.68 342.471 1758.63L336.933 1749.22C334.76 1745.53 332.254 1742.04 329.448 1738.8L325.857 1734.66C319.631 1727.47 311.527 1722.16 302.453 1719.33C297.513 1717.79 292.367 1717 287.191 1717H273.086C265.502 1717 257.946 1717.93 250.588 1719.77C240.273 1722.35 230.478 1726.68 221.631 1732.58L213.724 1737.85C211.913 1739.06 210.225 1740.44 208.685 1741.98C202.484 1748.18 199 1756.59 199 1765.36Z" fill="#480A2F"/>
<path d="M367 1658.86V1666.5C367 1675.48 368.801 1684.36 372.296 1692.62L373.149 1694.64C377.735 1705.48 384.719 1715.14 393.576 1722.89L396.371 1725.34C401.749 1730.04 407.759 1733.97 414.227 1737.02C421.425 1740.4 429.107 1742.64 436.995 1743.66L455.072 1746H463.938C492.36 1746 520.138 1737.53 543.725 1721.67L545.018 1720.8L556.104 1712.2C568.025 1702.95 575 1688.71 575 1673.63C575 1665.17 572.801 1656.85 568.617 1649.49L560.742 1635.64C557.761 1630.4 554.313 1625.44 550.44 1620.82L544.979 1614.3C536.434 1604.1 525.185 1596.52 512.524 1592.43C505.497 1590.16 498.158 1589 490.773 1589H471.251C460.508 1589 449.809 1590.36 439.408 1593.05C424.978 1596.78 411.316 1603.02 399.046 1611.48L387.813 1619.23C385.188 1621.04 382.748 1623.11 380.531 1625.4C371.852 1634.38 367 1646.38 367 1658.86Z" fill="#2A102D"/>
<path d="M551.956 1735.75L539.354 1716.87H511L551.956 1786.08V2011H608.664V1852.14L689 1743.61H641.743L608.664 1795.52V1698H551.956V1735.75Z" fill="#2A102D"/>
<path d="M507.487 1499.92L511.47 1514.79L535.426 1498.59L548.699 1491.34C557.324 1486.63 566.925 1483.99 576.745 1483.62C587.847 1483.2 598.865 1485.69 608.701 1490.86L615.265 1494.31L608.588 1469.39C605.98 1459.66 600.26 1451.04 592.301 1444.86C585.039 1439.23 576.259 1435.88 567.086 1435.26L565.226 1435.14C554.266 1434.4 543.35 1437.13 534.029 1442.94L528.636 1446.3C521.302 1450.88 515.326 1457.33 511.328 1464.99C505.72 1475.75 504.349 1488.21 507.487 1499.92Z" fill="#2A102D"/>
<path d="M453.354 1524.19L449.077 1531.53C443.254 1541.52 439.126 1552.41 436.86 1563.75C434.963 1573.25 434.391 1582.97 435.163 1592.62L437.141 1617.38L478.405 1612.21C484.386 1611.47 490.429 1611.35 496.434 1611.87L510.885 1613.13C519.109 1613.85 526.908 1617.1 533.207 1622.43C540.155 1628.32 544.88 1636.4 546.598 1645.35L551.797 1672.41L553.432 1684.41C555.194 1697.35 566.244 1707 579.302 1707C590.921 1707 601.142 1699.32 604.378 1688.16L608.701 1673.26C611.524 1663.52 617.434 1654.97 625.539 1648.88L635.048 1641.74C649.315 1631.03 666.673 1625.24 684.514 1625.24H708.859L710.882 1592.83C711.624 1580.95 710.692 1569.03 708.113 1557.42L707.974 1556.79C704.411 1540.74 697.685 1525.56 688.19 1512.14C680.04 1500.62 669.826 1490.47 658.291 1482.35C642.116 1470.95 623.271 1463.36 603.695 1460.48L600.659 1460.03C587.007 1458.02 573.133 1458.05 559.49 1460.12L549.401 1461.65C535.37 1463.78 521.735 1467.99 508.944 1474.13L506.073 1475.51C494.74 1480.96 484.314 1488.12 475.163 1496.74C466.613 1504.8 459.268 1514.04 453.354 1524.19Z" fill="#2A102D"/>
<path d="M594 1677.86V1685.5C594 1694.48 595.801 1703.36 599.296 1711.62L600.149 1713.64C604.735 1724.48 611.719 1734.14 620.576 1741.89L623.371 1744.34C628.749 1749.04 634.759 1752.97 641.227 1756.02C648.425 1759.4 656.107 1761.64 663.995 1762.66L682.072 1765H690.938C719.36 1765 747.138 1756.53 770.725 1740.67L772.018 1739.8L783.104 1731.2C795.025 1721.95 802 1707.71 802 1692.63C802 1684.17 799.801 1675.85 795.617 1668.49L787.742 1654.64C784.761 1649.4 781.313 1644.44 777.44 1639.82L771.979 1633.3C763.434 1623.1 752.185 1615.52 739.524 1611.43C732.497 1609.16 725.158 1608 717.773 1608H698.251C687.508 1608 676.809 1609.36 666.408 1612.05C651.978 1615.78 638.316 1622.02 626.046 1630.48L614.813 1638.23C612.188 1640.04 609.748 1642.11 607.531 1644.4C598.852 1653.38 594 1665.38 594 1677.86Z" fill="#2A102D"/>
<path d="M795.956 1791L795.955 1833.45L795.956 1890.06V2143H852.664V1964.35L933 1842.3H885.743L852.664 1900.67V1791H795.956Z" fill="#2A102D"/>
<path d="M803.57 1595.75L798.386 1615.1L835.928 1612.43L855.603 1612.9C868.39 1613.2 880.931 1616.47 892.242 1622.44C905.029 1629.19 915.822 1639.18 923.546 1651.4L928.701 1659.56L937.39 1627.13C940.785 1614.46 939.943 1601.03 934.993 1588.89C930.477 1577.8 922.757 1568.32 912.822 1561.66L910.806 1560.3C898.935 1552.34 884.855 1548.31 870.566 1548.8L862.3 1549.08C851.056 1549.46 840.121 1552.84 830.627 1558.88C817.31 1567.35 807.655 1580.51 803.57 1595.75Z" fill="#480A2F"/>
<path d="M697.354 1655.19L693.077 1662.53C687.254 1672.52 683.126 1683.41 680.86 1694.75C678.963 1704.25 678.391 1713.97 679.163 1723.62L681.141 1748.38L687.912 1757.5C702.233 1776.78 726.636 1785.72 750.024 1780.25L754.607 1779.18C756.528 1778.73 758.384 1778.04 760.131 1777.12C773.981 1769.85 790.918 1778.01 793.869 1793.37L795.797 1803.41L797.432 1815.41C799.194 1828.35 810.244 1838 823.302 1838C834.921 1838 845.142 1830.32 848.378 1819.16L852.701 1804.26C855.524 1794.52 861.434 1785.97 869.539 1779.88L879.048 1772.74C893.315 1762.03 910.673 1756.24 928.514 1756.24H952.859L954.882 1723.83C955.624 1711.95 954.692 1700.03 952.113 1688.42L951.974 1687.79C948.411 1671.74 941.685 1656.56 932.19 1643.14C924.04 1631.62 913.826 1621.47 902.291 1613.35C886.116 1601.95 867.271 1594.36 847.695 1591.48L844.659 1591.03C831.007 1589.02 817.133 1589.05 803.49 1591.12L793.401 1592.65C779.37 1594.78 765.735 1598.99 752.944 1605.13L750.073 1606.51C738.74 1611.96 728.314 1619.12 719.163 1627.74C710.613 1635.8 703.268 1645.04 697.354 1655.19Z" fill="#480A2F"/>
<path d="M838 1808.86V1816.5C838 1825.48 839.801 1834.36 843.296 1842.62L844.149 1844.64C848.735 1855.48 855.719 1865.14 864.576 1872.89L867.371 1875.34C872.749 1880.04 878.759 1883.97 885.227 1887.02C892.425 1890.4 900.107 1892.64 907.995 1893.66L926.072 1896H934.938C963.36 1896 991.138 1887.53 1014.73 1871.67L1016.02 1870.8L1027.1 1862.2C1039.02 1852.95 1046 1838.71 1046 1823.63C1046 1815.17 1043.8 1806.85 1039.62 1799.49L1031.74 1785.64C1028.76 1780.4 1025.31 1775.44 1021.44 1770.82L1015.98 1764.3C1007.43 1754.1 996.185 1746.52 983.524 1742.43C976.497 1740.16 969.158 1739 961.773 1739H942.251C931.508 1739 920.809 1740.36 910.408 1743.05C895.978 1746.78 882.316 1753.02 870.046 1761.48L858.813 1769.23C856.188 1771.04 853.748 1773.11 851.531 1775.4C842.852 1784.38 838 1796.38 838 1808.86Z" fill="#480A2F"/>
<path d="M651 1781.75V1788.16C651 1795.71 652.515 1803.17 655.456 1810.12L656.175 1811.82C660.032 1820.93 665.906 1829.05 673.354 1835.57L675.709 1837.63C680.235 1841.58 685.293 1844.89 690.735 1847.45C696.791 1850.29 703.252 1852.18 709.888 1853.03L725.099 1855H731.256C756.019 1855 780.22 1847.62 800.775 1833.81L810.11 1826.58C820.134 1818.81 826 1806.84 826 1794.15C826 1787.04 824.15 1780.04 820.63 1773.86L814.006 1762.22C811.497 1757.81 808.595 1753.64 805.335 1749.75L800.747 1744.28C793.554 1735.7 784.087 1729.32 773.434 1725.88C767.523 1723.97 761.35 1723 755.139 1723H738.709C729.672 1723 720.672 1724.14 711.922 1726.41C699.78 1729.54 688.284 1734.79 677.958 1741.9L668.509 1748.42C666.301 1749.94 664.25 1751.67 662.386 1753.6C655.083 1761.15 651 1771.24 651 1781.75Z" fill="#480A2F"/>
<path d="M1344.96 1808.75L1332.35 1789.87H1304L1344.96 1859.08V2084H1401.66V1925.14L1482 1816.61H1434.74L1401.66 1868.52V1771H1344.96V1808.75Z" fill="#480A2F"/>
<path d="M1287 1535.53V1561.19L1332.57 1545.44L1357.07 1539.5C1373 1535.63 1389.6 1535.52 1405.58 1539.16C1423.64 1543.27 1440.31 1552.05 1453.92 1564.61L1463 1573V1529.99C1463 1513.19 1457.5 1496.85 1447.35 1483.46C1438.09 1471.24 1425.39 1462.07 1410.89 1457.11L1407.95 1456.11C1390.61 1450.19 1371.86 1449.87 1354.34 1455.21L1344.2 1458.3C1330.41 1462.5 1318 1470.32 1308.26 1480.94C1294.59 1495.83 1287 1515.31 1287 1535.53Z" fill="#480A2F"/>
<path d="M1246.35 1596.19L1242.08 1603.53C1236.25 1613.52 1232.13 1624.41 1229.86 1635.75C1227.96 1645.25 1227.39 1654.97 1228.16 1664.62L1230.14 1689.38L1271.4 1684.21C1277.39 1683.47 1283.43 1683.35 1289.43 1683.87L1303.88 1685.13C1312.11 1685.85 1319.91 1689.1 1326.21 1694.43C1333.16 1700.32 1337.88 1708.4 1339.6 1717.35L1344.8 1744.41L1346.43 1756.41C1348.19 1769.35 1359.24 1779 1372.3 1779C1383.92 1779 1394.14 1771.32 1397.38 1760.16L1401.7 1745.26C1404.52 1735.52 1410.43 1726.97 1418.54 1720.88L1428.05 1713.74C1442.32 1703.03 1459.67 1697.24 1477.51 1697.24H1501.86L1503.88 1664.83C1504.62 1652.95 1503.69 1641.03 1501.11 1629.42L1500.97 1628.79C1497.41 1612.74 1490.69 1597.56 1481.19 1584.14C1473.04 1572.62 1462.83 1562.47 1451.29 1554.35C1435.12 1542.95 1416.27 1535.36 1396.7 1532.48L1393.66 1532.03C1380.01 1530.02 1366.13 1530.05 1352.49 1532.12L1342.4 1533.65C1328.37 1535.78 1314.73 1539.99 1301.94 1546.13L1299.07 1547.51C1287.74 1552.96 1277.31 1560.12 1268.16 1568.74C1259.61 1576.8 1252.27 1586.04 1246.35 1596.19Z" fill="#480A2F"/>
<path d="M1189 1737.29V1743.14C1189 1750.48 1190.52 1757.74 1193.45 1764.47L1194.23 1766.25C1198.05 1775 1203.82 1782.77 1211.11 1788.95L1213.61 1791.07C1218.2 1794.96 1223.31 1798.2 1228.79 1800.7C1234.81 1803.44 1241.21 1805.26 1247.78 1806.08L1263.1 1808H1271.3C1294.76 1808 1317.7 1801.18 1337.36 1788.38L1338.77 1787.46L1348.46 1780.18C1358.24 1772.82 1364 1761.29 1364 1749.05C1364 1742.12 1362.15 1735.32 1358.64 1729.34L1352.09 1718.17C1349.52 1713.8 1346.57 1709.68 1343.25 1705.84L1338.98 1700.91C1331.63 1692.4 1322.06 1686.12 1311.33 1682.76C1305.49 1680.93 1299.4 1680 1293.27 1680H1276.61C1267.64 1680 1258.7 1681.1 1249.99 1683.28C1237.8 1686.34 1226.22 1691.47 1215.77 1698.46L1206.42 1704.71C1204.27 1706.14 1202.27 1707.78 1200.45 1709.61C1193.12 1716.96 1189 1726.92 1189 1737.29Z" fill="#480A2F"/>
<path d="M1387 1749.86V1757.5C1387 1766.48 1388.8 1775.36 1392.3 1783.62L1393.15 1785.64C1397.73 1796.48 1404.72 1806.14 1413.58 1813.89L1416.37 1816.34C1421.75 1821.04 1427.76 1824.97 1434.23 1828.02C1441.43 1831.4 1449.11 1833.64 1457 1834.66L1475.07 1837H1483.94C1512.36 1837 1540.14 1828.53 1563.73 1812.67L1565.02 1811.8L1576.1 1803.2C1588.02 1793.95 1595 1779.71 1595 1764.63C1595 1756.17 1592.8 1747.85 1588.62 1740.49L1580.74 1726.64C1577.76 1721.4 1574.31 1716.44 1570.44 1711.82L1564.98 1705.3C1556.43 1695.1 1545.18 1687.52 1532.52 1683.43C1525.5 1681.16 1518.16 1680 1510.77 1680H1491.25C1480.51 1680 1469.81 1681.36 1459.41 1684.05C1444.98 1687.78 1431.32 1694.02 1419.05 1702.48L1407.81 1710.23C1405.19 1712.04 1402.75 1714.11 1400.53 1716.4C1391.85 1725.38 1387 1737.38 1387 1749.86Z" fill="#480A2F"/>
<path d="M1592.96 1740.75L1580.35 1721.87H1552L1592.96 1791.08V2016H1649.66V1857.14L1730 1748.61H1682.74L1649.66 1800.52V1703H1592.96V1740.75Z" fill="#2A102D"/>
<path d="M1535 1467.53V1493.19L1580.57 1477.44L1605.07 1471.5C1621 1467.63 1637.6 1467.52 1653.58 1471.16C1671.64 1475.27 1688.31 1484.05 1701.92 1496.61L1711 1505V1461.99C1711 1445.19 1705.5 1428.85 1695.35 1415.46C1686.09 1403.24 1673.39 1394.07 1658.89 1389.11L1655.95 1388.11C1638.61 1382.19 1619.86 1381.87 1602.34 1387.21L1592.2 1390.3C1578.41 1394.5 1566 1402.32 1556.26 1412.94C1542.59 1427.83 1535 1447.31 1535 1467.53Z" fill="#2A102D"/>
<path d="M1494.35 1528.19L1490.08 1535.53C1484.25 1545.52 1480.13 1556.41 1477.86 1567.75C1475.96 1577.25 1475.39 1586.97 1476.16 1596.62L1478.14 1621.38L1519.4 1616.21C1525.39 1615.47 1531.43 1615.35 1537.43 1615.87L1551.88 1617.13C1560.11 1617.85 1567.91 1621.1 1574.21 1626.43C1581.16 1632.32 1585.88 1640.4 1587.6 1649.35L1592.8 1676.41L1594.43 1688.41C1596.19 1701.35 1607.24 1711 1620.3 1711C1631.92 1711 1642.14 1703.32 1645.38 1692.16L1649.7 1677.26C1652.52 1667.52 1658.43 1658.97 1666.54 1652.88L1676.05 1645.74C1690.32 1635.03 1707.67 1629.24 1725.51 1629.24H1749.86L1751.88 1596.83C1752.62 1584.95 1751.69 1573.03 1749.11 1561.42L1748.97 1560.79C1745.41 1544.74 1738.69 1529.56 1729.19 1516.14C1721.04 1504.62 1710.83 1494.47 1699.29 1486.35C1683.12 1474.95 1664.27 1467.36 1644.7 1464.48L1641.66 1464.03C1628.01 1462.02 1614.13 1462.05 1600.49 1464.12L1590.4 1465.65C1576.37 1467.78 1562.73 1471.99 1549.94 1478.13L1547.07 1479.51C1535.74 1484.96 1525.31 1492.12 1516.16 1500.74C1507.61 1508.8 1500.27 1518.04 1494.35 1528.19Z" fill="#2A102D"/>
<path d="M1437 1669.29V1675.14C1437 1682.48 1438.52 1689.74 1441.45 1696.47L1442.23 1698.25C1446.05 1707 1451.82 1714.77 1459.11 1720.95L1461.61 1723.07C1466.2 1726.96 1471.31 1730.2 1476.79 1732.7C1482.81 1735.44 1489.21 1737.26 1495.78 1738.08L1511.1 1740H1519.3C1542.76 1740 1565.7 1733.18 1585.36 1720.38L1586.77 1719.46L1596.46 1712.18C1606.24 1704.82 1612 1693.29 1612 1681.05C1612 1674.12 1610.15 1667.32 1606.64 1661.34L1600.09 1650.17C1597.52 1645.8 1594.57 1641.68 1591.25 1637.84L1586.98 1632.91C1579.63 1624.4 1570.06 1618.12 1559.33 1614.76C1553.49 1612.93 1547.4 1612 1541.27 1612H1524.61C1515.64 1612 1506.7 1613.1 1497.99 1615.28C1485.8 1618.34 1474.22 1623.47 1463.77 1630.46L1454.42 1636.71C1452.27 1638.14 1450.27 1639.78 1448.45 1641.61C1441.12 1648.96 1437 1658.92 1437 1669.29Z" fill="#2A102D"/>
<path d="M1635 1681.86V1689.5C1635 1698.48 1636.8 1707.36 1640.3 1715.62L1641.15 1717.64C1645.73 1728.48 1652.72 1738.14 1661.58 1745.89L1664.37 1748.34C1669.75 1753.04 1675.76 1756.97 1682.23 1760.02C1689.43 1763.4 1697.11 1765.64 1705 1766.66L1723.07 1769H1731.94C1760.36 1769 1788.14 1760.53 1811.73 1744.67L1813.02 1743.8L1824.1 1735.2C1836.02 1725.95 1843 1711.71 1843 1696.63C1843 1688.17 1840.8 1679.85 1836.62 1672.49L1828.74 1658.64C1825.76 1653.4 1822.31 1648.44 1818.44 1643.82L1812.98 1637.3C1804.43 1627.1 1793.18 1619.52 1780.52 1615.43C1773.5 1613.16 1766.16 1612 1758.77 1612H1739.25C1728.51 1612 1717.81 1613.36 1707.41 1616.05C1692.98 1619.78 1679.32 1626.02 1667.05 1634.48L1655.81 1642.23C1653.19 1644.04 1650.75 1646.11 1648.53 1648.4C1639.85 1657.38 1635 1669.38 1635 1681.86Z" fill="#2A102D"/>
<path d="M1795.96 1693.54L1783.35 1671.77H1755L1795.96 1751.59V2011H1852.66V1827.78L1920 1720.5V1702.61H1885.74L1852.66 1762.47V1650H1795.96V1693.54Z" fill="#480A2F"/>
<path d="M1773 1445.53V1471.19L1818.57 1455.44L1859.02 1445.63C1864.46 1444.31 1870.12 1444.26 1875.58 1445.48L1914.21 1454.14C1917.18 1454.81 1920 1452.54 1920 1449.5V1415V1381.5L1899.47 1371.96C1878.75 1362.33 1855.2 1360.68 1833.34 1367.35L1830.2 1368.3C1816.41 1372.5 1804 1380.32 1794.26 1390.94C1780.59 1405.83 1773 1425.31 1773 1445.53Z" fill="#480A2F"/>
<path d="M1697.35 1475.19L1693.08 1482.53C1687.25 1492.52 1683.13 1503.41 1680.86 1514.75C1678.96 1524.25 1678.39 1533.97 1679.16 1543.62L1681.14 1568.38L1722.4 1563.21C1728.39 1562.47 1734.43 1562.35 1740.43 1562.87L1754.88 1564.13C1763.11 1564.85 1770.91 1568.1 1777.21 1573.43C1784.16 1579.32 1788.88 1587.4 1790.6 1596.35L1795.8 1623.41L1797.43 1635.41C1799.19 1648.35 1810.24 1658 1823.3 1658C1834.92 1658 1845.14 1650.32 1848.38 1639.16L1852.7 1624.26C1855.52 1614.52 1861.43 1605.97 1869.54 1599.88L1885.85 1587.63C1895.79 1580.17 1907.53 1575.47 1919.88 1574V1525V1480.5V1445.74L1904.58 1434.96C1886.76 1422.4 1866.23 1414.21 1844.66 1411.03C1831.01 1409.02 1817.13 1409.05 1803.49 1411.12L1793.4 1412.65C1779.37 1414.78 1765.73 1418.99 1752.94 1425.13L1750.07 1426.51C1738.74 1431.96 1728.31 1439.12 1719.16 1447.74C1710.61 1455.8 1703.27 1465.04 1697.35 1475.19Z" fill="#480A2F"/>
<path d="M1640 1616.29V1622.14C1640 1629.48 1641.52 1636.74 1644.45 1643.47L1645.23 1645.25C1649.05 1654 1654.82 1661.77 1662.11 1667.95L1664.61 1670.07C1669.2 1673.96 1674.31 1677.2 1679.79 1679.7C1685.81 1682.44 1692.21 1684.26 1698.78 1685.08L1714.1 1687H1722.3C1745.76 1687 1768.7 1680.18 1788.36 1667.38L1789.77 1666.46L1799.46 1659.18C1809.24 1651.82 1815 1640.29 1815 1628.05C1815 1621.12 1813.15 1614.32 1809.64 1608.34L1803.09 1597.17C1800.52 1592.8 1797.57 1588.68 1794.25 1584.84L1789.98 1579.91C1782.63 1571.4 1773.06 1565.12 1762.33 1561.76C1756.49 1559.93 1750.4 1559 1744.27 1559H1727.61C1718.64 1559 1709.7 1560.1 1700.99 1562.28C1688.8 1565.34 1677.22 1570.47 1666.77 1577.46L1657.42 1583.71C1655.27 1585.14 1653.27 1586.78 1651.45 1588.61C1644.12 1595.96 1640 1605.92 1640 1616.29Z" fill="#480A2F"/>
<path d="M1838 1628.86V1636.5C1838 1645.48 1839.8 1654.36 1843.3 1662.62L1844.15 1664.64C1848.73 1675.48 1855.72 1685.14 1864.58 1692.89L1868.85 1696.64C1873.25 1700.48 1878.16 1703.69 1883.44 1706.18C1891.77 1710.09 1900.86 1712.12 1910.07 1712.12H1920V1692V1662V1633.5V1605V1573.5V1559L1912.33 1561.37C1896.6 1566.22 1881.7 1573.45 1868.15 1582.79L1858.81 1589.23C1856.19 1591.04 1853.75 1593.11 1851.53 1595.4C1842.85 1604.38 1838 1616.38 1838 1628.86Z" fill="#2A102D"/>
<rect y="1999" width="1920" height="161" fill="#2A102D"/>
<circle cx="211.5" cy="297.5" r="1.5" fill="#D9D9D9"/>
<circle cx="238.5" cy="264.5" r="1.5" fill="#D9D9D9"/>
<circle cx="306.5" cy="309.5" r="1.5" fill="#D9D9D9"/>
<circle cx="329.5" cy="209.5" r="1.5" fill="#D9D9D9"/>
<circle cx="349.5" cy="128.5" r="1.5" fill="#D9D9D9"/>
<circle cx="309.5" cy="20.5" r="1.5" fill="#D9D9D9"/>
<circle cx="123.5" cy="102.5" r="1.5" fill="#D9D9D9"/>
<circle cx="214.5" cy="148.5" r="1.5" fill="#D9D9D9"/>
<circle cx="422.5" cy="238.5" r="1.5" fill="#D9D9D9"/>
<circle cx="175.5" cy="560.5" r="1.5" fill="#D9D9D9"/>
<circle cx="266.5" cy="505.5" r="1.5" fill="#D9D9D9"/>
<circle cx="151.5" cy="444.5" r="1.5" fill="#D9D9D9"/>
<circle cx="359.5" cy="534.5" r="1.5" fill="#D9D9D9"/>
<circle cx="326.5" cy="412.5" r="1.5" fill="#D9D9D9"/>
<circle cx="381.5" cy="582.5" r="1.5" fill="#D9D9D9"/>
<circle cx="621.5" cy="193.5" r="1.5" fill="#D9D9D9"/>
<circle cx="648.5" cy="160.5" r="1.5" fill="#D9D9D9"/>
<circle cx="716.5" cy="205.5" r="1.5" fill="#D9D9D9"/>
<circle cx="739.5" cy="105.5" r="1.5" fill="#D9D9D9"/>
<circle cx="759.5" cy="24.5" r="1.5" fill="#D9D9D9"/>
<circle cx="624.5" cy="44.5" r="1.5" fill="#D9D9D9"/>
<circle cx="832.5" cy="134.5" r="1.5" fill="#D9D9D9"/>
<circle cx="585.5" cy="456.5" r="1.5" fill="#D9D9D9"/>
<circle cx="676.5" cy="401.5" r="1.5" fill="#D9D9D9"/>
<circle cx="561.5" cy="340.5" r="1.5" fill="#D9D9D9"/>
<circle cx="769.5" cy="430.5" r="1.5" fill="#D9D9D9"/>
<circle cx="736.5" cy="308.5" r="1.5" fill="#D9D9D9"/>
<circle cx="791.5" cy="478.5" r="1.5" fill="#D9D9D9"/>
<circle cx="1041.5" cy="306.5" r="1.5" fill="#D9D9D9"/>
<circle cx="1068.5" cy="273.5" r="1.5" fill="#D9D9D9"/>
<circle cx="1136.5" cy="318.5" r="1.5" fill="#D9D9D9"/>
<circle cx="1159.5" cy="218.5" r="1.5" fill="#D9D9D9"/>
<circle cx="1179.5" cy="137.5" r="1.5" fill="#D9D9D9"/>
<circle cx="1139.5" cy="29.5" r="1.5" fill="#D9D9D9"/>
<circle cx="953.5" cy="111.5" r="1.5" fill="#D9D9D9"/>
<circle cx="1044.5" cy="157.5" r="1.5" fill="#D9D9D9"/>
<circle cx="1252.5" cy="247.5" r="1.5" fill="#D9D9D9"/>
<circle cx="1005.5" cy="569.5" r="1.5" fill="#D9D9D9"/>
<circle cx="1096.5" cy="514.5" r="1.5" fill="#D9D9D9"/>
<circle cx="981.5" cy="453.5" r="1.5" fill="#D9D9D9"/>
<circle cx="1189.5" cy="543.5" r="1.5" fill="#D9D9D9"/>
<circle cx="1156.5" cy="421.5" r="1.5" fill="#D9D9D9"/>
<circle cx="1211.5" cy="591.5" r="1.5" fill="#D9D9D9"/>
<circle cx="1338.5" cy="144.5" r="1.5" fill="#D9D9D9"/>
<circle cx="1365.5" cy="111.5" r="1.5" fill="#D9D9D9"/>
<circle cx="1433.5" cy="156.5" r="1.5" fill="#D9D9D9"/>
<circle cx="1456.5" cy="56.5" r="1.5" fill="#D9D9D9"/>
<circle cx="1549.5" cy="85.5" r="1.5" fill="#D9D9D9"/>
<circle cx="1302.5" cy="407.5" r="1.5" fill="#D9D9D9"/>
<circle cx="1393.5" cy="352.5" r="1.5" fill="#D9D9D9"/>
<circle cx="1278.5" cy="291.5" r="1.5" fill="#D9D9D9"/>
<circle cx="1486.5" cy="381.5" r="1.5" fill="#D9D9D9"/>
<circle cx="1453.5" cy="259.5" r="1.5" fill="#D9D9D9"/>
<circle cx="1508.5" cy="429.5" r="1.5" fill="#D9D9D9"/>
<circle cx="1658.5" cy="382.5" r="1.5" fill="#D9D9D9"/>
<circle cx="1685.5" cy="349.5" r="1.5" fill="#D9D9D9"/>
<circle cx="1753.5" cy="394.5" r="1.5" fill="#D9D9D9"/>
<circle cx="1776.5" cy="294.5" r="1.5" fill="#D9D9D9"/>
<circle cx="1796.5" cy="213.5" r="1.5" fill="#D9D9D9"/>
<circle cx="1756.5" cy="105.5" r="1.5" fill="#D9D9D9"/>
<circle cx="1570.5" cy="187.5" r="1.5" fill="#D9D9D9"/>
<circle cx="1661.5" cy="233.5" r="1.5" fill="#D9D9D9"/>
<circle cx="1869.5" cy="323.5" r="1.5" fill="#D9D9D9"/>
<circle cx="1622.5" cy="645.5" r="1.5" fill="#D9D9D9"/>
<circle cx="1713.5" cy="590.5" r="1.5" fill="#D9D9D9"/>
<circle cx="1598.5" cy="529.5" r="1.5" fill="#D9D9D9"/>
<circle cx="1806.5" cy="619.5" r="1.5" fill="#D9D9D9"/>
<circle cx="1773.5" cy="497.5" r="1.5" fill="#D9D9D9"/>
<circle cx="1828.5" cy="667.5" r="1.5" fill="#D9D9D9"/>
<circle cx="219.5" cy="885.5" r="1.5" fill="#D9D9D9"/>
<circle cx="246.5" cy="852.5" r="1.5" fill="#D9D9D9"/>
<circle cx="314.5" cy="897.5" r="1.5" fill="#D9D9D9"/>
<circle cx="337.5" cy="797.5" r="1.5" fill="#D9D9D9"/>
<circle cx="357.5" cy="716.5" r="1.5" fill="#D9D9D9"/>
<circle cx="317.5" cy="608.5" r="1.5" fill="#D9D9D9"/>
<circle cx="131.5" cy="690.5" r="1.5" fill="#D9D9D9"/>
<circle cx="222.5" cy="736.5" r="1.5" fill="#D9D9D9"/>
<circle cx="430.5" cy="826.5" r="1.5" fill="#D9D9D9"/>
<circle cx="274.5" cy="1093.5" r="1.5" fill="#D9D9D9"/>
<circle cx="159.5" cy="1032.5" r="1.5" fill="#D9D9D9"/>
<circle cx="367.5" cy="1122.5" r="1.5" fill="#D9D9D9"/>
<circle cx="334.5" cy="1000.5" r="1.5" fill="#D9D9D9"/>
<circle cx="389.5" cy="1170.5" r="1.5" fill="#D9D9D9"/>
<circle cx="629.5" cy="781.5" r="1.5" fill="#D9D9D9"/>
<circle cx="656.5" cy="748.5" r="1.5" fill="#D9D9D9"/>
<circle cx="724.5" cy="793.5" r="1.5" fill="#D9D9D9"/>
<circle cx="747.5" cy="693.5" r="1.5" fill="#D9D9D9"/>
<circle cx="767.5" cy="612.5" r="1.5" fill="#D9D9D9"/>
<circle cx="727.5" cy="504.5" r="1.5" fill="#D9D9D9"/>
<circle cx="541.5" cy="586.5" r="1.5" fill="#D9D9D9"/>
<circle cx="632.5" cy="632.5" r="1.5" fill="#D9D9D9"/>
<circle cx="840.5" cy="722.5" r="1.5" fill="#D9D9D9"/>
<circle cx="593.5" cy="1044.5" r="1.5" fill="#D9D9D9"/>
<circle cx="684.5" cy="989.5" r="1.5" fill="#D9D9D9"/>
<circle cx="569.5" cy="928.5" r="1.5" fill="#D9D9D9"/>
<circle cx="777.5" cy="1018.5" r="1.5" fill="#D9D9D9"/>
<circle cx="744.5" cy="896.5" r="1.5" fill="#D9D9D9"/>
<circle cx="799.5" cy="1066.5" r="1.5" fill="#D9D9D9"/>
<circle cx="1049.5" cy="894.5" r="1.5" fill="#D9D9D9"/>
<circle cx="1076.5" cy="861.5" r="1.5" fill="#D9D9D9"/>
<circle cx="1144.5" cy="906.5" r="1.5" fill="#D9D9D9"/>
<circle cx="1167.5" cy="806.5" r="1.5" fill="#D9D9D9"/>
<circle cx="1187.5" cy="725.5" r="1.5" fill="#D9D9D9"/>
<circle cx="1147.5" cy="617.5" r="1.5" fill="#D9D9D9"/>
<circle cx="961.5" cy="699.5" r="1.5" fill="#D9D9D9"/>
<circle cx="1052.5" cy="745.5" r="1.5" fill="#D9D9D9"/>
<circle cx="1260.5" cy="835.5" r="1.5" fill="#D9D9D9"/>
<circle cx="1013.5" cy="1157.5" r="1.5" fill="#D9D9D9"/>
<circle cx="1104.5" cy="1102.5" r="1.5" fill="#D9D9D9"/>
<circle cx="989.5" cy="1041.5" r="1.5" fill="#D9D9D9"/>
<circle cx="1197.5" cy="1131.5" r="1.5" fill="#D9D9D9"/>
<circle cx="1164.5" cy="1009.5" r="1.5" fill="#D9D9D9"/>
<circle cx="1219.5" cy="1179.5" r="1.5" fill="#D9D9D9"/>
<circle cx="1346.5" cy="732.5" r="1.5" fill="#D9D9D9"/>
<circle cx="1373.5" cy="699.5" r="1.5" fill="#D9D9D9"/>
<circle cx="1441.5" cy="744.5" r="1.5" fill="#D9D9D9"/>
<circle cx="1464.5" cy="644.5" r="1.5" fill="#D9D9D9"/>
<circle cx="1484.5" cy="563.5" r="1.5" fill="#D9D9D9"/>
<circle cx="1444.5" cy="455.5" r="1.5" fill="#D9D9D9"/>
<circle cx="1258.5" cy="537.5" r="1.5" fill="#D9D9D9"/>
<circle cx="1349.5" cy="583.5" r="1.5" fill="#D9D9D9"/>
<circle cx="1557.5" cy="673.5" r="1.5" fill="#D9D9D9"/>
<circle cx="1310.5" cy="995.5" r="1.5" fill="#D9D9D9"/>
<circle cx="1401.5" cy="940.5" r="1.5" fill="#D9D9D9"/>
<circle cx="1286.5" cy="879.5" r="1.5" fill="#D9D9D9"/>
<circle cx="1494.5" cy="969.5" r="1.5" fill="#D9D9D9"/>
<circle cx="1461.5" cy="847.5" r="1.5" fill="#D9D9D9"/>
<circle cx="1516.5" cy="1017.5" r="1.5" fill="#D9D9D9"/>
<circle cx="1666.5" cy="970.5" r="1.5" fill="#D9D9D9"/>
<circle cx="1693.5" cy="937.5" r="1.5" fill="#D9D9D9"/>
<circle cx="1761.5" cy="982.5" r="1.5" fill="#D9D9D9"/>
<circle cx="1784.5" cy="882.5" r="1.5" fill="#D9D9D9"/>
<circle cx="1804.5" cy="801.5" r="1.5" fill="#D9D9D9"/>
<circle cx="1764.5" cy="693.5" r="1.5" fill="#D9D9D9"/>
<circle cx="1578.5" cy="775.5" r="1.5" fill="#D9D9D9"/>
<circle cx="1669.5" cy="821.5" r="1.5" fill="#D9D9D9"/>
<circle cx="1877.5" cy="911.5" r="1.5" fill="#D9D9D9"/>
<circle cx="1606.5" cy="1117.5" r="1.5" fill="#D9D9D9"/>
<circle cx="1781.5" cy="1085.5" r="1.5" fill="#D9D9D9"/>
<path d="M145.518 2011H6.86646e-05L0 1987V1979.98V1975V1967.91V1958V1948V1943.21V1937V1932.5V1928L4.78724 1930.57L5.44814 1931.02C8.42028 1933 10.9366 1935.59 12.8298 1938.62L17.3097 1945.34C17.3866 1945.45 17.4491 1945.58 17.4958 1945.71C18.1173 1947.45 20.6786 1947.08 20.7871 1945.24L20.8723 1943.79L22.0213 1934.02L22.2597 1933.01C23.628 1927.19 25.6687 1921.56 28.3404 1916.21L29.7363 1913.42C30.7142 1911.47 32.001 1909.68 33.5473 1908.13L36.0977 1905.58C37.0362 1904.64 38.2121 1903.98 39.4997 1903.66L39.8455 1903.57C41.3182 1903.2 42.874 1903.37 44.2317 1904.05C45.1148 1904.49 45.8829 1905.13 46.4752 1905.92L47.6171 1907.45C48.5471 1908.69 49.2712 1910.07 49.7613 1911.54L50.4984 1913.75C51.0444 1915.39 51.442 1917.07 51.6862 1918.78L51.9617 1920.71C52.2988 1923.07 52.4681 1925.45 52.4681 1927.84V1931.15L52.3093 1933.21C52.2025 1934.6 54.0282 1935.2 54.7659 1934.02L58.7872 1927.13L62.0348 1922.66C62.9322 1921.43 63.9249 1920.27 65.0038 1919.19C66.9769 1917.21 69.2225 1915.53 71.6722 1914.2L74.2979 1912.77L76.6114 1911.84C78.8839 1910.93 81.2882 1910.39 83.7317 1910.25L86.135 1910.11C88.5418 1909.97 90.9435 1910.46 93.0998 1911.54L93.3337 1911.66C94.0454 1912.01 94.7175 1912.44 95.3389 1912.94C96.6155 1913.96 97.6552 1915.25 98.3863 1916.71L98.7671 1917.47C99.3034 1918.54 99.7107 1919.68 99.9804 1920.84L100.648 1923.74C101.081 1925.61 101.378 1927.52 101.538 1929.43L101.551 1929.58C101.765 1932.15 101.743 1934.74 101.487 1937.3L101.298 1939.19L100.735 1944.26C100.727 1944.33 100.714 1944.39 100.696 1944.46C100.366 1945.61 101.743 1946.49 102.646 1945.7L103.936 1944.57C104.091 1944.43 104.269 1944.32 104.462 1944.25L106.472 1943.5C107.989 1942.93 109.596 1942.64 111.216 1942.64H111.493C113.483 1942.64 115.45 1943.06 117.268 1943.86C118.863 1944.57 120.314 1945.57 121.548 1946.8L121.945 1947.2C122.731 1947.99 123.425 1948.86 124.014 1949.8C125.317 1951.89 126.076 1954.27 126.22 1956.72L126.554 1962.4C126.568 1962.63 126.531 1962.85 126.446 1963.07C125.998 1964.18 126.947 1965.36 128.136 1965.17L128.646 1965.08C128.796 1965.06 128.949 1965.05 129.101 1965.06L133.38 1965.42C134.952 1965.55 136.476 1966.02 137.845 1966.81C139.126 1967.54 140.244 1968.52 141.129 1969.7L141.37 1970.02C142.595 1971.66 143.409 1973.56 143.745 1975.58L144.092 1977.66C144.286 1978.82 144.383 1980 144.383 1981.18V1981.79C144.383 1985.52 143.6 1989.21 142.085 1992.62L141.618 1993.55C141.179 1994.43 142.058 1995.39 142.969 1995.02C143.143 1994.95 143.331 1994.93 143.517 1994.96L145.185 1995.19C146.538 1995.39 147.812 1995.95 148.862 1996.83L149.148 1997.07C150.17 1997.92 150.983 1998.99 151.524 2000.21L151.932 2001.13C152.621 2002.68 152.725 2004.42 152.227 2006.04C151.321 2008.99 148.599 2011 145.518 2011Z" fill="#2A102D"/>
<path d="M290.485 2096H134.418C131.893 2096 129.435 2095.19 127.402 2093.7C126.809 2093.26 126.258 2092.77 125.756 2092.23L123.064 2089.35L121.484 2087.82C119.482 2085.89 117.739 2083.7 116.3 2081.32C115.068 2079.28 114.067 2077.12 113.315 2074.86L112.723 2073.08L112.618 2072.81C111.554 2070.07 111.148 2067.12 111.432 2064.2C111.527 2063.22 111.698 2062.25 111.944 2061.3L112.783 2058.06C113.12 2056.76 113.791 2055.57 114.728 2054.6C115.673 2053.63 116.856 2052.92 118.16 2052.55L118.496 2052.45C120.344 2051.92 122.331 2052 124.136 2052.67C124.944 2052.96 125.714 2053.38 126.407 2053.89L127.897 2054.98C128.886 2055.71 129.813 2056.52 130.668 2057.4L132.255 2059.03L135.893 2063.71C136.064 2063.93 136.405 2063.72 136.277 2063.47L133.979 2057.55L131.106 2048.68L128.809 2039.07C127.663 2034.16 127.085 2029.13 127.085 2024.08V2019.85L127.58 2015.07C128.014 2010.88 129.007 2006.77 130.532 2002.84L131.778 1999.63C132.476 1997.84 133.43 1996.15 134.611 1994.63L136.338 1992.41C137.425 1991.01 138.874 1989.93 140.527 1989.3L140.876 1989.16C142.732 1988.44 144.778 1988.39 146.672 1989C147.773 1989.35 148.793 1989.92 149.671 1990.67L151.787 1992.49L151.967 1992.64C155.259 1995.47 157.935 1998.94 159.83 2002.84L164.345 2011.56C164.399 2011.66 164.441 2011.77 164.472 2011.88C164.985 2013.73 167.693 2013.42 167.78 2011.51L167.872 2009.49L169.021 1996.93L169.322 1995.28C170.65 1988.01 172.666 1980.89 175.34 1974.01L177.015 1969.69C177.809 1967.65 178.896 1965.73 180.242 1964L183.362 1959.99C184.124 1959 185.165 1958.28 186.348 1957.89L186.54 1957.83C188.178 1957.31 189.966 1957.54 191.413 1958.47C192.177 1958.96 192.813 1959.63 193.27 1960.41L194.764 1962.97C195.598 1964.41 196.232 1965.95 196.648 1967.55L197.534 1970.98C198.057 1972.99 198.435 1975.05 198.664 1977.12L199.468 1984.36V1993.23L199.286 1996.28C199.201 1997.7 201.141 1998.21 201.766 1996.93L205.787 1988.05L209.175 1982.06C209.979 1980.63 210.886 1979.27 211.889 1977.98C213.937 1975.35 216.368 1973.03 219.1 1971.11L221.298 1969.57L223.764 1968.3C225.928 1967.19 228.293 1966.52 230.72 1966.33L232.746 1966.18C235.382 1965.98 238.011 1966.65 240.234 1968.08C241.012 1968.58 241.73 1969.16 242.374 1969.83L242.441 1969.9C243.652 1971.14 244.601 1972.62 245.231 1974.24L245.832 1975.79C246.326 1977.06 246.696 1978.38 246.936 1979.72L248.298 1987.31L248.393 1988.79C248.712 1993.71 248.68 1998.66 248.298 2003.58L247.723 2010.23C247.416 2011.62 249.153 2012.51 250.095 2011.45L250.943 2010.49C251.093 2010.32 251.275 2010.18 251.478 2010.09L253.373 2009.17C254.948 2008.41 256.674 2008.02 258.423 2008.02C260.446 2008.02 262.435 2008.54 264.191 2009.55L264.475 2009.71C265.931 2010.54 267.211 2011.66 268.24 2012.98L268.936 2013.88C269.728 2014.9 270.412 2016 270.976 2017.16L271.095 2017.4C272.352 2019.99 273.068 2022.81 273.199 2025.68L273.558 2033.53C273.569 2033.77 273.538 2034.01 273.468 2034.24L273.382 2034.51C272.954 2035.89 274.167 2037.22 275.577 2036.91C275.773 2036.87 275.974 2036.86 276.173 2036.88L279.959 2037.29C281.798 2037.49 283.551 2038.17 285.04 2039.26C286.193 2040.11 287.159 2041.19 287.879 2042.42L288.533 2043.54C289.656 2045.47 290.382 2047.6 290.668 2049.81L291.383 2055.34V2058.65C291.383 2063.31 290.606 2067.94 289.085 2072.34L288.398 2074.11C288.036 2075.04 289.018 2075.92 289.905 2075.47C290.118 2075.36 290.362 2075.32 290.598 2075.36L292.276 2075.67C293.561 2075.91 294.737 2076.55 295.628 2077.51L296.355 2078.29C297.243 2079.24 297.922 2080.37 298.347 2081.6L299.13 2083.87C299.698 2085.51 299.785 2087.29 299.38 2088.98C298.396 2093.1 294.717 2096 290.485 2096Z" fill="#2A102D"/>
<path d="M426.518 2018H268.01C265.731 2018 263.491 2017.41 261.512 2016.27C260.846 2015.89 260.214 2015.46 259.625 2014.96L257.064 2012.83L255.139 2011.39C253.366 2010.06 251.779 2008.5 250.418 2006.75C249.109 2005.06 248.022 2003.22 247.182 2001.26L246.723 2000.19L246.561 1999.87C245.543 1997.83 245.151 1995.54 245.433 1993.28C245.527 1992.53 245.695 1991.79 245.935 1991.07L246.647 1988.93C247.072 1987.66 247.856 1986.53 248.906 1985.69C249.738 1985.03 250.711 1984.56 251.75 1984.33L252.64 1984.13C254.412 1983.74 256.255 1983.79 258 1984.29L258.063 1984.31C258.926 1984.56 259.755 1984.91 260.534 1985.35L261.807 1986.08C262.856 1986.68 263.857 1987.36 264.8 1988.11L266.255 1989.28L269.961 1992.98C270.136 1993.16 270.414 1992.93 270.277 1992.72L267.979 1988.13L265.106 1981.23L262.809 1973.77C261.666 1969.96 261.085 1966 261.085 1962.02V1958.83L261.555 1955.31C262.005 1951.93 263.011 1948.66 264.532 1945.62L265.549 1943.58C266.397 1941.89 267.513 1940.34 268.854 1939L269.971 1937.88C271.303 1936.55 272.944 1935.57 274.748 1935.03L274.961 1934.96C276.783 1934.42 278.719 1934.37 280.564 1934.83C281.739 1935.13 282.856 1935.62 283.864 1936.29L285.787 1937.57L286.448 1938.02C289.42 1940 291.937 1942.59 293.83 1945.62L298.31 1952.34C298.387 1952.45 298.449 1952.58 298.496 1952.71C299.117 1954.45 301.679 1954.08 301.787 1952.24L301.872 1950.79L303.021 1941.02L303.26 1940.01C304.628 1934.19 306.669 1928.56 309.34 1923.21L310.736 1920.42C311.714 1918.47 313.001 1916.68 314.547 1915.13L317.098 1912.58C318.036 1911.64 319.212 1910.98 320.5 1910.66L320.845 1910.57C322.318 1910.2 323.874 1910.37 325.232 1911.05C326.115 1911.49 326.883 1912.13 327.475 1912.92L328.617 1914.45C329.547 1915.69 330.271 1917.07 330.761 1918.54L331.498 1920.75C332.044 1922.39 332.442 1924.07 332.686 1925.78L332.962 1927.71C333.299 1930.07 333.468 1932.45 333.468 1934.84V1938.15L333.309 1940.21C333.203 1941.6 335.028 1942.2 335.766 1941.02L339.787 1934.13L343.035 1929.66C343.932 1928.43 344.925 1927.27 346.004 1926.19C347.977 1924.21 350.223 1922.53 352.672 1921.2L355.298 1919.77L357.611 1918.84C359.884 1917.93 362.288 1917.39 364.732 1917.25L367.135 1917.11C369.542 1916.97 371.943 1917.46 374.1 1918.54L374.334 1918.66C375.045 1919.01 375.718 1919.44 376.339 1919.94C377.615 1920.96 378.655 1922.25 379.386 1923.71L379.767 1924.47C380.303 1925.54 380.711 1926.68 380.98 1927.84L381.648 1930.74C382.081 1932.61 382.378 1934.52 382.538 1936.43L382.551 1936.58C382.765 1939.15 382.743 1941.74 382.487 1944.3L382.298 1946.19L381.735 1951.26C381.727 1951.33 381.714 1951.39 381.696 1951.46C381.366 1952.61 382.743 1953.49 383.646 1952.7L384.936 1951.57C385.091 1951.43 385.269 1951.32 385.462 1951.25L387.472 1950.5C388.989 1949.93 390.596 1949.64 392.216 1949.64H392.493C394.483 1949.64 396.45 1950.06 398.268 1950.86C399.863 1951.57 401.314 1952.57 402.548 1953.8L402.945 1954.2C403.731 1954.99 404.425 1955.86 405.014 1956.8C406.317 1958.89 407.076 1961.27 407.22 1963.72L407.554 1969.4C407.568 1969.63 407.531 1969.85 407.446 1970.07C406.998 1971.18 407.947 1972.36 409.136 1972.17L409.646 1972.08C409.796 1972.06 409.949 1972.05 410.101 1972.06L414.38 1972.42C415.951 1972.55 417.476 1973.02 418.845 1973.81C420.126 1974.54 421.244 1975.52 422.129 1976.7L422.37 1977.02C423.595 1978.66 424.409 1980.56 424.745 1982.58L425.092 1984.66C425.286 1985.82 425.383 1987 425.383 1988.18V1988.79C425.383 1992.52 424.6 1996.21 423.085 1999.62L422.618 2000.55C422.179 2001.43 423.058 2002.39 423.969 2002.02C424.143 2001.95 424.331 2001.93 424.517 2001.96L426.185 2002.19C427.538 2002.39 428.812 2002.95 429.862 2003.83L430.148 2004.07C431.17 2004.92 431.983 2005.99 432.524 2007.21L432.932 2008.13C433.621 2009.68 433.725 2011.42 433.227 2013.04C432.321 2015.99 429.599 2018 426.518 2018Z" fill="#2A102D"/>
<path d="M692.518 2018H534.01C531.731 2018 529.491 2017.41 527.512 2016.27C526.846 2015.89 526.214 2015.46 525.625 2014.96L523.064 2012.83L521.139 2011.39C519.366 2010.06 517.779 2008.5 516.418 2006.75C515.109 2005.06 514.022 2003.22 513.182 2001.26L512.723 2000.19L512.561 1999.87C511.543 1997.83 511.151 1995.54 511.433 1993.28C511.527 1992.53 511.695 1991.79 511.935 1991.07L512.647 1988.93C513.072 1987.66 513.856 1986.53 514.906 1985.69C515.738 1985.03 516.711 1984.56 517.75 1984.33L518.64 1984.13C520.412 1983.74 522.255 1983.79 524 1984.29L524.063 1984.31C524.926 1984.56 525.755 1984.91 526.534 1985.35L527.807 1986.08C528.856 1986.68 529.857 1987.36 530.8 1988.11L532.255 1989.28L535.961 1992.98C536.136 1993.16 536.414 1992.93 536.277 1992.72L533.979 1988.13L531.106 1981.23L528.809 1973.77C527.666 1969.96 527.085 1966 527.085 1962.02V1958.83L527.555 1955.31C528.005 1951.93 529.011 1948.66 530.532 1945.62L531.549 1943.58C532.397 1941.89 533.513 1940.34 534.854 1939L535.971 1937.88C537.303 1936.55 538.944 1935.57 540.748 1935.03L540.961 1934.96C542.783 1934.42 544.719 1934.37 546.564 1934.83C547.739 1935.13 548.856 1935.62 549.864 1936.29L551.787 1937.57L552.448 1938.02C555.42 1940 557.937 1942.59 559.83 1945.62L564.31 1952.34C564.387 1952.45 564.449 1952.58 564.496 1952.71C565.117 1954.45 567.679 1954.08 567.787 1952.24L567.872 1950.79L569.021 1941.02L569.26 1940.01C570.628 1934.19 572.669 1928.56 575.34 1923.21L576.736 1920.42C577.714 1918.47 579.001 1916.68 580.547 1915.13L583.098 1912.58C584.036 1911.64 585.212 1910.98 586.5 1910.66L586.845 1910.57C588.318 1910.2 589.874 1910.37 591.232 1911.05C592.115 1911.49 592.883 1912.13 593.475 1912.92L594.617 1914.45C595.547 1915.69 596.271 1917.07 596.761 1918.54L597.498 1920.75C598.044 1922.39 598.442 1924.07 598.686 1925.78L598.962 1927.71C599.299 1930.07 599.468 1932.45 599.468 1934.84V1938.15L599.309 1940.21C599.203 1941.6 601.028 1942.2 601.766 1941.02L605.787 1934.13L609.035 1929.66C609.932 1928.43 610.925 1927.27 612.004 1926.19C613.977 1924.21 616.223 1922.53 618.672 1921.2L621.298 1919.77L623.611 1918.84C625.884 1917.93 628.288 1917.39 630.732 1917.25L633.135 1917.11C635.542 1916.97 637.943 1917.46 640.1 1918.54L640.334 1918.66C641.045 1919.01 641.718 1919.44 642.339 1919.94C643.615 1920.96 644.655 1922.25 645.386 1923.71L645.767 1924.47C646.303 1925.54 646.711 1926.68 646.98 1927.84L647.648 1930.74C648.081 1932.61 648.378 1934.52 648.538 1936.43L648.551 1936.58C648.765 1939.15 648.743 1941.74 648.487 1944.3L648.298 1946.19L647.735 1951.26C647.727 1951.33 647.714 1951.39 647.696 1951.46C647.366 1952.61 648.743 1953.49 649.646 1952.7L650.936 1951.57C651.091 1951.43 651.269 1951.32 651.462 1951.25L653.472 1950.5C654.989 1949.93 656.596 1949.64 658.216 1949.64H658.493C660.483 1949.64 662.45 1950.06 664.268 1950.86C665.863 1951.57 667.314 1952.57 668.548 1953.8L668.945 1954.2C669.731 1954.99 670.425 1955.86 671.014 1956.8C672.317 1958.89 673.076 1961.27 673.22 1963.72L673.554 1969.4C673.568 1969.63 673.531 1969.85 673.446 1970.07C672.998 1971.18 673.947 1972.36 675.136 1972.17L675.646 1972.08C675.796 1972.06 675.949 1972.05 676.101 1972.06L680.38 1972.42C681.951 1972.55 683.476 1973.02 684.845 1973.81C686.126 1974.54 687.244 1975.52 688.129 1976.7L688.37 1977.02C689.595 1978.66 690.409 1980.56 690.745 1982.58L691.092 1984.66C691.286 1985.82 691.383 1987 691.383 1988.18V1988.79C691.383 1992.52 690.6 1996.21 689.085 1999.62L688.618 2000.55C688.179 2001.43 689.058 2002.39 689.969 2002.02C690.143 2001.95 690.331 2001.93 690.517 2001.96L692.185 2002.19C693.538 2002.39 694.812 2002.95 695.862 2003.83L696.148 2004.07C697.17 2004.92 697.983 2005.99 698.524 2007.21L698.932 2008.13C699.621 2009.68 699.725 2011.42 699.227 2013.04C698.321 2015.99 695.599 2018 692.518 2018Z" fill="#2A102D"/>
<path d="M567.518 2053H409.01C406.731 2053 404.491 2052.41 402.512 2051.27C401.846 2050.89 401.214 2050.46 400.625 2049.96L398.064 2047.83L396.139 2046.39C394.366 2045.06 392.779 2043.5 391.418 2041.75C390.109 2040.06 389.022 2038.22 388.182 2036.26L387.723 2035.19L387.561 2034.87C386.543 2032.83 386.151 2030.54 386.433 2028.28C386.527 2027.53 386.695 2026.79 386.935 2026.07L387.647 2023.93C388.072 2022.66 388.856 2021.53 389.906 2020.69C390.738 2020.03 391.711 2019.56 392.75 2019.33L393.64 2019.13C395.412 2018.74 397.255 2018.79 399 2019.29L399.063 2019.31C399.926 2019.56 400.755 2019.91 401.534 2020.35L402.807 2021.08C403.856 2021.68 404.857 2022.36 405.8 2023.11L407.255 2024.28L410.961 2027.98C411.136 2028.16 411.414 2027.93 411.277 2027.72L408.979 2023.13L406.106 2016.23L403.809 2008.77C402.666 2004.96 402.085 2001 402.085 1997.02V1993.83L402.555 1990.31C403.005 1986.93 404.011 1983.66 405.532 1980.62L406.549 1978.58C407.397 1976.89 408.513 1975.34 409.854 1974L410.971 1972.88C412.303 1971.55 413.944 1970.57 415.748 1970.03L415.961 1969.96C417.783 1969.42 419.719 1969.37 421.564 1969.83C422.739 1970.13 423.856 1970.62 424.864 1971.29L426.787 1972.57L427.448 1973.02C430.42 1975 432.937 1977.59 434.83 1980.62L439.31 1987.34C439.387 1987.45 439.449 1987.58 439.496 1987.71C440.117 1989.45 442.679 1989.08 442.787 1987.24L442.872 1985.79L444.021 1976.02L444.26 1975.01C445.628 1969.19 447.669 1963.56 450.34 1958.21L451.736 1955.42C452.714 1953.47 454.001 1951.68 455.547 1950.13L458.098 1947.58C459.036 1946.64 460.212 1945.98 461.5 1945.66L461.845 1945.57C463.318 1945.2 464.874 1945.37 466.232 1946.05C467.115 1946.49 467.883 1947.13 468.475 1947.92L469.617 1949.45C470.547 1950.69 471.271 1952.07 471.761 1953.54L472.498 1955.75C473.044 1957.39 473.442 1959.07 473.686 1960.78L473.962 1962.71C474.299 1965.07 474.468 1967.45 474.468 1969.84V1973.15L474.309 1975.21C474.203 1976.6 476.028 1977.2 476.766 1976.02L480.787 1969.13L484.035 1964.66C484.932 1963.43 485.925 1962.27 487.004 1961.19C488.977 1959.21 491.223 1957.53 493.672 1956.2L496.298 1954.77L498.611 1953.84C500.884 1952.93 503.288 1952.39 505.732 1952.25L508.135 1952.11C510.542 1951.97 512.943 1952.46 515.1 1953.54L515.334 1953.66C516.045 1954.01 516.718 1954.44 517.339 1954.94C518.615 1955.96 519.655 1957.25 520.386 1958.71L520.767 1959.47C521.303 1960.54 521.711 1961.68 521.98 1962.84L522.648 1965.74C523.081 1967.61 523.378 1969.52 523.538 1971.43L523.551 1971.58C523.765 1974.15 523.743 1976.74 523.487 1979.3L523.298 1981.19L522.735 1986.26C522.727 1986.33 522.714 1986.39 522.696 1986.46C522.366 1987.61 523.743 1988.49 524.646 1987.7L525.936 1986.57C526.091 1986.43 526.269 1986.32 526.462 1986.25L528.472 1985.5C529.989 1984.93 531.596 1984.64 533.216 1984.64H533.493C535.483 1984.64 537.45 1985.06 539.268 1985.86C540.863 1986.57 542.314 1987.57 543.548 1988.8L543.945 1989.2C544.731 1989.99 545.425 1990.86 546.014 1991.8C547.317 1993.89 548.076 1996.27 548.22 1998.72L548.554 2004.4C548.568 2004.63 548.531 2004.85 548.446 2005.07C547.998 2006.18 548.947 2007.36 550.136 2007.17L550.646 2007.08C550.796 2007.06 550.949 2007.05 551.101 2007.06L555.38 2007.42C556.951 2007.55 558.476 2008.02 559.845 2008.81C561.126 2009.54 562.244 2010.52 563.129 2011.7L563.37 2012.02C564.595 2013.66 565.409 2015.56 565.745 2017.58L566.092 2019.66C566.286 2020.82 566.383 2022 566.383 2023.18V2023.79C566.383 2027.52 565.6 2031.21 564.085 2034.62L563.618 2035.55C563.179 2036.43 564.058 2037.39 564.969 2037.02C565.143 2036.95 565.331 2036.93 565.517 2036.96L567.185 2037.19C568.538 2037.39 569.812 2037.95 570.862 2038.83L571.148 2039.07C572.17 2039.92 572.983 2040.99 573.524 2042.21L573.932 2043.13C574.621 2044.68 574.725 2046.42 574.227 2048.04C573.321 2050.99 570.599 2053 567.518 2053Z" fill="#2A102D"/>
<path d="M1544.52 2049H1386.01C1383.73 2049 1381.49 2048.41 1379.51 2047.27C1378.85 2046.89 1378.21 2046.46 1377.62 2045.96L1375.06 2043.83L1373.14 2042.39C1371.37 2041.06 1369.78 2039.5 1368.42 2037.75C1367.11 2036.06 1366.02 2034.22 1365.18 2032.26L1364.72 2031.19L1364.56 2030.87C1363.54 2028.83 1363.15 2026.54 1363.43 2024.28C1363.53 2023.53 1363.7 2022.79 1363.94 2022.07L1364.65 2019.93C1365.07 2018.66 1365.86 2017.53 1366.91 2016.69C1367.74 2016.03 1368.71 2015.56 1369.75 2015.33L1370.64 2015.13C1372.41 2014.74 1374.25 2014.79 1376 2015.29L1376.06 2015.31C1376.93 2015.56 1377.76 2015.91 1378.53 2016.35L1379.81 2017.08C1380.86 2017.68 1381.86 2018.36 1382.8 2019.11L1384.26 2020.28L1387.96 2023.98C1388.14 2024.16 1388.41 2023.93 1388.28 2023.72L1385.98 2019.13L1383.11 2012.23L1380.81 2004.77C1379.67 2000.96 1379.09 1997 1379.09 1993.02V1989.83L1379.55 1986.31C1380 1982.93 1381.01 1979.66 1382.53 1976.62L1383.55 1974.58C1384.4 1972.89 1385.51 1971.34 1386.85 1970L1387.97 1968.88C1389.3 1967.55 1390.94 1966.57 1392.75 1966.03L1392.96 1965.96C1394.78 1965.42 1396.72 1965.37 1398.56 1965.83C1399.74 1966.13 1400.86 1966.62 1401.86 1967.29L1403.79 1968.57L1404.45 1969.02C1407.42 1971 1409.94 1973.59 1411.83 1976.62L1416.31 1983.34C1416.39 1983.45 1416.45 1983.58 1416.5 1983.71C1417.12 1985.45 1419.68 1985.08 1419.79 1983.24L1419.87 1981.79L1421.02 1972.02L1421.26 1971.01C1422.63 1965.19 1424.67 1959.56 1427.34 1954.21L1428.74 1951.42C1429.71 1949.47 1431 1947.68 1432.55 1946.13L1435.1 1943.58C1436.04 1942.64 1437.21 1941.98 1438.5 1941.66L1438.85 1941.57C1440.32 1941.2 1441.87 1941.37 1443.23 1942.05C1444.11 1942.49 1444.88 1943.13 1445.48 1943.92L1446.62 1945.45C1447.55 1946.69 1448.27 1948.07 1448.76 1949.54L1449.5 1951.75C1450.04 1953.39 1450.44 1955.07 1450.69 1956.78L1450.96 1958.71C1451.3 1961.07 1451.47 1963.45 1451.47 1965.84V1969.15L1451.31 1971.21C1451.2 1972.6 1453.03 1973.2 1453.77 1972.02L1457.79 1965.13L1461.03 1960.66C1461.93 1959.43 1462.92 1958.27 1464 1957.19C1465.98 1955.21 1468.22 1953.53 1470.67 1952.2L1473.3 1950.77L1475.61 1949.84C1477.88 1948.93 1480.29 1948.39 1482.73 1948.25L1485.14 1948.11C1487.54 1947.97 1489.94 1948.46 1492.1 1949.54L1492.33 1949.66C1493.05 1950.01 1493.72 1950.44 1494.34 1950.94C1495.62 1951.96 1496.66 1953.25 1497.39 1954.71L1497.77 1955.47C1498.3 1956.54 1498.71 1957.68 1498.98 1958.84L1499.65 1961.74C1500.08 1963.61 1500.38 1965.52 1500.54 1967.43L1500.55 1967.58C1500.76 1970.15 1500.74 1972.74 1500.49 1975.3L1500.3 1977.19L1499.73 1982.26C1499.73 1982.33 1499.71 1982.39 1499.7 1982.46C1499.37 1983.61 1500.74 1984.49 1501.65 1983.7L1502.94 1982.57C1503.09 1982.43 1503.27 1982.32 1503.46 1982.25L1505.47 1981.5C1506.99 1980.93 1508.6 1980.64 1510.22 1980.64H1510.49C1512.48 1980.64 1514.45 1981.06 1516.27 1981.86C1517.86 1982.57 1519.31 1983.57 1520.55 1984.8L1520.95 1985.2C1521.73 1985.99 1522.42 1986.86 1523.01 1987.8C1524.32 1989.89 1525.08 1992.27 1525.22 1994.72L1525.55 2000.4C1525.57 2000.63 1525.53 2000.85 1525.45 2001.07C1525 2002.18 1525.95 2003.36 1527.14 2003.17L1527.65 2003.08C1527.8 2003.06 1527.95 2003.05 1528.1 2003.06L1532.38 2003.42C1533.95 2003.55 1535.48 2004.02 1536.84 2004.81C1538.13 2005.54 1539.24 2006.52 1540.13 2007.7L1540.37 2008.02C1541.59 2009.66 1542.41 2011.56 1542.74 2013.58L1543.09 2015.66C1543.29 2016.82 1543.38 2018 1543.38 2019.18V2019.79C1543.38 2023.52 1542.6 2027.21 1541.09 2030.62L1540.62 2031.55C1540.18 2032.43 1541.06 2033.39 1541.97 2033.02C1542.14 2032.95 1542.33 2032.93 1542.52 2032.96L1544.18 2033.19C1545.54 2033.39 1546.81 2033.95 1547.86 2034.83L1548.15 2035.07C1549.17 2035.92 1549.98 2036.99 1550.52 2038.21L1550.93 2039.13C1551.62 2040.68 1551.73 2042.42 1551.23 2044.04C1550.32 2046.99 1547.6 2049 1544.52 2049Z" fill="#2A102D"/>
<path d="M1682.52 2004H1524.01C1521.73 2004 1519.49 2003.41 1517.51 2002.27C1516.85 2001.89 1516.21 2001.46 1515.62 2000.96L1513.06 1998.83L1511.14 1997.39C1509.37 1996.06 1507.78 1994.5 1506.42 1992.75C1505.11 1991.06 1504.02 1989.22 1503.18 1987.26L1502.72 1986.19L1502.56 1985.87C1501.54 1983.83 1501.15 1981.54 1501.43 1979.28C1501.53 1978.53 1501.7 1977.79 1501.94 1977.07L1502.65 1974.93C1503.07 1973.66 1503.86 1972.53 1504.91 1971.69C1505.74 1971.03 1506.71 1970.56 1507.75 1970.33L1508.64 1970.13C1510.41 1969.74 1512.25 1969.79 1514 1970.29L1514.06 1970.31C1514.93 1970.56 1515.76 1970.91 1516.53 1971.35L1517.81 1972.08C1518.86 1972.68 1519.86 1973.36 1520.8 1974.11L1522.26 1975.28L1525.96 1978.98C1526.14 1979.16 1526.41 1978.93 1526.28 1978.72L1523.98 1974.13L1521.11 1967.23L1518.81 1959.77C1517.67 1955.96 1517.09 1952 1517.09 1948.02V1944.83L1517.55 1941.31C1518 1937.93 1519.01 1934.66 1520.53 1931.62L1521.55 1929.58C1522.4 1927.89 1523.51 1926.34 1524.85 1925L1525.97 1923.88C1527.3 1922.55 1528.94 1921.57 1530.75 1921.03L1530.96 1920.96C1532.78 1920.42 1534.72 1920.37 1536.56 1920.83C1537.74 1921.13 1538.86 1921.62 1539.86 1922.29L1541.79 1923.57L1542.45 1924.02C1545.42 1926 1547.94 1928.59 1549.83 1931.62L1554.31 1938.34C1554.39 1938.45 1554.45 1938.58 1554.5 1938.71C1555.12 1940.45 1557.68 1940.08 1557.79 1938.24L1557.87 1936.79L1559.02 1927.02L1559.26 1926.01C1560.63 1920.19 1562.67 1914.56 1565.34 1909.21L1566.74 1906.42C1567.71 1904.47 1569 1902.68 1570.55 1901.13L1573.1 1898.58C1574.04 1897.64 1575.21 1896.98 1576.5 1896.66L1576.85 1896.57C1578.32 1896.2 1579.87 1896.37 1581.23 1897.05C1582.11 1897.49 1582.88 1898.13 1583.48 1898.92L1584.62 1900.45C1585.55 1901.69 1586.27 1903.07 1586.76 1904.54L1587.5 1906.75C1588.04 1908.39 1588.44 1910.07 1588.69 1911.78L1588.96 1913.71C1589.3 1916.07 1589.47 1918.45 1589.47 1920.84V1924.15L1589.31 1926.21C1589.2 1927.6 1591.03 1928.2 1591.77 1927.02L1595.79 1920.13L1599.03 1915.66C1599.93 1914.43 1600.92 1913.27 1602 1912.19C1603.98 1910.21 1606.22 1908.53 1608.67 1907.2L1611.3 1905.77L1613.61 1904.84C1615.88 1903.93 1618.29 1903.39 1620.73 1903.25L1623.14 1903.11C1625.54 1902.97 1627.94 1903.46 1630.1 1904.54L1630.33 1904.66C1631.05 1905.01 1631.72 1905.44 1632.34 1905.94C1633.62 1906.96 1634.66 1908.25 1635.39 1909.71L1635.77 1910.47C1636.3 1911.54 1636.71 1912.68 1636.98 1913.84L1637.65 1916.74C1638.08 1918.61 1638.38 1920.52 1638.54 1922.43L1638.55 1922.58C1638.76 1925.15 1638.74 1927.74 1638.49 1930.3L1638.3 1932.19L1637.73 1937.26C1637.73 1937.33 1637.71 1937.39 1637.7 1937.46C1637.37 1938.61 1638.74 1939.49 1639.65 1938.7L1640.94 1937.57C1641.09 1937.43 1641.27 1937.32 1641.46 1937.25L1643.47 1936.5C1644.99 1935.93 1646.6 1935.64 1648.22 1935.64H1648.49C1650.48 1935.64 1652.45 1936.06 1654.27 1936.86C1655.86 1937.57 1657.31 1938.57 1658.55 1939.8L1658.95 1940.2C1659.73 1940.99 1660.42 1941.86 1661.01 1942.8C1662.32 1944.89 1663.08 1947.27 1663.22 1949.72L1663.55 1955.4C1663.57 1955.63 1663.53 1955.85 1663.45 1956.07C1663 1957.18 1663.95 1958.36 1665.14 1958.17L1665.65 1958.08C1665.8 1958.06 1665.95 1958.05 1666.1 1958.06L1670.38 1958.42C1671.95 1958.55 1673.48 1959.02 1674.84 1959.81C1676.13 1960.54 1677.24 1961.52 1678.13 1962.7L1678.37 1963.02C1679.59 1964.66 1680.41 1966.56 1680.74 1968.58L1681.09 1970.66C1681.29 1971.82 1681.38 1973 1681.38 1974.18V1974.79C1681.38 1978.52 1680.6 1982.21 1679.09 1985.62L1678.62 1986.55C1678.18 1987.43 1679.06 1988.39 1679.97 1988.02C1680.14 1987.95 1680.33 1987.93 1680.52 1987.96L1682.18 1988.19C1683.54 1988.39 1684.81 1988.95 1685.86 1989.83L1686.15 1990.07C1687.17 1990.92 1687.98 1991.99 1688.52 1993.21L1688.93 1994.13C1689.62 1995.68 1689.73 1997.42 1689.23 1999.04C1688.32 2001.99 1685.6 2004 1682.52 2004Z" fill="#2A102D"/>
<path d="M1851.52 2004H1693.01C1690.73 2004 1688.49 2003.41 1686.51 2002.27C1685.85 2001.89 1685.21 2001.46 1684.62 2000.96L1682.06 1998.83L1680.14 1997.39C1678.37 1996.06 1676.78 1994.5 1675.42 1992.75C1674.11 1991.06 1673.02 1989.22 1672.18 1987.26L1671.72 1986.19L1671.56 1985.87C1670.54 1983.83 1670.15 1981.54 1670.43 1979.28C1670.53 1978.53 1670.7 1977.79 1670.94 1977.07L1671.65 1974.93C1672.07 1973.66 1672.86 1972.53 1673.91 1971.69C1674.74 1971.03 1675.71 1970.56 1676.75 1970.33L1677.64 1970.13C1679.41 1969.74 1681.25 1969.79 1683 1970.29L1683.06 1970.31C1683.93 1970.56 1684.76 1970.91 1685.53 1971.35L1686.81 1972.08C1687.86 1972.68 1688.86 1973.36 1689.8 1974.11L1691.26 1975.28L1694.96 1978.98C1695.14 1979.16 1695.41 1978.93 1695.28 1978.72L1692.98 1974.13L1690.11 1967.23L1687.81 1959.77C1686.67 1955.96 1686.09 1952 1686.09 1948.02V1944.83L1686.55 1941.31C1687 1937.93 1688.01 1934.66 1689.53 1931.62L1690.55 1929.58C1691.4 1927.89 1692.51 1926.34 1693.85 1925L1694.97 1923.88C1696.3 1922.55 1697.94 1921.57 1699.75 1921.03L1699.96 1920.96C1701.78 1920.42 1703.72 1920.37 1705.56 1920.83C1706.74 1921.13 1707.86 1921.62 1708.86 1922.29L1710.79 1923.57L1711.45 1924.02C1714.42 1926 1716.94 1928.59 1718.83 1931.62L1723.31 1938.34C1723.39 1938.45 1723.45 1938.58 1723.5 1938.71C1724.12 1940.45 1726.68 1940.08 1726.79 1938.24L1726.87 1936.79L1728.02 1927.02L1728.26 1926.01C1729.63 1920.19 1731.67 1914.56 1734.34 1909.21L1735.74 1906.42C1736.71 1904.47 1738 1902.68 1739.55 1901.13L1742.1 1898.58C1743.04 1897.64 1744.21 1896.98 1745.5 1896.66L1745.85 1896.57C1747.32 1896.2 1748.87 1896.37 1750.23 1897.05C1751.11 1897.49 1751.88 1898.13 1752.48 1898.92L1753.62 1900.45C1754.55 1901.69 1755.27 1903.07 1755.76 1904.54L1756.5 1906.75C1757.04 1908.39 1757.44 1910.07 1757.69 1911.78L1757.96 1913.71C1758.3 1916.07 1758.47 1918.45 1758.47 1920.84V1924.15L1758.31 1926.21C1758.2 1927.6 1760.03 1928.2 1760.77 1927.02L1764.79 1920.13L1768.03 1915.66C1768.93 1914.43 1769.92 1913.27 1771 1912.19C1772.98 1910.21 1775.22 1908.53 1777.67 1907.2L1780.3 1905.77L1782.61 1904.84C1784.88 1903.93 1787.29 1903.39 1789.73 1903.25L1792.14 1903.11C1794.54 1902.97 1796.94 1903.46 1799.1 1904.54L1799.33 1904.66C1800.05 1905.01 1800.72 1905.44 1801.34 1905.94C1802.62 1906.96 1803.66 1908.25 1804.39 1909.71L1804.77 1910.47C1805.3 1911.54 1805.71 1912.68 1805.98 1913.84L1806.65 1916.74C1807.08 1918.61 1807.38 1920.52 1807.54 1922.43L1807.55 1922.58C1807.76 1925.15 1807.74 1927.74 1807.49 1930.3L1807.3 1932.19L1806.73 1937.26C1806.73 1937.33 1806.71 1937.39 1806.7 1937.46C1806.37 1938.61 1807.74 1939.49 1808.65 1938.7L1809.94 1937.57C1810.09 1937.43 1810.27 1937.32 1810.46 1937.25L1812.47 1936.5C1813.99 1935.93 1815.6 1935.64 1817.22 1935.64H1817.49C1819.48 1935.64 1821.45 1936.06 1823.27 1936.86C1824.86 1937.57 1826.31 1938.57 1827.55 1939.8L1827.95 1940.2C1828.73 1940.99 1829.42 1941.86 1830.01 1942.8C1831.32 1944.89 1832.08 1947.27 1832.22 1949.72L1832.55 1955.4C1832.57 1955.63 1832.53 1955.85 1832.45 1956.07C1832 1957.18 1832.95 1958.36 1834.14 1958.17L1834.65 1958.08C1834.8 1958.06 1834.95 1958.05 1835.1 1958.06L1839.38 1958.42C1840.95 1958.55 1842.48 1959.02 1843.84 1959.81C1845.13 1960.54 1846.24 1961.52 1847.13 1962.7L1847.37 1963.02C1848.59 1964.66 1849.41 1966.56 1849.74 1968.58L1850.09 1970.66C1850.29 1971.82 1850.38 1973 1850.38 1974.18V1974.79C1850.38 1978.52 1849.6 1982.21 1848.09 1985.62L1847.62 1986.55C1847.18 1987.43 1848.06 1988.39 1848.97 1988.02C1849.14 1987.95 1849.33 1987.93 1849.52 1987.96L1851.18 1988.19C1852.54 1988.39 1853.81 1988.95 1854.86 1989.83L1855.15 1990.07C1856.17 1990.92 1856.98 1991.99 1857.52 1993.21L1857.93 1994.13C1858.62 1995.68 1858.73 1997.42 1858.23 1999.04C1857.32 2001.99 1854.6 2004 1851.52 2004Z" fill="#2A102D"/>
<path d="M1920 2049H1786.53L1782.51 2046.7L1779.06 2043.83L1774.47 2040.38L1770.45 2035.21L1768.72 2031.19L1767 2027.74L1767.57 2023.15L1769.3 2017.98L1772.17 2015.68L1777.34 2014.53L1781.36 2015.68L1785.38 2017.98L1788.26 2020.28L1793.43 2025.45L1792.28 2023.72L1789.98 2019.13L1787.11 2012.23L1784.81 2004.77L1783.09 1999.02V1989.83L1784.23 1981.21L1786.53 1976.62L1788.83 1972.02L1794 1966.85L1799.74 1965.13L1804.34 1966.28L1807.79 1968.57L1812.96 1972.02L1815.83 1976.62L1820.43 1983.51L1823.3 1991.55L1823.87 1981.79L1825.02 1972.02L1827.32 1962.26L1831.34 1954.21L1834.21 1948.47L1840.53 1942.15L1845.13 1941L1848.57 1942.72L1852.02 1947.32L1854.32 1954.21L1855.47 1962.26V1969.15L1854.89 1976.62L1857.77 1972.02L1861.79 1965.13L1866.38 1958.81L1870.98 1954.21L1877.3 1950.77L1883.04 1948.47L1892.81 1947.89L1897.4 1950.19L1900.28 1952.49L1902.57 1957.09L1904.3 1964.55L1904.87 1971.45L1904.3 1977.19L1903.72 1982.36L1902.57 1986.38L1907.17 1982.36L1911.77 1980.64H1917.51L1920 1982.36V1987V2049Z" fill="#2A102D"/>
<path d="M679.515 2080H835.582C838.107 2080 840.565 2079.19 842.598 2077.7C843.191 2077.26 843.742 2076.77 844.244 2076.23L846.936 2073.35L848.516 2071.82C850.518 2069.89 852.261 2067.7 853.7 2065.32C854.932 2063.28 855.933 2061.12 856.685 2058.86L857.277 2057.08L857.382 2056.81C858.446 2054.07 858.852 2051.12 858.568 2048.2C858.473 2047.22 858.302 2046.25 858.056 2045.3L857.217 2042.06C856.88 2040.76 856.209 2039.57 855.272 2038.6C854.327 2037.63 853.144 2036.92 851.84 2036.55L851.504 2036.45C849.656 2035.92 847.669 2036 845.864 2036.67C845.056 2036.96 844.286 2037.38 843.593 2037.89L842.103 2038.98C841.114 2039.71 840.187 2040.52 839.332 2041.4L837.745 2043.03L834.107 2047.71C833.936 2047.93 833.595 2047.72 833.723 2047.47L836.021 2041.55L838.894 2032.68L841.191 2023.07C842.337 2018.16 842.915 2013.13 842.915 2008.08V2003.85L842.42 1999.07C841.986 1994.88 840.993 1990.77 839.468 1986.84L838.222 1983.63C837.524 1981.84 836.57 1980.15 835.389 1978.63L833.662 1976.41C832.575 1975.01 831.126 1973.93 829.473 1973.3L829.124 1973.16C827.268 1972.44 825.222 1972.39 823.328 1973C822.227 1973.35 821.207 1973.92 820.329 1974.67L818.213 1976.49L818.033 1976.64C814.741 1979.47 812.065 1982.94 810.17 1986.84L805.655 1995.56C805.601 1995.66 805.559 1995.77 805.528 1995.88C805.015 1997.73 802.307 1997.42 802.22 1995.51L802.128 1993.49L800.979 1980.93L800.678 1979.28C799.35 1972.01 797.334 1964.89 794.66 1958.01L792.985 1953.69C792.191 1951.65 791.104 1949.73 789.758 1948L786.638 1943.99C785.876 1943 784.835 1942.28 783.652 1941.89L783.46 1941.83C781.822 1941.31 780.034 1941.54 778.587 1942.47C777.823 1942.96 777.187 1943.63 776.73 1944.41L775.236 1946.97C774.402 1948.41 773.768 1949.95 773.352 1951.55L772.466 1954.98C771.943 1956.99 771.565 1959.05 771.336 1961.12L770.532 1968.36V1977.23L770.714 1980.28C770.799 1981.7 768.859 1982.21 768.234 1980.93L764.213 1972.05L760.825 1966.06C760.021 1964.63 759.114 1963.27 758.111 1961.98C756.063 1959.35 753.632 1957.03 750.9 1955.11L748.702 1953.57L746.236 1952.3C744.072 1951.19 741.707 1950.52 739.28 1950.33L737.254 1950.18C734.618 1949.98 731.989 1950.65 729.766 1952.08C728.988 1952.58 728.27 1953.16 727.626 1953.83L727.559 1953.9C726.348 1955.14 725.399 1956.62 724.769 1958.24L724.168 1959.79C723.674 1961.06 723.304 1962.38 723.064 1963.72L721.702 1971.31L721.607 1972.79C721.288 1977.71 721.32 1982.66 721.702 1987.58L722.277 1994.23C722.584 1995.62 720.847 1996.51 719.905 1995.45L719.057 1994.49C718.907 1994.32 718.725 1994.18 718.522 1994.09L716.627 1993.17C715.052 1992.41 713.326 1992.02 711.577 1992.02C709.554 1992.02 707.565 1992.54 705.809 1993.55L705.525 1993.71C704.069 1994.54 702.789 1995.66 701.76 1996.98L701.064 1997.88C700.272 1998.9 699.588 2000 699.024 2001.16L698.905 2001.4C697.648 2003.99 696.932 2006.81 696.801 2009.68L696.442 2017.53C696.431 2017.77 696.462 2018.01 696.532 2018.24L696.618 2018.51C697.046 2019.89 695.833 2021.22 694.423 2020.91C694.227 2020.87 694.026 2020.86 693.827 2020.88L690.041 2021.29C688.202 2021.49 686.449 2022.17 684.96 2023.26C683.807 2024.11 682.841 2025.19 682.121 2026.42L681.467 2027.54C680.344 2029.47 679.618 2031.6 679.332 2033.81L678.617 2039.34V2042.65C678.617 2047.31 679.394 2051.94 680.915 2056.34L681.602 2058.11C681.964 2059.04 680.982 2059.92 680.095 2059.47C679.882 2059.36 679.638 2059.32 679.402 2059.36L677.724 2059.67C676.439 2059.91 675.263 2060.55 674.372 2061.51L673.645 2062.29C672.757 2063.24 672.078 2064.37 671.653 2065.6L670.87 2067.87C670.302 2069.51 670.215 2071.29 670.62 2072.98C671.604 2077.1 675.283 2080 679.515 2080Z" fill="#2A102D"/>
<path d="M854.515 2068H1010.58C1013.11 2068 1015.56 2067.19 1017.6 2065.7C1018.19 2065.26 1018.74 2064.77 1019.24 2064.23L1021.94 2061.35L1023.52 2059.82C1025.52 2057.89 1027.26 2055.7 1028.7 2053.32C1029.93 2051.28 1030.93 2049.12 1031.69 2046.86L1032.28 2045.08L1032.38 2044.81C1033.45 2042.07 1033.85 2039.12 1033.57 2036.2C1033.47 2035.22 1033.3 2034.25 1033.06 2033.3L1032.22 2030.06C1031.88 2028.76 1031.21 2027.57 1030.27 2026.6C1029.33 2025.63 1028.14 2024.92 1026.84 2024.55L1026.5 2024.45C1024.66 2023.92 1022.67 2024 1020.86 2024.67C1020.06 2024.96 1019.29 2025.38 1018.59 2025.89L1017.1 2026.98C1016.11 2027.71 1015.19 2028.52 1014.33 2029.4L1012.74 2031.03L1009.11 2035.71C1008.94 2035.93 1008.6 2035.72 1008.72 2035.47L1011.02 2029.55L1013.89 2020.68L1016.19 2011.07C1017.34 2006.16 1017.91 2001.13 1017.91 1996.08V1991.85L1017.42 1987.07C1016.99 1982.88 1015.99 1978.77 1014.47 1974.84L1013.22 1971.63C1012.52 1969.84 1011.57 1968.15 1010.39 1966.63L1008.66 1964.41C1007.57 1963.01 1006.13 1961.93 1004.47 1961.3L1004.12 1961.16C1002.27 1960.44 1000.22 1960.39 998.328 1961C997.227 1961.35 996.207 1961.92 995.329 1962.67L993.213 1964.49L993.033 1964.64C989.741 1967.47 987.065 1970.94 985.17 1974.84L980.655 1983.56C980.601 1983.66 980.559 1983.77 980.528 1983.88C980.015 1985.73 977.307 1985.42 977.22 1983.51L977.128 1981.49L975.979 1968.93L975.678 1967.28C974.35 1960.01 972.334 1952.89 969.66 1946.01L967.985 1941.69C967.191 1939.65 966.104 1937.73 964.758 1936L961.638 1931.99C960.876 1931 959.835 1930.28 958.652 1929.89L958.46 1929.83C956.822 1929.31 955.034 1929.54 953.587 1930.47C952.823 1930.96 952.187 1931.63 951.73 1932.41L950.236 1934.97C949.402 1936.41 948.768 1937.95 948.352 1939.55L947.466 1942.98C946.943 1944.99 946.565 1947.05 946.336 1949.12L945.532 1956.36V1965.23L945.714 1968.28C945.799 1969.7 943.859 1970.21 943.234 1968.93L939.213 1960.05L935.825 1954.06C935.021 1952.63 934.114 1951.27 933.111 1949.98C931.063 1947.35 928.632 1945.03 925.9 1943.11L923.702 1941.57L921.236 1940.3C919.072 1939.19 916.707 1938.52 914.28 1938.33L912.254 1938.18C909.618 1937.98 906.989 1938.65 904.766 1940.08C903.988 1940.58 903.27 1941.16 902.626 1941.83L902.559 1941.9C901.348 1943.14 900.399 1944.62 899.769 1946.24L899.168 1947.79C898.674 1949.06 898.304 1950.38 898.064 1951.72L896.702 1959.31L896.607 1960.79C896.288 1965.71 896.32 1970.66 896.702 1975.58L897.277 1982.23C897.584 1983.62 895.847 1984.51 894.905 1983.45L894.057 1982.49C893.907 1982.32 893.725 1982.18 893.522 1982.09L891.627 1981.17C890.052 1980.41 888.326 1980.02 886.577 1980.02C884.554 1980.02 882.565 1980.54 880.809 1981.55L880.525 1981.71C879.069 1982.54 877.789 1983.66 876.76 1984.98L876.064 1985.88C875.272 1986.9 874.588 1988 874.024 1989.16L873.905 1989.4C872.648 1991.99 871.932 1994.81 871.801 1997.68L871.442 2005.53C871.431 2005.77 871.462 2006.01 871.532 2006.24L871.618 2006.51C872.046 2007.89 870.833 2009.22 869.423 2008.91C869.227 2008.87 869.026 2008.86 868.827 2008.88L865.041 2009.29C863.202 2009.49 861.449 2010.17 859.96 2011.26C858.807 2012.11 857.841 2013.19 857.121 2014.42L856.467 2015.54C855.344 2017.47 854.618 2019.6 854.332 2021.81L853.617 2027.34V2030.65C853.617 2035.31 854.394 2039.94 855.915 2044.34L856.602 2046.11C856.964 2047.04 855.982 2047.92 855.095 2047.47C854.882 2047.36 854.638 2047.32 854.402 2047.36L852.724 2047.67C851.439 2047.91 850.263 2048.55 849.372 2049.51L848.645 2050.29C847.757 2051.24 847.078 2052.37 846.653 2053.6L845.87 2055.87C845.302 2057.51 845.215 2059.29 845.62 2060.98C846.604 2065.1 850.283 2068 854.515 2068Z" fill="#2A102D"/>
<path d="M1009.43 2063H1196.87C1199.91 2063 1202.86 2062.03 1205.3 2060.23C1206.01 2059.71 1206.67 2059.12 1207.28 2058.48L1210.51 2055.01L1212.41 2053.17C1214.81 2050.85 1216.91 2048.23 1218.63 2045.37C1220.11 2042.92 1221.32 2040.31 1222.22 2037.6L1222.93 2035.46L1223.06 2035.14C1224.33 2031.85 1224.82 2028.3 1224.48 2024.79C1224.37 2023.62 1224.16 2022.45 1223.87 2021.31L1222.86 2017.42C1222.45 2015.85 1221.65 2014.42 1220.52 2013.26C1219.39 2012.09 1217.97 2011.24 1216.4 2010.79L1216 2010.68C1213.78 2010.04 1211.39 2010.14 1209.22 2010.94C1208.25 2011.29 1207.33 2011.79 1206.5 2012.4L1204.71 2013.72C1203.52 2014.59 1202.4 2015.56 1201.38 2016.62L1199.47 2018.59L1195.1 2024.21C1194.9 2024.47 1194.49 2024.21 1194.64 2023.91L1197.4 2016.81L1200.85 2006.15L1203.61 1994.6C1204.99 1988.7 1205.68 1982.66 1205.68 1976.6V1971.51L1205.09 1965.76C1204.57 1960.73 1203.37 1955.79 1201.54 1951.07L1200.04 1947.22C1199.21 1945.06 1198.06 1943.04 1196.64 1941.21L1194.57 1938.54C1193.26 1936.86 1191.52 1935.57 1189.54 1934.8L1189.12 1934.64C1186.89 1933.78 1184.43 1933.71 1182.16 1934.44C1180.83 1934.87 1179.61 1935.55 1178.55 1936.46L1176.01 1938.64L1175.8 1938.82C1171.84 1942.22 1168.63 1946.39 1166.35 1951.07L1160.93 1961.55C1160.87 1961.67 1160.81 1961.8 1160.78 1961.94C1160.16 1964.16 1156.91 1963.79 1156.8 1961.49L1156.69 1959.07L1155.31 1943.97L1154.95 1941.99C1153.36 1933.26 1150.94 1924.7 1147.72 1916.43L1145.71 1911.25C1144.76 1908.8 1143.45 1906.49 1141.84 1904.41L1138.09 1899.59C1137.17 1898.41 1135.92 1897.53 1134.5 1897.07L1134.27 1897C1132.3 1896.37 1130.16 1896.65 1128.42 1897.77C1127.5 1898.36 1126.74 1899.16 1126.19 1900.1L1124.39 1903.18C1123.39 1904.9 1122.63 1906.75 1122.13 1908.68L1121.07 1912.79C1120.44 1915.21 1119.99 1917.68 1119.71 1920.17L1118.74 1928.87V1939.53L1118.96 1943.19C1119.07 1944.9 1116.74 1945.51 1115.98 1943.97L1111.16 1933.31L1107.09 1926.1C1106.12 1924.4 1105.03 1922.76 1103.83 1921.21C1101.37 1918.04 1098.45 1915.26 1095.16 1912.95L1092.53 1911.1L1089.56 1909.58C1086.97 1908.24 1084.12 1907.43 1081.21 1907.21L1078.78 1907.03C1075.61 1906.79 1072.45 1907.59 1069.78 1909.31C1068.85 1909.91 1067.99 1910.62 1067.21 1911.41L1067.13 1911.5C1065.68 1912.99 1064.54 1914.77 1063.78 1916.72L1063.06 1918.58C1062.47 1920.1 1062.02 1921.68 1061.73 1923.3L1060.1 1932.42L1059.98 1934.19C1059.6 1940.11 1059.64 1946.05 1060.1 1951.96L1060.79 1959.96C1061.16 1961.62 1059.07 1962.69 1057.94 1961.41L1056.92 1960.26C1056.74 1960.06 1056.52 1959.9 1056.28 1959.78L1054 1958.68C1052.11 1957.77 1050.04 1957.29 1047.94 1957.29C1045.51 1957.29 1043.12 1957.93 1041.01 1959.13L1040.67 1959.33C1038.92 1960.33 1037.38 1961.66 1036.15 1963.26L1035.31 1964.33C1034.36 1965.56 1033.54 1966.88 1032.86 1968.28L1032.72 1968.57C1031.21 1971.68 1030.35 1975.06 1030.19 1978.52L1029.76 1987.95C1029.75 1988.24 1029.78 1988.52 1029.87 1988.8L1029.97 1989.13C1030.48 1990.78 1029.03 1992.38 1027.33 1992.01C1027.1 1991.96 1026.86 1991.95 1026.62 1991.97L1022.07 1992.46C1019.86 1992.7 1017.76 1993.52 1015.97 1994.83C1014.58 1995.85 1013.42 1997.14 1012.56 1998.63L1011.77 1999.98C1010.42 2002.29 1009.55 2004.85 1009.21 2007.51L1008.35 2014.14V2018.12C1008.35 2023.72 1009.28 2029.28 1011.11 2034.57L1011.94 2036.7C1012.37 2037.82 1011.19 2038.88 1010.12 2038.33C1009.87 2038.2 1009.58 2038.16 1009.29 2038.21L1007.28 2038.58C1005.73 2038.86 1004.32 2039.64 1003.25 2040.78L1002.38 2041.72C1001.31 2042.87 1000.5 2044.22 999.986 2045.7L999.045 2048.43C998.362 2050.4 998.258 2052.53 998.744 2054.57C999.926 2059.51 1004.35 2063 1009.43 2063Z" fill="#2A102D"/>
<path d="M1200.43 2051H1387.87C1390.91 2051 1393.86 2050.03 1396.3 2048.23C1397.01 2047.71 1397.67 2047.12 1398.28 2046.48L1401.51 2043.01L1403.41 2041.17C1405.81 2038.85 1407.91 2036.23 1409.63 2033.37C1411.11 2030.92 1412.32 2028.31 1413.22 2025.6L1413.93 2023.46L1414.06 2023.14C1415.33 2019.85 1415.82 2016.3 1415.48 2012.79C1415.37 2011.62 1415.16 2010.45 1414.87 2009.31L1413.86 2005.42C1413.45 2003.85 1412.65 2002.42 1411.52 2001.26C1410.39 2000.09 1408.97 1999.24 1407.4 1998.79L1407 1998.68C1404.78 1998.04 1402.39 1998.14 1400.22 1998.94C1399.25 1999.29 1398.33 1999.79 1397.5 2000.4L1395.71 2001.72C1394.52 2002.59 1393.4 2003.56 1392.38 2004.62L1390.47 2006.59L1386.1 2012.21C1385.9 2012.47 1385.49 2012.21 1385.64 2011.91L1388.4 2004.81L1391.85 1994.15L1394.61 1982.6C1395.99 1976.7 1396.68 1970.66 1396.68 1964.6V1959.51L1396.09 1953.76C1395.57 1948.73 1394.37 1943.79 1392.54 1939.07L1391.04 1935.22C1390.21 1933.06 1389.06 1931.04 1387.64 1929.21L1385.57 1926.54C1384.26 1924.86 1382.52 1923.57 1380.54 1922.8L1380.12 1922.64C1377.89 1921.78 1375.43 1921.71 1373.16 1922.44C1371.83 1922.87 1370.61 1923.55 1369.55 1924.46L1367.01 1926.64L1366.8 1926.82C1362.84 1930.22 1359.63 1934.39 1357.35 1939.07L1351.93 1949.55C1351.87 1949.67 1351.81 1949.8 1351.78 1949.94C1351.16 1952.16 1347.91 1951.79 1347.8 1949.49L1347.69 1947.07L1346.31 1931.97L1345.95 1929.99C1344.36 1921.26 1341.94 1912.7 1338.72 1904.43L1336.71 1899.25C1335.76 1896.8 1334.45 1894.49 1332.84 1892.41L1329.09 1887.59C1328.17 1886.41 1326.92 1885.53 1325.5 1885.07L1325.27 1885C1323.3 1884.37 1321.16 1884.65 1319.42 1885.77C1318.5 1886.36 1317.74 1887.16 1317.19 1888.1L1315.39 1891.18C1314.39 1892.9 1313.63 1894.75 1313.13 1896.68L1312.07 1900.79C1311.44 1903.21 1310.99 1905.68 1310.71 1908.17L1309.74 1916.87V1927.53L1309.96 1931.19C1310.07 1932.9 1307.74 1933.51 1306.98 1931.97L1302.16 1921.31L1298.09 1914.1C1297.12 1912.4 1296.03 1910.76 1294.83 1909.21C1292.37 1906.04 1289.45 1903.26 1286.16 1900.95L1283.53 1899.1L1280.56 1897.58C1277.97 1896.24 1275.12 1895.43 1272.21 1895.21L1269.78 1895.03C1266.61 1894.79 1263.45 1895.59 1260.78 1897.31C1259.85 1897.91 1258.99 1898.62 1258.21 1899.41L1258.13 1899.5C1256.68 1900.99 1255.54 1902.77 1254.78 1904.72L1254.06 1906.58C1253.47 1908.1 1253.02 1909.68 1252.73 1911.3L1251.1 1920.42L1250.98 1922.19C1250.6 1928.11 1250.64 1934.05 1251.1 1939.96L1251.79 1947.96C1252.16 1949.62 1250.07 1950.69 1248.94 1949.41L1247.92 1948.26C1247.74 1948.06 1247.52 1947.9 1247.28 1947.78L1245 1946.68C1243.11 1945.77 1241.04 1945.29 1238.94 1945.29C1236.51 1945.29 1234.12 1945.93 1232.01 1947.13L1231.67 1947.33C1229.92 1948.33 1228.38 1949.66 1227.15 1951.26L1226.31 1952.33C1225.36 1953.56 1224.54 1954.88 1223.86 1956.28L1223.72 1956.57C1222.21 1959.68 1221.35 1963.06 1221.19 1966.52L1220.76 1975.95C1220.75 1976.24 1220.78 1976.52 1220.87 1976.8L1220.97 1977.13C1221.48 1978.78 1220.03 1980.38 1218.33 1980.01C1218.1 1979.96 1217.86 1979.95 1217.62 1979.97L1213.07 1980.46C1210.86 1980.7 1208.76 1981.52 1206.97 1982.83C1205.58 1983.85 1204.42 1985.14 1203.56 1986.63L1202.77 1987.98C1201.42 1990.29 1200.55 1992.85 1200.21 1995.51L1199.35 2002.14V2006.12C1199.35 2011.72 1200.28 2017.28 1202.11 2022.57L1202.94 2024.7C1203.37 2025.82 1202.19 2026.88 1201.12 2026.33C1200.87 2026.2 1200.58 2026.16 1200.29 2026.21L1198.28 2026.58C1196.73 2026.86 1195.32 2027.64 1194.25 2028.78L1193.38 2029.72C1192.31 2030.87 1191.5 2032.22 1190.99 2033.7L1190.04 2036.43C1189.36 2038.4 1189.26 2040.53 1189.74 2042.57C1190.93 2047.51 1195.35 2051 1200.43 2051Z" fill="#2A102D"/>
<defs>
<filter id="filter0_f_557_1389" x="-232" y="601" width="1384" height="1381" filterUnits="userSpaceOnUse" color-interpolation-filters="sRGB">
<feFlood flood-opacity="0" result="BackgroundImageFix"/>
<feBlend mode="normal" in="SourceGraphic" in2="BackgroundImageFix" result="shape"/>
<feGaussianBlur stdDeviation="200" result="effect1_foregroundBlur_557_1389"/>
</filter>
<linearGradient id="paint0_linear_557_1389" x1="960" y1="1137.5" x2="960" y2="393.5" gradientUnits="userSpaceOnUse">
<stop stop-color="#FA2B00" stop-opacity="0.78"/>
<stop offset="1" stop-opacity="0.78"/>
</linearGradient>
<linearGradient id="paint1_linear_557_1389" x1="1134.5" y1="1460.5" x2="1136.49" y2="1947" gradientUnits="userSpaceOnUse">
<stop stop-color="#F35E47"/>
<stop offset="1" stop-color="#FFD1C6"/>
</linearGradient>
<linearGradient id="paint2_linear_557_1389" x1="0" y1="1456" x2="1920" y2="1456" gradientUnits="userSpaceOnUse">
<stop stop-color="#D02D48"/>
<stop offset="1" stop-color="#BB3B50"/>
</linearGradient>
</defs>
</svg>
