<svg width="1920" height="2160" viewBox="0 0 1920 2160" fill="none" xmlns="http://www.w3.org/2000/svg">
<rect width="1920" height="2160" fill="url(#paint0_linear_660_19272)"/>
<ellipse cx="97.803" cy="401.214" rx="1.63916" ry="2.16093" fill="#D9D9D9"/>
<ellipse cx="127.308" cy="353.673" rx="1.63916" ry="2.16093" fill="#D9D9D9"/>
<ellipse cx="201.616" cy="418.499" rx="1.63916" ry="2.16093" fill="#D9D9D9"/>
<ellipse cx="226.75" cy="274.438" rx="1.63916" ry="2.16093" fill="#D9D9D9"/>
<ellipse cx="248.605" cy="157.747" rx="1.63916" ry="2.16093" fill="#D9D9D9"/>
<ellipse cx="204.895" cy="2.16093" rx="1.63916" ry="2.16093" fill="#D9D9D9"/>
<ellipse cx="1.63916" cy="120.29" rx="1.63916" ry="2.16093" fill="#D9D9D9"/>
<ellipse cx="101.082" cy="186.561" rx="1.63916" ry="2.16093" fill="#D9D9D9"/>
<ellipse cx="328.378" cy="316.216" rx="1.63916" ry="2.16093" fill="#D9D9D9"/>
<ellipse cx="58.4631" cy="780.093" rx="1.63916" ry="2.16093" fill="#D9D9D9"/>
<ellipse cx="157.906" cy="700.862" rx="1.63916" ry="2.16093" fill="#D9D9D9"/>
<ellipse cx="32.2368" cy="612.983" rx="1.63916" ry="2.16093" fill="#D9D9D9"/>
<ellipse cx="259.533" cy="742.639" rx="1.63916" ry="2.16093" fill="#D9D9D9"/>
<ellipse cx="223.472" cy="566.884" rx="1.63916" ry="2.16093" fill="#D9D9D9"/>
<ellipse cx="283.574" cy="811.79" rx="1.63916" ry="2.16093" fill="#D9D9D9"/>
<ellipse cx="545.839" cy="251.387" rx="1.63916" ry="2.16093" fill="#D9D9D9"/>
<ellipse cx="575.344" cy="203.848" rx="1.63916" ry="2.16093" fill="#D9D9D9"/>
<ellipse cx="649.653" cy="268.677" rx="1.63916" ry="2.16093" fill="#D9D9D9"/>
<ellipse cx="674.787" cy="124.614" rx="1.63916" ry="2.16093" fill="#D9D9D9"/>
<ellipse cx="696.642" cy="7.9246" rx="1.63916" ry="2.16093" fill="#D9D9D9"/>
<ellipse cx="549.118" cy="36.7351" rx="1.63916" ry="2.16093" fill="#D9D9D9"/>
<ellipse cx="776.414" cy="166.391" rx="1.63916" ry="2.16093" fill="#D9D9D9"/>
<ellipse cx="506.5" cy="630.272" rx="1.63916" ry="2.16093" fill="#D9D9D9"/>
<ellipse cx="605.942" cy="551.038" rx="1.63916" ry="2.16093" fill="#D9D9D9"/>
<ellipse cx="480.273" cy="463.159" rx="1.63916" ry="2.16093" fill="#D9D9D9"/>
<ellipse cx="707.57" cy="592.815" rx="1.63916" ry="2.16093" fill="#D9D9D9"/>
<ellipse cx="671.508" cy="417.059" rx="1.63916" ry="2.16093" fill="#D9D9D9"/>
<ellipse cx="731.611" cy="661.964" rx="1.63916" ry="2.16093" fill="#D9D9D9"/>
<ellipse cx="1004.8" cy="414.177" rx="1.63916" ry="2.16093" fill="#D9D9D9"/>
<ellipse cx="1034.31" cy="366.637" rx="1.63916" ry="2.16093" fill="#D9D9D9"/>
<ellipse cx="1108.62" cy="431.466" rx="1.63916" ry="2.16093" fill="#D9D9D9"/>
<ellipse cx="1133.75" cy="287.403" rx="1.63916" ry="2.16093" fill="#D9D9D9"/>
<ellipse cx="1155.61" cy="170.716" rx="1.63916" ry="2.16093" fill="#D9D9D9"/>
<ellipse cx="1111.9" cy="15.1277" rx="1.63916" ry="2.16093" fill="#D9D9D9"/>
<ellipse cx="908.64" cy="133.257" rx="1.63916" ry="2.16093" fill="#D9D9D9"/>
<ellipse cx="1008.08" cy="199.526" rx="1.63916" ry="2.16093" fill="#D9D9D9"/>
<ellipse cx="1235.38" cy="329.18" rx="1.63916" ry="2.16093" fill="#D9D9D9"/>
<ellipse cx="965.464" cy="793.061" rx="1.63916" ry="2.16093" fill="#D9D9D9"/>
<ellipse cx="1064.91" cy="713.829" rx="1.63916" ry="2.16093" fill="#D9D9D9"/>
<ellipse cx="939.237" cy="625.95" rx="1.63916" ry="2.16093" fill="#D9D9D9"/>
<ellipse cx="1166.53" cy="755.604" rx="1.63916" ry="2.16093" fill="#D9D9D9"/>
<ellipse cx="1130.47" cy="579.848" rx="1.63916" ry="2.16093" fill="#D9D9D9"/>
<ellipse cx="1190.57" cy="824.753" rx="1.63916" ry="2.16093" fill="#D9D9D9"/>
<ellipse cx="1329.36" cy="180.798" rx="1.63916" ry="2.16093" fill="#D9D9D9"/>
<ellipse cx="1358.86" cy="133.257" rx="1.63916" ry="2.16093" fill="#D9D9D9"/>
<ellipse cx="1433.17" cy="198.083" rx="1.63916" ry="2.16093" fill="#D9D9D9"/>
<ellipse cx="1458.3" cy="54.0242" rx="1.63916" ry="2.16093" fill="#D9D9D9"/>
<ellipse cx="1559.93" cy="95.8016" rx="1.63916" ry="2.16093" fill="#D9D9D9"/>
<ellipse cx="1290.02" cy="559.682" rx="1.63916" ry="2.16093" fill="#D9D9D9"/>
<ellipse cx="1389.46" cy="480.448" rx="1.63916" ry="2.16093" fill="#D9D9D9"/>
<ellipse cx="1263.79" cy="392.569" rx="1.63916" ry="2.16093" fill="#D9D9D9"/>
<ellipse cx="1491.09" cy="522.225" rx="1.63916" ry="2.16093" fill="#D9D9D9"/>
<ellipse cx="1455.03" cy="346.468" rx="1.63916" ry="2.16093" fill="#D9D9D9"/>
<ellipse cx="1515.13" cy="591.376" rx="1.63916" ry="2.16093" fill="#D9D9D9"/>
<ellipse cx="1679.04" cy="523.667" rx="1.63916" ry="2.16093" fill="#D9D9D9"/>
<ellipse cx="1708.55" cy="476.128" rx="1.63916" ry="2.16093" fill="#D9D9D9"/>
<ellipse cx="1782.86" cy="540.952" rx="1.63916" ry="2.16093" fill="#D9D9D9"/>
<ellipse cx="1807.99" cy="396.891" rx="1.63916" ry="2.16093" fill="#D9D9D9"/>
<ellipse cx="1829.85" cy="280.2" rx="1.63916" ry="2.16093" fill="#D9D9D9"/>
<ellipse cx="1786.14" cy="124.614" rx="1.63916" ry="2.16093" fill="#D9D9D9"/>
<ellipse cx="1582.88" cy="242.745" rx="1.63916" ry="2.16093" fill="#D9D9D9"/>
<ellipse cx="1682.32" cy="309.014" rx="1.63916" ry="2.16093" fill="#D9D9D9"/>
<ellipse cx="1909.62" cy="438.669" rx="1.63916" ry="2.16093" fill="#D9D9D9"/>
<ellipse cx="1639.7" cy="902.552" rx="1.63916" ry="2.16093" fill="#D9D9D9"/>
<ellipse cx="1739.15" cy="823.315" rx="1.63916" ry="2.16093" fill="#D9D9D9"/>
<ellipse cx="1613.48" cy="735.436" rx="1.63916" ry="2.16093" fill="#D9D9D9"/>
<ellipse cx="1840.77" cy="865.091" rx="1.63916" ry="2.16093" fill="#D9D9D9"/>
<ellipse cx="1804.71" cy="689.339" rx="1.63916" ry="2.16093" fill="#D9D9D9"/>
<ellipse cx="1864.81" cy="934.243" rx="1.63916" ry="2.16093" fill="#D9D9D9"/>
<ellipse cx="106.545" cy="1248.3" rx="1.63916" ry="2.16093" fill="#D9D9D9"/>
<ellipse cx="136.05" cy="1200.75" rx="1.63916" ry="2.16093" fill="#D9D9D9"/>
<ellipse cx="210.359" cy="1265.58" rx="1.63916" ry="2.16093" fill="#D9D9D9"/>
<ellipse cx="235.492" cy="1121.52" rx="1.63916" ry="2.16093" fill="#D9D9D9"/>
<ellipse cx="257.348" cy="1004.83" rx="1.63916" ry="2.16093" fill="#D9D9D9"/>
<ellipse cx="213.637" cy="849.247" rx="1.63916" ry="2.16093" fill="#D9D9D9"/>
<ellipse cx="10.3813" cy="967.376" rx="1.63916" ry="2.16093" fill="#D9D9D9"/>
<ellipse cx="109.824" cy="1033.65" rx="1.63916" ry="2.16093" fill="#D9D9D9"/>
<ellipse cx="337.12" cy="1163.3" rx="1.63916" ry="2.16093" fill="#D9D9D9"/>
<ellipse cx="166.648" cy="1547.95" rx="1.63916" ry="2.16093" fill="#D9D9D9"/>
<ellipse cx="40.979" cy="1460.07" rx="1.63916" ry="2.16093" fill="#D9D9D9"/>
<ellipse cx="268.275" cy="1589.73" rx="1.63916" ry="2.16093" fill="#D9D9D9"/>
<ellipse cx="232.214" cy="1413.97" rx="1.63916" ry="2.16093" fill="#D9D9D9"/>
<ellipse cx="292.317" cy="1658.87" rx="1.63916" ry="2.16093" fill="#D9D9D9"/>
<ellipse cx="554.582" cy="1098.47" rx="1.63916" ry="2.16093" fill="#D9D9D9"/>
<ellipse cx="584.087" cy="1050.93" rx="1.63916" ry="2.16093" fill="#D9D9D9"/>
<ellipse cx="658.395" cy="1115.76" rx="1.63916" ry="2.16093" fill="#D9D9D9"/>
<ellipse cx="683.529" cy="971.698" rx="1.63916" ry="2.16093" fill="#D9D9D9"/>
<ellipse cx="705.384" cy="855.007" rx="1.63916" ry="2.16093" fill="#D9D9D9"/>
<ellipse cx="661.673" cy="699.421" rx="1.63916" ry="2.16093" fill="#D9D9D9"/>
<ellipse cx="458.418" cy="817.554" rx="1.63916" ry="2.16093" fill="#D9D9D9"/>
<ellipse cx="557.86" cy="883.821" rx="1.63916" ry="2.16093" fill="#D9D9D9"/>
<ellipse cx="785.157" cy="1013.48" rx="1.63916" ry="2.16093" fill="#D9D9D9"/>
<ellipse cx="515.242" cy="1477.36" rx="1.63916" ry="2.16093" fill="#D9D9D9"/>
<ellipse cx="614.684" cy="1398.12" rx="1.63916" ry="2.16093" fill="#D9D9D9"/>
<ellipse cx="489.015" cy="1310.25" rx="1.63916" ry="2.16093" fill="#D9D9D9"/>
<ellipse cx="716.312" cy="1439.9" rx="1.63916" ry="2.16093" fill="#D9D9D9"/>
<ellipse cx="680.25" cy="1264.15" rx="1.63916" ry="2.16093" fill="#D9D9D9"/>
<ellipse cx="740.353" cy="1509.05" rx="1.63916" ry="2.16093" fill="#D9D9D9"/>
<ellipse cx="1013.55" cy="1261.26" rx="1.63916" ry="2.16093" fill="#D9D9D9"/>
<ellipse cx="1043.05" cy="1213.72" rx="1.63916" ry="2.16093" fill="#D9D9D9"/>
<ellipse cx="1117.36" cy="1278.55" rx="1.63916" ry="2.16093" fill="#D9D9D9"/>
<ellipse cx="1142.49" cy="1134.49" rx="1.63916" ry="2.16093" fill="#D9D9D9"/>
<ellipse cx="1164.35" cy="1017.8" rx="1.63916" ry="2.16093" fill="#D9D9D9"/>
<ellipse cx="1120.64" cy="862.212" rx="1.63916" ry="2.16093" fill="#D9D9D9"/>
<ellipse cx="917.382" cy="980.345" rx="1.63916" ry="2.16093" fill="#D9D9D9"/>
<ellipse cx="1016.82" cy="1046.61" rx="1.63916" ry="2.16093" fill="#D9D9D9"/>
<ellipse cx="1244.12" cy="1176.27" rx="1.63916" ry="2.16093" fill="#D9D9D9"/>
<ellipse cx="974.206" cy="1640.15" rx="1.63916" ry="2.16093" fill="#D9D9D9"/>
<ellipse cx="1073.65" cy="1560.91" rx="1.63916" ry="2.16093" fill="#D9D9D9"/>
<ellipse cx="947.979" cy="1473.03" rx="1.63916" ry="2.16093" fill="#D9D9D9"/>
<ellipse cx="1175.28" cy="1602.69" rx="1.63916" ry="2.16093" fill="#D9D9D9"/>
<ellipse cx="1139.21" cy="1426.93" rx="1.63916" ry="2.16093" fill="#D9D9D9"/>
<ellipse cx="1199.32" cy="1671.84" rx="1.63916" ry="2.16093" fill="#D9D9D9"/>
<ellipse cx="1338.1" cy="1027.88" rx="1.63916" ry="2.16093" fill="#D9D9D9"/>
<ellipse cx="1367.6" cy="980.345" rx="1.63916" ry="2.16093" fill="#D9D9D9"/>
<ellipse cx="1441.91" cy="1045.17" rx="1.63916" ry="2.16093" fill="#D9D9D9"/>
<ellipse cx="1467.05" cy="901.108" rx="1.63916" ry="2.16093" fill="#D9D9D9"/>
<ellipse cx="1488.9" cy="784.419" rx="1.63916" ry="2.16093" fill="#D9D9D9"/>
<ellipse cx="1445.19" cy="628.831" rx="1.63916" ry="2.16093" fill="#D9D9D9"/>
<ellipse cx="1241.94" cy="746.962" rx="1.63916" ry="2.16093" fill="#D9D9D9"/>
<ellipse cx="1341.38" cy="813.231" rx="1.63916" ry="2.16093" fill="#D9D9D9"/>
<ellipse cx="1568.67" cy="942.886" rx="1.63916" ry="2.16093" fill="#D9D9D9"/>
<ellipse cx="1298.76" cy="1406.77" rx="1.63916" ry="2.16093" fill="#D9D9D9"/>
<ellipse cx="1398.2" cy="1327.53" rx="1.63916" ry="2.16093" fill="#D9D9D9"/>
<ellipse cx="1272.53" cy="1239.65" rx="1.63916" ry="2.16093" fill="#D9D9D9"/>
<ellipse cx="1499.83" cy="1369.31" rx="1.63916" ry="2.16093" fill="#D9D9D9"/>
<ellipse cx="1463.77" cy="1193.56" rx="1.63916" ry="2.16093" fill="#D9D9D9"/>
<ellipse cx="1523.87" cy="1438.46" rx="1.63916" ry="2.16093" fill="#D9D9D9"/>
<ellipse cx="1687.79" cy="1370.75" rx="1.63916" ry="2.16093" fill="#D9D9D9"/>
<ellipse cx="1717.29" cy="1323.21" rx="1.63916" ry="2.16093" fill="#D9D9D9"/>
<ellipse cx="1791.6" cy="1388.04" rx="1.63916" ry="2.16093" fill="#D9D9D9"/>
<ellipse cx="1816.73" cy="1243.98" rx="1.63916" ry="2.16093" fill="#D9D9D9"/>
<ellipse cx="1838.59" cy="1127.28" rx="1.63916" ry="2.16093" fill="#D9D9D9"/>
<ellipse cx="1794.88" cy="971.698" rx="1.63916" ry="2.16093" fill="#D9D9D9"/>
<ellipse cx="1591.62" cy="1089.83" rx="1.63916" ry="2.16093" fill="#D9D9D9"/>
<ellipse cx="1691.06" cy="1156.1" rx="1.63916" ry="2.16093" fill="#D9D9D9"/>
<ellipse cx="1918.36" cy="1285.75" rx="1.63916" ry="2.16093" fill="#D9D9D9"/>
<ellipse cx="1622.22" cy="1582.52" rx="1.63916" ry="2.16093" fill="#D9D9D9"/>
<ellipse cx="1813.45" cy="1536.42" rx="1.63916" ry="2.16093" fill="#D9D9D9"/>
<circle cx="628" cy="1433" r="520" fill="#F5F5F5"/>
<path d="M55.0171 1125.23L83.8756 1139.29L140.234 1223.65C140.468 1224 140.806 1224.26 141.201 1224.41L151.212 1228.12L163.791 1144.47L209.484 1162.7L214.849 1198.51L227.428 1207.4L234.088 1246.63L259.986 1256.25L294.024 1186.67V1186.67C311.719 1181.22 324.834 1166.27 327.927 1148.01L337.682 1090.43V1090.43C359.783 1081.59 373.756 1059.61 372.386 1035.84L368.02 960.144L430.917 895L451.926 895C489.123 895 520.658 922.352 525.916 959.175L532.505 1005.31C535.234 1024.42 544.652 1041.95 559.085 1054.77V1054.77C563.763 1058.92 566.819 1064.6 567.711 1070.8L572.989 1107.46L584.829 1152.62L616.647 1228.12L668.444 1237.01L683.244 1317.7L703.962 1364.33L725.421 1437.62L755.76 1427.26L776.479 1458.35H791.278L815.696 1355.45H831.236V1430.22L834.935 1458.35L839.375 1487.96H849.735L911.151 1458.35L931.87 1364.33L966.648 1355.45L979.228 1302.15L995.507 1294.01L1005.13 1228.12L1029.55 1152.62L1059.14 1191.85L1078.38 1199.99L1085.04 1236.27L1139 1279.5L1152.5 1430.22L1237.5 1597L1317.5 1563H1343L1357.5 1518.5L1370 1504.5L1382.5 1396.5L1408 1387L1428.5 1331L1486 1321L1508 1311.5H1566.5V1430.22L1587.5 1442.5L1603.5 1387H1621L1630 1354H1654.5V1430.22L1671.5 1442.5V1492L1695.5 1563L1759 1597L1769.5 1628.5L1873.5 1697.5L1370 1717H1078.38H1V1198.51L18.7591 1152.62H40.2179V1131.89L55.0171 1125.23Z" fill="url(#paint1_linear_660_19272)"/>
<path d="M0 1711V1672.5L71.0001 1662.77C96.5856 1659.27 121.696 1652.9 145.858 1643.78L197.981 1624.12C212.21 1618.75 227.292 1616 242.5 1616V1616V1616C393.588 1672.96 564.171 1628.68 668.485 1505.43L773.292 1381.6C796.718 1353.92 822.558 1328.38 850.509 1305.28L921.918 1246.26C955.902 1218.18 1003.81 1214.3 1041.87 1236.55V1236.55C1081.73 1259.85 1115.52 1292.24 1140.51 1331.06L1246 1495V1495C1370.06 1675.88 1613.16 1729.51 1801.8 1617.61L1920 1547.5V1872H0V1711Z" fill="#E58B66"/>
<path d="M0 1858V1819.5L67.9318 1810.19C95.5564 1806.41 122.668 1799.53 148.756 1789.69L219.5 1763L343.641 1734.64C360.301 1730.83 377.735 1736.06 389.554 1748.4V1748.4C455.345 1817.11 550.47 1849.48 644.515 1835.17L732.057 1821.84C806.875 1810.45 877.758 1780.89 938.488 1735.73L973.619 1709.6C979.517 1705.22 985.939 1701.59 992.736 1698.79L1129.99 1642.37C1149.86 1634.2 1172.65 1638.16 1188.6 1652.55L1217.36 1678.5C1305.08 1757.65 1425.41 1790 1541 1765.5V1765.5L1714 1721L1920 1688V2019H0V1858Z" fill="#CA6750"/>
<path d="M1 1999V1805.5L67.3849 1822.24C98.882 1830.18 126.805 1848.46 146.686 1874.15V1874.15C183.207 1921.34 240.557 1947.61 300.145 1944.44L346 1942V1942C405.921 1978.92 476.517 1994.63 546.44 1986.58L844.042 1952.34C883.078 1947.85 920.406 1933.81 952.723 1911.45V1911.45C959.646 1906.67 968.134 1904.7 976.458 1905.95L1040 1915.5L1187.06 1886.85C1332.56 1858.5 1481.9 1855.84 1628.32 1878.99L1636.79 1880.32C1677.33 1886.73 1718.64 1886.6 1759.15 1879.93V1879.93C1774.69 1877.37 1790.64 1879.55 1804.92 1886.19L1868 1915.5L1921 1945.5V2160H1V1999Z" fill="#9A4038"/>
<path d="M992 1814C992 1810.13 988.866 1807 985 1807V1807V1807C978.936 1806.09 974.001 1801.65 972.462 1795.71L971.5 1792L965.118 1466.99C965.05 1463.54 967.5 1460.55 970.895 1459.95V1459.95C975.146 1459.19 979.066 1462.41 979.139 1466.73L984 1755L984.827 1788.5C984.923 1792.39 988.106 1795.5 992 1795.5V1795.5L997.5 1792.93V1613.83C997.5 1610.24 1000.31 1607.28 1003.89 1607.09V1607.09C1007.75 1606.89 1011 1609.96 1011 1613.83V1750.98C1011 1753.07 1012.7 1754.75 1014.79 1754.73V1754.73C1016.85 1754.71 1018.5 1753.03 1018.5 1750.98V1438.25C1018.5 1434.8 1021.3 1432 1024.75 1432V1432C1028.2 1432 1031 1434.8 1031 1438.25V1699.38L1029.5 1747.99C1029.2 1757.84 1022.91 1766.5 1013.64 1769.85V1769.85C1012.06 1770.42 1011 1771.93 1011 1773.62V1792.13L1014.9 1807.24C1015.53 1809.68 1017.87 1811.27 1020.36 1810.95L1020.7 1810.91C1022.61 1810.67 1024.08 1809.1 1024.2 1807.18L1025.09 1792.03C1025.36 1787.42 1026.77 1782.94 1029.19 1779L1036.77 1766.69C1037.25 1765.91 1037.5 1765.02 1037.51 1764.11L1039.95 1484.45C1039.98 1481.12 1042.62 1478.4 1045.95 1478.26V1478.26C1049.51 1478.12 1052.47 1480.99 1052.44 1484.56L1050.04 1761.74C1050.01 1764.9 1049.6 1768.05 1048.81 1771.11L1045.5 1784L1041 1801.5L1038.88 1809.39C1037.96 1812.78 1037.5 1816.28 1037.5 1819.79V1819.79C1037.5 1824.05 1040.95 1827.5 1045.21 1827.5H1045.5V1827.5C1048.69 1827.5 1051.42 1825.22 1051.99 1822.09L1055.01 1805.58C1056.67 1796.54 1057.5 1787.38 1057.5 1778.2V1590.5C1057.5 1587.46 1059.96 1585 1063 1585V1585C1066.04 1585 1068.5 1587.46 1068.5 1590.5V1777.54C1068.5 1787.16 1067.6 1796.76 1065.81 1806.21L1062.12 1825.66C1060.6 1833.69 1053.59 1839.5 1045.42 1839.5H1044.5C1040.63 1839.5 1037.5 1842.63 1037.5 1846.5V1917.5H1001L993.075 1860.27C992.459 1855.81 988.654 1852.5 984.16 1852.5H976C959.984 1852.5 947 1839.52 947 1823.5V1789L942.167 1546.87C942.075 1542.28 945.776 1538.5 950.373 1538.5V1538.5C954.875 1538.5 958.536 1542.13 958.581 1546.63L960.5 1739.5L961.941 1821.61C961.978 1823.74 963.022 1825.73 964.755 1826.97L971.225 1831.61C979.912 1837.84 992 1831.63 992 1820.94V1814Z" fill="#9A4038"/>
<path d="M402.17 1909.26C402.17 1906.88 404.102 1904.95 406.486 1904.95V1904.95V1904.95C410.225 1904.39 413.269 1901.65 414.219 1897.99L414.81 1895.71L418.746 1695.55C418.787 1693.43 417.276 1691.58 415.182 1691.21V1691.21C412.561 1690.74 410.145 1692.73 410.1 1695.39L407.103 1872.92L406.593 1893.55C406.534 1895.95 404.571 1897.87 402.17 1897.87V1897.87L398.779 1896.28V1785.99C398.779 1783.78 397.047 1781.95 394.838 1781.83V1781.83C392.456 1781.71 390.455 1783.6 390.455 1785.99V1870.44C390.455 1871.73 389.404 1872.77 388.118 1872.76V1872.76C386.85 1872.74 385.83 1871.71 385.83 1870.44V1677.85C385.83 1675.73 384.105 1674 381.976 1674V1674C379.848 1674 378.123 1675.73 378.123 1677.85V1838.67L379.045 1868.59C379.233 1874.67 383.109 1880.01 388.824 1882.07V1882.07C389.802 1882.42 390.455 1883.35 390.455 1884.39V1895.79L388.08 1904.98C387.675 1906.55 386.17 1907.57 384.564 1907.37V1907.37C383.333 1907.21 382.386 1906.2 382.313 1904.96L381.928 1898.44C381.656 1893.82 380.243 1889.34 377.815 1885.4L374.845 1880.58C374.367 1879.8 374.11 1878.91 374.102 1878L372.605 1706.31C372.587 1704.25 370.96 1702.57 368.907 1702.49V1702.49C366.707 1702.4 364.882 1704.17 364.901 1706.37L366.366 1875.24C366.393 1878.4 366.806 1881.56 367.596 1884.62L369.182 1890.78L371.957 1901.56L373.266 1906.42C373.829 1908.51 374.115 1910.66 374.115 1912.83V1912.83C374.115 1915.45 371.99 1917.57 369.37 1917.57H369.182V1917.57C367.217 1917.57 365.533 1916.17 365.179 1914.24L364.174 1908.75C362.583 1900.08 361.783 1891.27 361.783 1882.45V1771.62C361.783 1769.74 360.264 1768.23 358.391 1768.23V1768.23C356.518 1768.23 355 1769.74 355 1771.62V1881.88C355 1891.08 355.863 1900.26 357.577 1909.29L358.861 1916.06C359.84 1921.23 364.354 1924.96 369.61 1924.96V1924.96C372.098 1924.96 374.115 1926.98 374.115 1929.47V1973H396.621L401.359 1938.82C401.824 1935.47 404.69 1932.97 408.074 1932.97V1932.97C420.138 1932.97 429.917 1923.19 429.917 1911.13V1893.86L432.897 1744.75C432.953 1741.92 430.672 1739.59 427.837 1739.59V1739.59C425.061 1739.59 422.804 1741.82 422.776 1744.6L421.593 1863.38L420.705 1913.94C420.682 1915.26 420.037 1916.48 418.967 1917.25L414.967 1920.11C409.614 1923.95 402.17 1920.12 402.17 1913.54V1909.26Z" fill="#9A4038"/>
<path d="M1507.17 1714.26C1507.17 1711.88 1509.1 1709.95 1511.49 1709.95V1709.95V1709.95C1515.23 1709.39 1518.27 1706.65 1519.22 1702.99L1519.81 1700.71L1523.75 1500.55C1523.79 1498.43 1522.28 1496.58 1520.18 1496.21V1496.21C1517.56 1495.74 1515.15 1497.73 1515.1 1500.39L1512.1 1677.92L1511.59 1698.55C1511.53 1700.95 1509.57 1702.87 1507.17 1702.87V1702.87L1503.78 1701.28V1590.99C1503.78 1588.78 1502.05 1586.95 1499.84 1586.83V1586.83C1497.46 1586.71 1495.45 1588.6 1495.45 1590.99V1675.44C1495.45 1676.73 1494.4 1677.77 1493.12 1677.76V1677.76C1491.85 1677.74 1490.83 1676.71 1490.83 1675.44V1482.85C1490.83 1480.73 1489.1 1479 1486.98 1479V1479C1484.85 1479 1483.12 1480.73 1483.12 1482.85V1643.67L1484.05 1673.59C1484.23 1679.67 1488.11 1685.01 1493.82 1687.07V1687.07C1494.8 1687.42 1495.45 1688.35 1495.45 1689.39V1700.79L1493.08 1709.98C1492.67 1711.55 1491.17 1712.57 1489.56 1712.37V1712.37C1488.33 1712.21 1487.39 1711.2 1487.31 1709.96L1486.93 1703.44C1486.66 1698.82 1485.24 1694.34 1482.82 1690.4L1479.85 1685.58C1479.37 1684.8 1479.11 1683.91 1479.1 1683L1477.61 1511.31C1477.59 1509.25 1475.96 1507.57 1473.91 1507.49V1507.49C1471.71 1507.4 1469.88 1509.17 1469.9 1511.37L1471.37 1680.24C1471.39 1683.4 1471.81 1686.56 1472.6 1689.62L1474.18 1695.78L1476.96 1706.56L1478.27 1711.42C1478.83 1713.51 1479.11 1715.66 1479.11 1717.83V1717.83C1479.11 1720.45 1476.99 1722.57 1474.37 1722.57H1474.18V1722.57C1472.22 1722.57 1470.53 1721.17 1470.18 1719.24L1469.17 1713.75C1467.58 1705.08 1466.78 1696.27 1466.78 1687.45V1576.62C1466.78 1574.74 1465.26 1573.23 1463.39 1573.23V1573.23C1461.52 1573.23 1460 1574.74 1460 1576.62V1686.88C1460 1696.08 1460.86 1705.26 1462.58 1714.29L1463.86 1721.06C1464.84 1726.23 1469.35 1729.96 1474.61 1729.96V1729.96C1477.1 1729.96 1479.11 1731.98 1479.11 1734.47V1778H1501.62L1506.36 1743.82C1506.82 1740.47 1509.69 1737.97 1513.07 1737.97V1737.97C1525.14 1737.97 1534.92 1728.19 1534.92 1716.13V1698.86L1537.9 1549.75C1537.95 1546.92 1535.67 1544.59 1532.84 1544.59V1544.59C1530.06 1544.59 1527.8 1546.82 1527.78 1549.6L1526.59 1668.38L1525.7 1718.94C1525.68 1720.26 1525.04 1721.48 1523.97 1722.25L1519.97 1725.11C1514.61 1728.95 1507.17 1725.12 1507.17 1718.54V1714.26Z" fill="#CA6750"/>
<path d="M711.767 1770.48C709.661 1761.27 700.669 1755.35 691.377 1757.07L688.569 1757.59C680.676 1759.04 672.691 1755.55 668.407 1748.76L656.25 1729.5L653.418 1728.83C647.971 1727.55 644.635 1722.05 646.018 1716.63L646.625 1714.25V1714.25C640.237 1704.13 635.225 1693.2 631.721 1681.76L629.5 1674.5L626.801 1673.44C622.706 1671.84 621.669 1666.52 624.861 1663.5L627.5 1661L624.998 1640.98C623.631 1630.05 631.579 1620.15 642.55 1619.13V1619.13C652.476 1618.2 661.504 1624.91 663.489 1634.68L666.5 1649.5L669.023 1651.12C674.24 1654.45 675.198 1661.68 671.032 1666.26L669 1668.5L673 1681.5L676.75 1696.25L678.194 1697.39C680.178 1698.96 680.967 1701.6 680.168 1704L679.5 1706L681.5 1711L691.72 1729.4C693.068 1731.82 695.866 1733.06 698.567 1732.41V1732.41C701.858 1731.63 703.911 1728.35 703.177 1725.05L702.5 1722V1722C696.656 1716.45 695.449 1707.58 699.596 1700.67L700 1700V1670L695.75 1642L694.562 1640.42C691.153 1635.87 690.605 1629.79 693.146 1624.71L694 1623L686.421 1572.48C684.575 1560.17 688.432 1547.69 696.9 1538.57L698.619 1536.72C704.92 1529.93 715.171 1528.63 722.973 1533.61V1533.61C733.522 1540.36 739.713 1552.18 739.246 1564.7L737.5 1611.5L739.81 1613.67C743.166 1616.83 743.166 1622.17 739.81 1625.33L737.5 1627.5V1670L744.596 1706.32C745.492 1710.9 748.237 1714.92 752.185 1717.42L754.156 1718.67C757.298 1720.66 761.436 1718.64 761.806 1714.94L763 1703L761.305 1700.65C758.512 1696.79 758.839 1691.48 762.087 1687.99L764.75 1685.12L767.167 1681.6C769.538 1678.13 773.579 1676.2 777.762 1676.53V1676.53C784.932 1677.1 790.769 1682.53 791.857 1689.63L795.771 1715.21C796.836 1722.16 793.995 1729.14 788.375 1733.38V1733.38L787.754 1734.98C786.676 1737.76 784.142 1739.71 781.178 1740.04L779.25 1740.25L775.831 1742.83C766.253 1750.04 759.534 1760.41 756.862 1772.1V1772.1C754.32 1783.22 754.32 1794.78 756.862 1805.9L761 1824H708L711.767 1807.52C714.553 1795.33 714.553 1782.67 711.767 1770.48V1770.48Z" fill="#CA6750"/>
<path d="M1809.88 1593.94C1808.89 1589.63 1804.68 1586.86 1800.33 1587.66L1799.02 1587.9C1795.33 1588.59 1791.59 1586.95 1789.59 1583.77L1783.9 1574.75L1783.69 1574.7C1780.53 1573.96 1778.59 1570.76 1779.4 1567.61V1567.61V1567.61C1776.41 1562.87 1774.06 1557.76 1772.42 1552.4L1771.38 1549V1549C1768.88 1548.02 1768.24 1544.77 1770.19 1542.92L1770.45 1542.68L1769.27 1533.3C1768.63 1528.18 1772.35 1523.55 1777.49 1523.07V1523.07C1782.13 1522.64 1786.36 1525.78 1787.29 1530.35L1788.7 1537.29V1537.29C1791.76 1539.25 1792.31 1543.5 1789.87 1546.19V1546.19L1791.74 1552.28L1793.49 1559.18V1559.18C1794.83 1560.24 1795.36 1562.01 1794.82 1563.63L1794.78 1563.75L1795.72 1566.09L1800.5 1574.7C1801.13 1575.84 1802.44 1576.42 1803.7 1576.12V1576.12C1805.24 1575.75 1806.2 1574.21 1805.86 1572.67L1805.54 1571.24V1571.24C1802.81 1568.64 1802.24 1564.49 1804.18 1561.26L1804.37 1560.94V1546.89L1802.38 1533.78V1533.78C1800.46 1531.22 1800.13 1527.76 1801.57 1524.89V1524.89L1798.02 1501.22C1797.15 1495.46 1798.96 1489.62 1802.92 1485.36L1803.73 1484.49C1806.67 1481.31 1811.47 1480.7 1815.13 1483.04V1483.04C1820.06 1486.19 1822.96 1491.72 1822.74 1497.58L1821.92 1519.5V1519.5C1824.08 1521.53 1824.08 1524.96 1821.92 1526.99V1526.99V1546.89L1825.14 1563.39C1825.63 1565.86 1827.1 1568.02 1829.23 1569.37V1569.37C1830.92 1570.44 1833.15 1569.36 1833.35 1567.36L1833.86 1562.34V1562.34C1832.09 1559.89 1832.29 1556.54 1834.35 1554.32L1834.67 1553.97L1835.81 1552.32C1836.91 1550.7 1838.81 1549.8 1840.76 1549.95V1549.95C1844.12 1550.22 1846.85 1552.76 1847.36 1556.08L1849.19 1568.06C1849.69 1571.32 1848.36 1574.58 1845.73 1576.57V1576.57V1576.57C1845.05 1578.33 1843.44 1579.57 1841.56 1579.77L1841.46 1579.79L1839.86 1580.99C1835.38 1584.37 1832.23 1589.23 1830.98 1594.7V1594.7C1829.79 1599.91 1829.79 1605.32 1830.98 1610.52L1832.92 1619H1808.12L1809.88 1611.28C1811.18 1605.58 1811.18 1599.65 1809.88 1593.94V1593.94Z" fill="#E58B66"/>
<path d="M548 1853L553.932 1799.26C555.029 1816.76 554.598 1836.96 559.734 1847.35C561.562 1833.54 562.297 1819.99 561.457 1806.85C563.941 1818.51 567.257 1829.89 567.897 1842.17C569.104 1833.07 569.964 1824.03 573.086 1814.61C572.962 1825.21 570.286 1834.93 575.155 1840.22C577.51 1831.93 579.886 1823.65 580.288 1813.41C583.759 1823.47 583.281 1835.5 584.359 1846.75C585.733 1835.68 586.853 1804.81 592.014 1795C591.506 1815.33 591.383 1831.43 596.484 1839.61C601.526 1833.32 601.962 1820.99 602.078 1809.3C605.638 1819.34 608.027 1830.78 608.256 1844.81C609.663 1833.11 611.302 1821.4 615.336 1809.7C614.398 1824.06 615.127 1835.23 618.522 1841.28C620.767 1832.25 622.684 1823.21 623.274 1814.17C626.28 1827.64 625.395 1840.13 626 1853H548Z" fill="#CA6750"/>
<path d="M473 1999L478.932 1945.26C480.029 1962.76 479.598 1982.96 484.734 1993.35C486.562 1979.54 487.297 1965.99 486.457 1952.85C488.941 1964.51 492.257 1975.89 492.897 1988.17C494.104 1979.07 494.964 1970.03 498.086 1960.61C497.962 1971.21 495.286 1980.93 500.155 1986.22C502.51 1977.93 504.886 1969.65 505.288 1959.41C508.759 1969.47 508.281 1981.5 509.359 1992.75C510.733 1981.68 511.853 1950.81 517.014 1941C516.506 1961.33 516.383 1977.43 521.484 1985.61C526.526 1979.32 526.962 1966.99 527.078 1955.3C530.638 1965.34 533.027 1976.78 533.256 1990.81C534.663 1979.11 536.302 1967.4 540.336 1955.7C539.398 1970.06 540.127 1981.23 543.522 1987.28C545.767 1978.25 547.684 1969.21 548.274 1960.17C551.28 1973.64 550.395 1986.13 551 1999H473Z" fill="#9A4038"/>
<path d="M1015 1918L1020.93 1864.26C1022.03 1881.76 1021.6 1901.96 1026.73 1912.35C1028.56 1898.54 1029.3 1884.99 1028.46 1871.85C1030.94 1883.51 1034.26 1894.89 1034.9 1907.17C1036.1 1898.07 1036.96 1889.03 1040.09 1879.61C1039.96 1890.21 1037.29 1899.93 1042.15 1905.22C1044.51 1896.93 1046.89 1888.65 1047.29 1878.41C1050.76 1888.47 1050.28 1900.5 1051.36 1911.75C1052.73 1900.68 1053.85 1869.81 1059.01 1860C1058.51 1880.33 1058.38 1896.43 1063.48 1904.61C1068.53 1898.32 1068.96 1885.99 1069.08 1874.3C1072.64 1884.34 1075.03 1895.78 1075.26 1909.81C1076.66 1898.11 1078.3 1886.4 1082.34 1874.7C1081.4 1889.06 1082.13 1900.23 1085.52 1906.28C1087.77 1897.25 1089.68 1888.21 1090.27 1879.17C1093.28 1892.64 1092.4 1905.13 1093 1918H1015Z" fill="#9A4038"/>
<path d="M930.012 1929.21L921.831 1875.76C927.422 1892.39 932.235 1912.01 939.883 1920.72C938.074 1906.9 935.279 1893.63 931.065 1881.15C936.483 1891.77 942.632 1901.91 946.427 1913.6C945.238 1904.5 943.729 1895.54 944.307 1885.64C946.932 1895.91 946.86 1905.99 952.935 1909.84C953.062 1901.22 953.214 1892.61 950.952 1882.61C956.909 1891.43 959.561 1903.17 963.515 1913.77C961.977 1902.72 955.069 1872.61 957.514 1861.8C962.285 1881.56 966.333 1897.14 973.377 1903.73C976.619 1896.34 973.85 1884.33 970.936 1873C976.973 1881.78 982.243 1892.22 986.095 1905.71C984.425 1894.04 982.978 1882.31 983.846 1869.96C986.657 1884.07 990.251 1894.67 995.098 1899.64C994.928 1890.33 994.441 1881.11 992.672 1872.23C999.06 1884.45 1001.44 1896.75 1005.35 1909.02L930.012 1929.21Z" fill="#9A4038"/>
<path d="M295 1970L300.932 1916.26C302.029 1933.76 301.598 1953.96 306.734 1964.35C308.562 1950.54 309.297 1936.99 308.457 1923.85C310.941 1935.51 314.257 1946.89 314.897 1959.17C316.104 1950.07 316.964 1941.03 320.086 1931.61C319.962 1942.21 317.286 1951.93 322.155 1957.22C324.51 1948.93 326.886 1940.65 327.288 1930.41C330.759 1940.47 330.281 1952.5 331.359 1963.75C332.733 1952.68 333.853 1921.81 339.014 1912C338.506 1932.33 338.383 1948.43 343.484 1956.61C348.526 1950.32 348.962 1937.99 349.078 1926.3C352.638 1936.34 355.027 1947.78 355.256 1961.81C356.663 1950.11 358.302 1938.4 362.336 1926.7C361.398 1941.06 362.127 1952.23 365.522 1958.28C367.767 1949.25 369.684 1940.21 370.274 1931.17C373.28 1944.64 372.395 1957.13 373 1970H295Z" fill="#9A4038"/>
<path d="M401 2002L406.932 1948.26C408.029 1965.76 407.598 1985.96 412.734 1996.35C414.562 1982.54 415.297 1968.99 414.457 1955.85C416.941 1967.51 420.257 1978.89 420.897 1991.17C422.104 1982.07 422.964 1973.03 426.086 1963.61C425.962 1974.21 423.286 1983.93 428.155 1989.22C430.51 1980.93 432.886 1972.65 433.288 1962.41C436.759 1972.47 436.281 1984.5 437.359 1995.75C438.733 1984.68 439.853 1953.81 445.014 1944C444.506 1964.33 444.383 1980.43 449.484 1988.61C454.526 1982.32 454.962 1969.99 455.078 1958.3C458.638 1968.34 461.027 1979.78 461.256 1993.81C462.663 1982.11 464.302 1970.4 468.336 1958.7C467.398 1973.06 468.127 1984.23 471.522 1990.28C473.767 1981.25 475.684 1972.21 476.274 1963.17C479.28 1976.64 478.395 1989.13 479 2002H401Z" fill="#9A4038"/>
<path d="M642 1835L647.932 1781.26C649.029 1798.76 648.598 1818.96 653.734 1829.35C655.562 1815.54 656.297 1801.99 655.457 1788.85C657.941 1800.51 661.257 1811.89 661.897 1824.17C663.104 1815.07 663.964 1806.03 667.086 1796.61C666.962 1807.21 664.286 1816.93 669.155 1822.22C671.51 1813.93 673.886 1805.65 674.288 1795.41C677.759 1805.47 677.281 1817.5 678.359 1828.75C679.733 1817.68 680.853 1786.81 686.014 1777C685.506 1797.33 685.383 1813.43 690.484 1821.61C695.526 1815.32 695.962 1802.99 696.078 1791.3C699.638 1801.34 702.027 1812.78 702.256 1826.81C703.663 1815.11 705.302 1803.4 709.336 1791.7C708.398 1806.06 709.127 1817.23 712.522 1823.28C714.767 1814.25 716.684 1805.21 717.274 1796.17C720.28 1809.64 719.395 1822.13 720 1835H642Z" fill="#CA6750"/>
<path d="M1441.32 1786.54L1439.25 1751.57C1441.86 1762.63 1443.79 1775.58 1448.2 1781.65C1447.86 1772.63 1446.85 1763.9 1444.89 1755.6C1447.74 1762.77 1451.1 1769.68 1452.85 1777.45C1452.63 1771.51 1452.19 1765.64 1453.16 1759.29C1454.23 1766.08 1453.58 1772.57 1457.27 1775.42C1457.87 1769.87 1458.49 1764.32 1457.63 1757.73C1460.94 1763.78 1461.95 1771.52 1463.86 1778.59C1463.53 1771.37 1460.88 1751.53 1463.11 1744.7C1465 1757.74 1466.68 1768.04 1470.83 1772.71C1473.36 1768.14 1472.3 1760.22 1471.1 1752.74C1474.46 1758.76 1477.24 1765.81 1478.91 1774.75C1478.53 1767.12 1478.31 1759.47 1479.61 1751.55C1480.57 1760.83 1482.26 1767.88 1485.08 1771.38C1485.53 1765.36 1485.77 1759.38 1485.17 1753.54C1488.55 1761.82 1489.35 1769.89 1491.14 1778.05L1441.32 1786.54Z" fill="#CA6750"/>
<path d="M1390 1775.3L1402.72 1742.66C1400.48 1753.8 1396.82 1766.37 1398.29 1773.73C1401.75 1765.39 1404.48 1757.04 1406.16 1748.67C1405.76 1756.39 1405.93 1764.07 1404.27 1771.86C1406.55 1766.36 1408.6 1760.85 1412.14 1755.48C1410.28 1762.1 1406.98 1767.73 1409.14 1771.86C1412 1767.06 1414.88 1762.28 1416.85 1755.93C1417.33 1762.81 1415.02 1770.26 1413.8 1777.49C1416.52 1770.79 1422.4 1751.66 1427.27 1746.38C1423.55 1759.02 1420.77 1769.07 1422.59 1775.05C1426.8 1771.96 1429.14 1764.32 1431.17 1757.02C1431.72 1763.9 1431.29 1771.46 1429.08 1780.28C1431.93 1773.19 1434.92 1766.14 1439.4 1759.49C1436.41 1768.32 1434.99 1775.43 1436.1 1779.79C1439.02 1774.51 1441.74 1769.18 1443.62 1763.62C1443.24 1772.55 1440.6 1780.23 1438.82 1788.38L1390 1775.3Z" fill="#CA6750"/>
<path d="M1499 1778L1502.5 1746.5C1503.15 1756.76 1502.89 1768.6 1505.92 1774.69C1507 1766.59 1507.43 1758.65 1506.94 1750.94C1508.4 1757.78 1510.36 1764.45 1510.73 1771.65C1511.45 1766.32 1511.95 1761.02 1513.79 1755.5C1513.72 1761.71 1512.14 1767.41 1515.01 1770.51C1516.4 1765.65 1517.8 1760.79 1518.04 1754.79C1520.09 1760.69 1519.81 1767.74 1520.44 1774.34C1521.25 1767.85 1521.91 1749.75 1524.96 1744C1524.66 1755.92 1524.59 1765.35 1527.59 1770.15C1530.57 1766.46 1530.82 1759.24 1530.89 1752.38C1532.99 1758.27 1534.4 1764.98 1534.54 1773.2C1535.37 1766.34 1536.33 1759.48 1538.71 1752.62C1538.16 1761.04 1538.59 1767.58 1540.59 1771.13C1541.91 1765.83 1543.04 1760.54 1543.39 1755.24C1545.16 1763.13 1544.64 1770.46 1545 1778H1499Z" fill="#CA6750"/>
<path d="M169.012 1789.21L166.322 1784.79C163.802 1780.64 162.171 1776.02 161.533 1771.21L160 1759.64C165.591 1776.27 171.235 1772.01 178.883 1780.72C177.074 1766.9 174.279 1753.63 170.065 1741.15C175.483 1751.77 181.632 1761.91 185.427 1773.6C184.238 1764.5 182.729 1755.54 183.307 1745.64C185.932 1755.91 185.861 1765.99 191.935 1769.84C192.062 1761.22 192.214 1752.61 189.952 1742.61C195.909 1751.43 198.561 1763.17 202.515 1773.77C200.977 1762.72 194.069 1732.61 196.514 1721.8C201.285 1741.56 205.333 1757.14 212.377 1763.73C215.619 1756.34 212.85 1744.33 209.936 1733C215.973 1741.78 221.244 1752.22 225.095 1765.71C223.425 1754.04 221.979 1742.31 222.846 1729.96C225.657 1744.07 229.251 1754.67 234.098 1759.64C233.929 1750.33 237.087 1740.08 235.318 1731.2C241.706 1743.43 244.086 1755.73 248 1768L169.012 1789.21Z" fill="#CA6750"/>
<defs>
<linearGradient id="paint0_linear_660_19272" x1="804" y1="2016.5" x2="1519.5" y2="170" gradientUnits="userSpaceOnUse">
<stop offset="0.17" stop-color="#F9E8BD"/>
<stop offset="0.41" stop-color="#F0C984"/>
<stop offset="0.73" stop-color="#ECA973"/>
<stop offset="1" stop-color="#E88475"/>
</linearGradient>
<linearGradient id="paint1_linear_660_19272" x1="924.401" y1="895" x2="990.5" y2="2494" gradientUnits="userSpaceOnUse">
<stop stop-color="#FCA57E"/>
<stop offset="1" stop-color="#F6966B"/>
</linearGradient>
</defs>
</svg>
