<svg width="1920" height="2160" viewBox="0 0 1920 2160" fill="none" xmlns="http://www.w3.org/2000/svg">
<rect width="1920" height="2160" fill="#B6DEE0"/>
<g filter="url(#filter0_f_655_9392)">
<circle cx="1419.5" cy="1015.5" r="415.5" fill="#A0D6D6"/>
</g>
<circle cx="1419.5" cy="1015.5" r="351.5" fill="#D0ECED"/>
<path d="M14.7409 1123.74L0 1145.22V1566.55H1920V1167.05L1859.5 1151.05L1854.08 1149.24C1828.12 1140.59 1800.39 1138.69 1773.5 1143.74L1734.5 1151.05L1665.89 1168.72C1655.98 1171.27 1646.35 1174.75 1637.11 1179.13L1527.5 1231.05L1448.19 1257.99C1431.51 1263.66 1414.01 1266.55 1396.4 1266.55H1321.38C1293.6 1266.55 1266.31 1273.73 1242.13 1287.4L1233.4 1292.34C1215.63 1302.39 1199.93 1315.72 1187.14 1331.63L1171.29 1351.37C1159.52 1366.01 1145.28 1378.48 1129.21 1388.21L1099.01 1406.51C1089.69 1412.16 1079.83 1416.84 1069.57 1420.49L993.189 1447.68C975.858 1453.85 957.598 1457 939.202 1457H917.873C881.683 1457 846.549 1444.81 818.139 1422.39L744.966 1364.65C734.364 1356.28 724.857 1346.61 716.668 1335.87L686.957 1296.91C670.202 1274.93 643.255 1263.21 615.755 1265.93C611.591 1266.34 607.467 1267.08 603.419 1268.14L542.685 1284.05L501.181 1297.71C467.966 1308.64 432.095 1308.46 398.991 1297.19L392.612 1295.02C382.893 1291.71 373.512 1287.48 364.598 1282.39L339.041 1267.79C325.42 1260 310.735 1254.25 295.451 1250.72L272.744 1245.46C258.646 1242.2 245.051 1237.05 232.328 1230.16L175.185 1199.2C158.705 1190.27 144.961 1177.03 135.421 1160.89L107.736 1114.07C94.8459 1092.27 67.0129 1084.58 44.761 1096.67C32.7578 1103.2 22.4703 1112.47 14.7409 1123.74Z" fill="#65BBBA"/>
<path d="M14.7409 1298.69L0 1320.17V1741.5H1920V1342L1859.5 1326L1854.08 1324.19C1828.12 1315.54 1800.39 1313.65 1773.5 1318.69L1734.5 1326L1665.89 1343.67C1655.98 1346.22 1646.35 1349.7 1637.11 1354.08L1527.5 1406L1448.19 1432.94C1431.51 1438.61 1414.01 1441.5 1396.4 1441.5H1321.38C1293.6 1441.5 1266.31 1448.68 1242.13 1462.35L1216.44 1476.88C1209.82 1480.62 1202.95 1483.89 1195.86 1486.66L1156.43 1502.09C1143.86 1507.01 1130.72 1510.33 1117.32 1511.97L1066.54 1518.18C1048.59 1520.38 1030.39 1519.53 1012.71 1515.68L929.132 1497.47C920.061 1495.49 911.178 1492.74 902.582 1489.23L828.5 1459L787.108 1440.15C752.189 1424.24 712.736 1421.33 675.86 1431.94L674.074 1432.45C664.711 1435.14 655.122 1436.98 645.427 1437.94L622.141 1440.25C613.727 1441.08 605.391 1442.58 597.212 1444.72L542.685 1459L501.181 1472.66C467.966 1483.59 432.095 1483.41 398.991 1472.14L392.612 1469.97C382.893 1466.67 373.512 1462.44 364.598 1457.34L339.041 1442.74C325.42 1434.95 310.735 1429.2 295.451 1425.67L272.744 1420.41C258.646 1417.15 245.051 1412.01 232.328 1405.11L175.185 1374.15C158.705 1365.22 144.961 1351.98 135.421 1335.84L107.736 1289.02C94.8459 1267.22 67.0129 1259.53 44.761 1271.62C32.7578 1278.15 22.4703 1287.42 14.7409 1298.69Z" fill="#216D69"/>
<path d="M76.2682 1497.91L67.6525 1502.6C40.6024 1517.3 17.4188 1538.2 0 1563.59V2092H1920V1536.5L1851.65 1496.88C1843.39 1492.09 1834.72 1488.05 1825.75 1484.8L1788.3 1471.23C1770.72 1464.85 1752.16 1461.59 1733.45 1461.59H1687.73L1626.07 1468.3C1602.86 1470.82 1580.47 1478.36 1560.47 1490.4L1497.46 1528.3L1393.52 1575.7L1279.01 1612.57L1234.54 1622.41C1211.61 1627.49 1187.85 1627.49 1164.92 1622.41L1136.94 1616.22C1125.98 1613.79 1115.3 1610.22 1105.08 1605.57L1063.47 1586.64C1047.54 1579.4 1030.54 1574.8 1013.12 1573.02L974.061 1569.04C939.3 1565.5 904.33 1573.36 874.43 1591.44L849.272 1606.66C842.766 1610.59 836.564 1615.01 830.717 1619.87L822.019 1627.09C778.935 1662.9 718.299 1668.61 669.289 1641.48C660.084 1636.38 651.502 1630.23 643.714 1623.16L613.922 1596.09C601.819 1585.09 587.403 1576.95 571.736 1572.27C552.727 1566.59 532.53 1566.19 513.312 1571.11L510.852 1571.74C491.292 1576.75 470.775 1576.68 451.251 1571.53L437.814 1567.99C426.72 1565.06 415.971 1560.96 405.75 1555.75L345.372 1524.96L269.618 1482.83L262.288 1479.05C233.887 1464.42 201.495 1459.41 170 1464.79C161.263 1466.28 152.678 1468.56 144.351 1471.6L93.5855 1490.1C87.6279 1492.28 81.8396 1494.89 76.2682 1497.91Z" fill="#155D64"/>
<path d="M220.148 2138.96L222.634 2146.16C224.391 2151.25 228.074 2155.44 232.89 2157.84C235.737 2159.26 238.875 2160 242.056 2160H785.283C787.456 2160 789.507 2159 790.839 2157.28C791.256 2156.74 791.593 2156.15 791.84 2155.51L793.569 2151.06C795.825 2145.26 796.686 2139.01 796.084 2132.81L795.613 2127.96C795.309 2124.83 794.76 2121.73 793.97 2118.68L791.277 2108.28C790.194 2104.1 788.042 2100.28 785.032 2097.18C782 2094.06 778.203 2091.78 774.019 2090.59L772.94 2090.28C767.006 2088.58 760.629 2088.84 754.837 2090.97C752.243 2091.92 749.771 2093.25 747.545 2094.88L742.764 2098.4C739.589 2100.73 736.614 2103.32 733.868 2106.15L728.774 2111.39L717.098 2126.42C716.549 2127.12 715.455 2126.42 715.866 2125.63L723.242 2106.65L732.462 2078.18L739.838 2047.34C743.513 2031.57 745.369 2015.44 745.369 1999.25V1985.66L743.78 1970.32C742.387 1956.88 739.201 1943.69 734.306 1931.09L730.306 1920.8C728.067 1915.04 725.003 1909.63 721.21 1904.75L715.671 1897.62C712.179 1893.13 707.53 1889.68 702.222 1887.63L701.102 1887.2C695.144 1884.9 688.579 1884.71 682.5 1886.66C678.964 1887.8 675.691 1889.63 672.872 1892.05L666.08 1897.88L665.5 1898.37C654.935 1907.43 646.346 1918.57 640.264 1931.09L625.772 1959.06C625.6 1959.39 625.462 1959.74 625.362 1960.1C623.716 1966.03 615.025 1965.05 614.744 1958.9L614.449 1952.44L610.761 1912.11L609.796 1906.83C605.532 1883.52 599.063 1860.66 590.478 1838.57L585.103 1824.74C582.553 1818.17 579.064 1812.02 574.744 1806.46L564.732 1793.58C562.284 1790.43 558.943 1788.09 555.145 1786.87L554.526 1786.67C549.269 1784.98 543.532 1785.73 538.887 1788.72C536.437 1790.3 534.394 1792.43 532.927 1794.95L528.133 1803.17C525.454 1807.77 523.419 1812.71 522.085 1817.86L519.239 1828.84C517.562 1835.32 516.349 1841.9 515.611 1848.55L513.032 1871.78V1900.25L513.616 1910.03C513.89 1914.61 507.662 1916.24 505.656 1912.11L492.748 1883.64L481.874 1864.4C479.293 1859.84 476.381 1855.47 473.161 1851.32C466.587 1842.87 458.787 1835.44 450.019 1829.28L442.962 1824.33L435.048 1820.26C428.102 1816.68 420.508 1814.54 412.718 1813.95L406.212 1813.46C397.752 1812.82 389.315 1814.95 382.18 1819.54C379.684 1821.15 377.379 1823.03 375.311 1825.16L375.096 1825.38C371.207 1829.39 368.162 1834.13 366.141 1839.33L364.212 1844.29C362.626 1848.37 361.439 1852.6 360.666 1856.91L356.296 1881.27L355.99 1885.99C354.966 1901.8 355.068 1917.67 356.296 1933.46L358.14 1954.81C359.127 1959.26 353.554 1962.11 350.531 1958.7L347.805 1955.63C347.324 1955.09 346.741 1954.65 346.089 1954.34L340.005 1951.4C334.95 1948.96 329.41 1947.7 323.797 1947.7C317.302 1947.7 310.919 1949.39 305.281 1952.62L304.373 1953.14C299.696 1955.81 295.589 1959.38 292.283 1963.63L290.053 1966.5C287.509 1969.77 285.313 1973.3 283.501 1977.03L283.122 1977.81C279.087 1986.12 276.789 1995.16 276.367 2004.38L275.215 2029.58C275.18 2030.34 275.278 2031.1 275.505 2031.83L275.779 2032.71C277.153 2037.13 273.259 2041.39 268.735 2040.42C268.107 2040.29 267.461 2040.26 266.822 2040.32L254.666 2041.63C248.767 2042.26 243.141 2044.44 238.361 2047.96C234.661 2050.68 231.558 2054.13 229.245 2058.1L227.149 2061.69C223.545 2067.88 221.214 2074.72 220.295 2081.82L218 2099.53V2126.17C218 2130.52 218.726 2134.85 220.148 2138.96Z" fill="#224C49"/>
<path d="M1534.47 2150H1919.99V1993.59V1972.5V1941.45V1909.09V1886.92C1919.99 1881.33 1919.55 1875.75 1918.66 1870.23L1917.55 1863.27C1916.5 1856.7 1914.4 1850.34 1911.34 1844.43C1908.22 1838.43 1904.15 1832.98 1899.28 1828.29L1890.89 1820.2C1887.76 1817.19 1883.88 1815.06 1879.65 1814.04L1878.47 1813.76C1873.75 1812.62 1868.79 1813.15 1864.42 1815.25C1861.5 1816.66 1858.94 1818.72 1856.95 1821.28L1853.42 1825.82C1850.35 1829.76 1847.95 1834.19 1846.31 1838.91L1844 1845.58C1842.22 1850.75 1840.91 1856.07 1840.11 1861.48L1839.23 1867.4C1838.13 1874.81 1837.58 1882.28 1837.58 1889.76V1900.1L1838.09 1906.38C1838.44 1910.87 1832.57 1912.86 1830.12 1909.09L1817.06 1887.51L1806.58 1873.63C1803.61 1869.71 1800.35 1866.02 1796.8 1862.61C1790.43 1856.47 1783.22 1851.26 1775.38 1847.14L1766.67 1842.56L1759.21 1839.69C1751.78 1836.83 1743.96 1835.14 1736.01 1834.69L1728.06 1834.24C1720.33 1833.8 1712.62 1835.34 1705.64 1838.7L1704.75 1839.13C1702.49 1840.22 1700.35 1841.54 1698.36 1843.07C1694.18 1846.29 1690.76 1850.38 1688.33 1855.06L1687.21 1857.22C1685.44 1860.62 1684.1 1864.23 1683.21 1867.95L1681.07 1876.87C1679.66 1882.76 1678.69 1888.74 1678.17 1894.78L1678.13 1895.19C1677.44 1903.24 1677.51 1911.33 1678.34 1919.36L1678.95 1925.27L1680.78 1941.12C1680.81 1941.34 1680.85 1941.55 1680.91 1941.77C1681.99 1945.41 1677.68 1948.24 1674.77 1945.79L1670.38 1942.09C1669.88 1941.66 1669.3 1941.33 1668.69 1941.11L1662.08 1938.72C1657.19 1936.96 1652.03 1936.05 1646.83 1936.05H1645.68C1639.31 1936.05 1633.01 1937.35 1627.15 1939.85C1621.92 1942.1 1617.13 1945.27 1613.02 1949.22L1611.78 1950.42C1609.29 1952.82 1607.08 1955.5 1605.2 1958.4C1600.94 1964.97 1598.45 1972.52 1597.97 1980.33L1596.9 1997.87C1596.86 1998.6 1596.98 1999.33 1597.26 2000.01C1598.71 2003.48 1595.78 2007.2 1592.06 2006.6L1590.08 2006.28C1589.61 2006.21 1589.13 2006.19 1588.66 2006.23L1574.57 2007.36C1569.56 2007.76 1564.7 2009.22 1560.31 2011.64C1556.09 2013.96 1552.39 2017.12 1549.43 2020.92L1548.86 2021.65C1544.82 2026.83 1542.13 2032.93 1541.01 2039.39L1539.94 2045.6C1539.3 2049.27 1538.98 2052.99 1538.98 2056.71V2058.47C1538.98 2070.21 1541.53 2081.81 1546.45 2092.47L1547.85 2095.17C1549.31 2097.99 1546.51 2101.12 1543.55 2099.98C1543 2099.77 1542.41 2099.7 1541.83 2099.78L1536.41 2100.53C1531.99 2101.14 1527.81 2102.93 1524.33 2105.73L1523.6 2106.32C1520.22 2109.03 1517.51 2112.5 1515.69 2116.44L1514.56 2118.89C1512.26 2123.87 1511.91 2129.52 1513.58 2134.75C1516.48 2143.83 1524.93 2150 1534.47 2150Z" fill="#224C49"/>
<path d="M1488.02 2161L1742.58 2161C1748.45 2161 1753.8 2157.67 1756.39 2152.41C1756.91 2151.36 1757.31 2150.25 1757.57 2149.1L1759.68 2140.07C1761.35 2132.92 1762.19 2125.6 1762.19 2118.26V2094.88L1760.75 2080.98C1759.48 2068.79 1756.6 2056.82 1752.16 2045.4L1748.53 2036.06C1746.5 2030.84 1743.72 2025.94 1740.29 2021.51L1735.26 2015.05C1732.1 2010.97 1727.88 2007.84 1723.07 2005.98L1722.05 2005.59C1716.65 2003.5 1710.7 2003.33 1705.19 2005.11C1701.98 2006.14 1699.02 2007.8 1696.46 2009.99L1690.3 2015.28L1689.78 2015.73C1680.2 2023.94 1672.41 2034.04 1666.9 2045.4L1653.76 2070.76C1653.6 2071.07 1653.48 2071.38 1653.39 2071.71C1651.9 2077.08 1644.02 2076.19 1643.76 2070.62L1643.49 2064.76L1640.15 2028.19L1639.28 2023.4C1635.41 2002.25 1629.55 1981.52 1621.76 1961.49L1616.89 1948.94C1614.58 1942.99 1611.41 1937.41 1607.5 1932.37L1598.42 1920.69C1596.2 1917.83 1593.17 1915.71 1589.73 1914.6L1589.17 1914.42C1584.4 1912.89 1579.2 1913.57 1574.99 1916.28C1572.77 1917.71 1570.92 1919.64 1569.59 1921.93L1565.24 1929.39C1562.81 1933.55 1560.97 1938.04 1559.76 1942.7L1557.18 1952.67C1555.66 1958.54 1554.56 1964.51 1553.89 1970.54L1551.55 1991.61V2017.43L1552.08 2026.3C1552.33 2030.45 1546.68 2031.93 1544.86 2028.19L1533.16 2002.37L1523.3 1984.92C1520.96 1980.78 1518.32 1976.81 1515.4 1973.06C1509.44 1965.39 1502.37 1958.65 1494.42 1953.07L1488.02 1948.58L1480.85 1944.88C1474.55 1941.64 1467.67 1939.7 1460.6 1939.16L1454.71 1938.71C1447.04 1938.13 1439.39 1940.07 1432.92 1944.23C1430.66 1945.69 1428.57 1947.4 1426.69 1949.33L1426.5 1949.53C1422.97 1953.16 1420.21 1957.46 1418.38 1962.18L1416.63 1966.68C1415.19 1970.38 1414.11 1974.21 1413.41 1978.12L1409.45 2000.21L1409.17 2004.5C1408.25 2018.84 1408.34 2033.22 1409.45 2047.55L1411.12 2066.91C1412.02 2070.94 1406.96 2073.53 1404.22 2070.44L1401.75 2067.66C1401.32 2067.17 1400.79 2066.77 1400.2 2066.48L1394.68 2063.82C1390.1 2061.61 1385.08 2060.46 1379.99 2060.46C1374.1 2060.46 1368.31 2062 1363.2 2064.92L1362.38 2065.39C1358.14 2067.82 1354.41 2071.05 1351.42 2074.91L1349.4 2077.51C1347.09 2080.48 1345.1 2083.68 1343.46 2087.06L1343.11 2087.77C1339.45 2095.3 1337.37 2103.5 1336.99 2111.87L1335.94 2134.72C1335.91 2135.41 1336 2136.1 1336.21 2136.76L1336.46 2137.57C1337.7 2141.57 1334.17 2145.44 1330.07 2144.56C1329.5 2144.43 1328.91 2144.4 1328.33 2144.46L1319.85 2145.38C1312.84 2146.13 1306.16 2148.72 1300.48 2152.9C1298.46 2154.38 1296.59 2156.05 1294.88 2157.89L1292 2161L1307.5 2161H1335.9H1361H1379L1395.5 2161L1409.45 2161L1429.51 2161H1460H1488.02Z" fill="#224C49"/>
<path d="M672 2158H804.553H857.752C862.505 2158 866.854 2155.33 869.002 2151.09C869.298 2150.5 869.548 2149.9 869.75 2149.27L874.766 2133.78L879.021 2115.98C881.142 2106.88 882.213 2097.57 882.213 2088.23V2080.38L881.296 2071.53C880.492 2063.77 878.654 2056.16 875.83 2048.89L873.522 2042.95C872.231 2039.62 870.463 2036.51 868.275 2033.69L865.078 2029.57C863.064 2026.98 860.382 2024.99 857.32 2023.81L856.674 2023.56C853.237 2022.23 849.449 2022.12 845.941 2023.25C843.902 2023.91 842.014 2024.96 840.388 2026.36L836.468 2029.72L836.135 2030.01C830.039 2035.24 825.083 2041.66 821.575 2048.89L813.213 2065.03C813.114 2065.22 813.035 2065.42 812.977 2065.63C812.028 2069.05 807.013 2068.49 806.851 2064.94L806.681 2061.21L804.553 2037.94L803.996 2034.89C801.536 2021.43 797.804 2008.24 792.851 1995.49L789.75 1987.51C788.279 1983.72 786.266 1980.17 783.775 1976.96L777.997 1969.53C776.585 1967.71 774.658 1966.36 772.467 1965.66L772.111 1965.54C769.077 1964.57 765.766 1965 763.087 1966.72C761.673 1967.63 760.495 1968.86 759.649 1970.32L756.882 1975.06C755.337 1977.72 754.163 1980.57 753.393 1983.54L751.751 1989.88C750.784 1993.62 750.084 1997.42 749.658 2001.25L748.17 2014.66V2031.09L748.508 2036.73C748.666 2039.38 745.072 2040.32 743.915 2037.94L736.468 2021.51L730.194 2010.4C728.705 2007.77 727.025 2005.24 725.168 2002.85C721.375 1997.97 716.875 1993.69 711.815 1990.13L707.745 1987.28L703.179 1984.93C699.171 1982.86 694.791 1981.62 690.296 1981.28L686.544 1981C681.662 1980.63 676.794 1981.86 672.678 1984.51C671.238 1985.44 669.908 1986.53 668.715 1987.76L668.591 1987.88C666.347 1990.19 664.591 1992.93 663.425 1995.93L662.312 1998.8C661.397 2001.15 660.712 2003.59 660.266 2006.08L657.745 2020.14L657.568 2022.86C656.977 2031.99 657.036 2041.14 657.745 2050.26L658.809 2062.58C659.378 2065.15 656.162 2066.79 654.417 2064.82L652.846 2063.05C652.568 2062.74 652.232 2062.49 651.856 2062.31L648.346 2060.61C645.43 2059.21 642.233 2058.47 638.995 2058.47C635.248 2058.47 631.566 2059.45 628.313 2061.31L627.788 2061.61C625.09 2063.16 622.721 2065.21 620.814 2067.67L619.527 2069.32C618.059 2071.21 616.792 2073.25 615.747 2075.4L615.528 2075.85C613.201 2080.65 611.875 2085.86 611.631 2091.19L610.967 2105.73C610.947 2106.17 611.003 2106.61 611.134 2107.03L611.293 2107.54C612.085 2110.09 609.838 2112.55 607.228 2111.99C606.866 2111.91 606.493 2111.89 606.124 2111.93L599.112 2112.68C595.708 2113.05 592.462 2114.31 589.704 2116.34C587.57 2117.91 585.78 2119.9 584.446 2122.19L583.235 2124.27C581.156 2127.83 579.812 2131.78 579.282 2135.88L577.958 2146.1V2146.46C577.958 2152.83 583.125 2158 589.5 2158H601H609.5H623.702H635H656.681H672Z" fill="#224C49"/>
<path d="M642 2160H1048.67C1051.55 2148.16 1053 2136.01 1053 2123.82V2109.35L1051.71 2095.95C1050.6 2084.42 1048.05 2073.07 1044.13 2062.17L1040.77 2052.86C1039.07 2048.15 1036.72 2043.71 1033.8 2039.65L1028.89 2032.84C1026.28 2029.22 1022.71 2026.4 1018.59 2024.68L1017.57 2024.26C1012.76 2022.26 1007.39 2022.09 1002.47 2023.8C999.7 2024.76 997.161 2026.28 995.011 2028.27L989.396 2033.46C980.675 2041.52 973.569 2051.34 968.688 2062.17L957.04 2086.4C956.917 2086.66 956.819 2086.93 956.749 2087.2C955.505 2092.03 948.432 2091.28 948.221 2086.3L947.98 2080.63L945.022 2045.76L944.212 2040.99C940.814 2020.97 935.64 2001.28 928.751 1982.18L924.255 1969.71C922.331 1964.37 919.672 1959.33 916.355 1954.73L907.895 1943C906.066 1940.46 903.5 1938.55 900.546 1937.53L900.193 1937.41C895.83 1935.89 891.008 1936.56 887.214 1939.19C885.349 1940.48 883.814 1942.19 882.734 1944.19L878.641 1951.76C876.557 1955.61 874.983 1959.72 873.959 1963.98L869.585 1982.18L866.627 2010.89V2035.51L867.109 2044.2C867.315 2047.91 862.235 2049.15 860.71 2045.76L850.356 2021.15L841.537 2004.33C839.53 2000.51 837.254 1996.83 834.727 1993.32C829.399 1985.93 822.995 1979.38 815.729 1973.89L810.419 1969.87L803.924 1966.27C798.456 1963.23 792.404 1961.4 786.172 1960.89L781.322 1960.5C774.313 1959.93 767.323 1961.8 761.544 1965.81C759.62 1967.15 757.857 1968.7 756.289 1970.44L755.901 1970.87C752.831 1974.27 750.453 1978.24 748.898 1982.55L747.208 1987.24C745.963 1990.7 745.033 1994.26 744.43 1997.88L740.899 2019.1L739.419 2043.71L740.899 2064.22L742.378 2082.69C743.143 2086.4 738.424 2088.66 736.013 2085.73L734.072 2083.38C733.696 2082.92 733.233 2082.55 732.709 2082.27L727.747 2079.69C723.754 2077.62 719.32 2076.53 714.819 2076.53C709.627 2076.53 704.538 2077.97 700.118 2080.7L699.064 2081.35C695.434 2083.58 692.282 2086.52 689.788 2089.98L687.674 2092.91C685.69 2095.66 683.989 2098.6 682.595 2101.69L682.149 2102.68C678.943 2109.8 677.125 2117.46 676.794 2125.26L675.855 2147.39C675.829 2148.01 675.903 2148.63 676.075 2149.22L676.482 2150.63C677.51 2154.2 674.33 2157.55 670.718 2156.72C670.176 2156.59 669.617 2156.56 669.065 2156.62L652.149 2158.58L642 2160Z" fill="#224C49"/>
<path d="M947.02 2158H1222.95L1224.74 2156.17C1229.61 2151.18 1233.09 2145 1234.81 2138.24C1235.6 2135.15 1236 2131.97 1236 2128.78V2106.72L1234.88 2095.87C1233.89 2086.35 1231.63 2077.01 1228.17 2068.1L1225.34 2060.82C1223.75 2056.74 1221.58 2052.91 1218.9 2049.46L1214.98 2044.42C1212.5 2041.24 1209.21 2038.79 1205.46 2037.34L1204.66 2037.03C1200.45 2035.41 1195.8 2035.27 1191.49 2036.66C1188.99 2037.46 1186.67 2038.76 1184.68 2040.47L1179.87 2044.59L1179.46 2044.95C1171.98 2051.36 1165.9 2059.24 1161.6 2068.1L1151.34 2087.89C1151.21 2088.13 1151.12 2088.38 1151.05 2088.63C1149.88 2092.83 1143.73 2092.13 1143.53 2087.78L1143.32 2083.21L1140.71 2054.67L1140.03 2050.93C1137.01 2034.43 1132.43 2018.25 1126.35 2002.62L1122.55 1992.83C1120.74 1988.19 1118.27 1983.83 1115.21 1979.9L1108.13 1970.78C1106.39 1968.55 1104.03 1966.9 1101.34 1966.03L1100.9 1965.89C1097.18 1964.69 1093.12 1965.23 1089.83 1967.34C1088.1 1968.46 1086.65 1969.97 1085.61 1971.75L1082.22 1977.57C1080.32 1980.82 1078.88 1984.32 1077.94 1987.96L1075.92 1995.74C1074.73 2000.32 1073.88 2004.98 1073.35 2009.68L1071.53 2026.12V2046.27L1071.94 2053.19C1072.13 2056.44 1067.73 2057.59 1066.31 2054.67L1057.17 2034.52L1049.47 2020.91C1047.64 2017.67 1045.58 2014.58 1043.3 2011.65C1038.65 2005.66 1033.13 2000.4 1026.92 1996.05L1021.92 1992.54L1016.32 1989.66C1011.4 1987.13 1006.03 1985.61 1000.51 1985.2L995.907 1984.85C989.919 1984.39 983.947 1985.91 978.896 1989.15C977.129 1990.29 975.497 1991.63 974.033 1993.13L973.881 1993.29C971.128 1996.12 968.972 1999.48 967.541 2003.16L966.176 2006.67C965.054 2009.56 964.213 2012.55 963.666 2015.6L960.572 2032.84L960.356 2036.18C959.631 2047.37 959.703 2058.6 960.572 2069.78L961.878 2084.89C962.577 2088.04 958.632 2090.05 956.492 2087.64L954.561 2085.47C954.221 2085.09 953.808 2084.78 953.347 2084.55L949.04 2082.48C945.462 2080.75 941.539 2079.85 937.566 2079.85C932.968 2079.85 928.45 2081.05 924.458 2083.34L923.816 2083.7C920.505 2085.6 917.597 2088.12 915.256 2091.13L913.679 2093.16C911.877 2095.48 910.323 2097.97 909.04 2100.61L908.772 2101.17C905.916 2107.04 904.289 2113.44 903.99 2119.97L903.175 2137.8C903.15 2138.34 903.219 2138.88 903.38 2139.4L903.573 2140.02C904.546 2143.15 901.79 2146.17 898.587 2145.48C898.142 2145.38 897.685 2145.36 897.233 2145.41L892.077 2145.96C885.642 2146.65 879.504 2149.03 874.29 2152.87L873.114 2153.73C871.381 2155.18 872.404 2158 874.662 2158H877.448H887.755H900.639H914.382H930.549H947.02Z" fill="#224C49"/>
<path d="M1039.13 2158H1381.79L1384.01 2155.73C1390.07 2149.53 1394.38 2141.85 1396.52 2133.45C1397.5 2129.61 1398 2125.66 1398 2121.7V2094.29L1396.6 2080.81C1395.38 2069 1392.58 2057.39 1388.27 2046.32L1384.76 2037.27C1382.79 2032.21 1380.1 2027.45 1376.76 2023.16L1371.89 2016.9C1368.82 2012.95 1364.73 2009.91 1360.07 2008.11L1359.08 2007.73C1353.85 2005.71 1348.07 2005.54 1342.73 2007.26C1339.62 2008.26 1336.75 2009.87 1334.27 2012L1328.3 2017.12L1327.79 2017.56C1318.5 2025.52 1310.95 2035.31 1305.6 2046.32L1292.86 2070.91C1292.71 2071.2 1292.59 2071.51 1292.5 2071.83C1291.05 2077.04 1283.41 2076.18 1283.17 2070.77L1282.91 2065.09L1279.66 2029.63L1278.82 2024.99C1275.07 2004.49 1269.38 1984.4 1261.83 1964.97L1257.11 1952.81C1254.87 1947.05 1251.8 1941.63 1248 1936.75L1239.2 1925.42C1237.05 1922.65 1234.11 1920.6 1230.77 1919.52L1230.23 1919.35C1225.61 1917.86 1220.56 1918.52 1216.48 1921.15C1214.32 1922.53 1212.53 1924.41 1211.24 1926.62L1207.02 1933.85C1204.67 1937.89 1202.88 1942.24 1201.71 1946.77L1199.21 1956.42C1197.73 1962.12 1196.67 1967.91 1196.02 1973.75L1193.75 1994.17V2019.2L1194.26 2027.8C1194.5 2031.83 1189.03 2033.26 1187.26 2029.63L1175.92 2004.6L1166.36 1987.69C1164.09 1983.68 1161.53 1979.83 1158.7 1976.19C1152.92 1968.75 1146.06 1962.22 1138.35 1956.81L1132.15 1952.46L1125.19 1948.88C1119.09 1945.73 1112.41 1943.85 1105.56 1943.33L1099.84 1942.9C1092.41 1942.33 1084.99 1944.21 1078.72 1948.25C1076.52 1949.66 1074.5 1951.32 1072.68 1953.19L1072.49 1953.38C1069.07 1956.9 1066.39 1961.07 1064.62 1965.64L1062.92 1970.01C1061.53 1973.6 1060.48 1977.31 1059.8 1981.1L1055.96 2002.52L1055.69 2006.67C1054.79 2020.57 1054.88 2034.52 1055.96 2048.41L1057.58 2067.18C1058.45 2071.09 1053.55 2073.59 1050.89 2070.6L1048.5 2067.9C1048.07 2067.42 1047.56 2067.04 1046.99 2066.76L1041.64 2064.18C1037.2 2062.03 1032.32 2060.92 1027.39 2060.92C1021.68 2060.92 1016.07 2062.41 1011.11 2065.25L1010.31 2065.7C1006.2 2068.05 1002.59 2071.19 999.686 2074.93L997.726 2077.45C995.489 2080.33 993.559 2083.43 991.966 2086.71L991.632 2087.4C988.085 2094.7 986.065 2102.65 985.694 2110.76L984.681 2132.91C984.651 2133.58 984.737 2134.25 984.937 2134.89L985.177 2135.67C986.385 2139.55 982.962 2143.3 978.985 2142.45C978.432 2142.33 977.865 2142.3 977.303 2142.36L970.9 2143.04C962.908 2143.9 955.287 2146.86 948.812 2151.62L947.351 2152.7C945.198 2154.49 946.47 2158 949.275 2158H952.733H965.533H981.532H998.599H1018.68H1039.13Z" fill="#224C49"/>
<path d="M0 2150.52L407 2148C407 2142.78 404.965 2137.76 401.327 2134.01L400.604 2133.27C397.848 2130.43 394.395 2128.36 390.59 2127.27L387.814 2126.48C380.99 2124.53 373.654 2124.82 366.993 2127.27C364.01 2128.37 361.168 2129.89 358.609 2131.77L347.623 2139.86L347.194 2140.16C342.252 2143.62 335.384 2140.81 334.295 2134.87C334.028 2133.41 334.156 2131.91 334.666 2130.52L341.261 2112.55L349.744 2077.06C353.971 2058.92 356.106 2040.35 356.106 2021.72V2006.07L354.278 1988.43C352.676 1972.96 349.012 1957.77 343.382 1943.28L338.78 1931.43C336.207 1924.8 332.685 1918.58 328.324 1912.97L321.948 1904.76C317.935 1899.59 312.59 1895.62 306.487 1893.26L305.198 1892.76C298.346 1890.11 290.794 1889.9 283.803 1892.15C279.737 1893.46 275.974 1895.56 272.734 1898.35L264.92 1905.05L264.258 1905.62C252.106 1916.05 242.226 1928.87 235.232 1943.28L218.564 1975.47C218.367 1975.85 218.209 1976.25 218.094 1976.66C216.202 1983.48 206.206 1982.35 205.883 1975.28L205.543 1967.85L201.302 1921.43L200.191 1915.36C195.288 1888.53 187.849 1862.22 177.976 1836.8L171.792 1820.87C168.861 1813.33 164.85 1806.25 159.884 1799.85L148.365 1785.02C145.551 1781.4 141.71 1778.71 137.344 1777.3L136.634 1777.07C130.586 1775.13 123.985 1775.99 118.643 1779.43C115.826 1781.25 113.479 1783.7 111.792 1786.59L106.276 1796.06C103.196 1801.35 100.856 1807.04 99.3227 1812.96L96.0486 1825.61C94.1197 1833.06 92.7256 1840.64 91.877 1848.28L88.9104 1875.02V1907.78L89.583 1919.04C89.8979 1924.31 82.7337 1926.18 80.4281 1921.43L65.5839 1888.67L53.0768 1866.53C50.109 1861.28 46.7609 1856.25 43.0594 1851.48L40.2219 1847.83C34.542 1840.51 27.8018 1834.09 20.2243 1828.77L8.89102 1820.81C8.51779 1820.55 8.18753 1820.23 7.91208 1819.87C5.36346 1816.5 0 1818.3 0 1822.52V2150.52Z" fill="#224C49"/>
<path d="M1092.23 1316.72V1304.47L1074 1314.54V1321.22C1074 1325.94 1074.58 1330.65 1075.72 1335.23L1076.38 1337.85C1078.71 1347.2 1083.75 1355.65 1090.87 1362.15C1094.73 1365.67 1099.13 1368.56 1103.9 1370.69L1124.23 1379.77L1141.94 1384.97C1148.68 1386.96 1155.02 1390.13 1160.66 1394.33C1167.54 1399.47 1173.23 1406.05 1177.32 1413.61L1180.7 1419.88C1183.96 1425.9 1188.2 1431.34 1193.25 1435.96L1197.57 1439.91C1201.01 1443.05 1204.09 1446.55 1206.78 1450.35L1215.39 1462.53L1220.04 1469.91C1222.88 1474.41 1225.1 1479.27 1226.63 1484.36L1227.05 1485.76C1228.45 1490.38 1229.15 1495.17 1229.15 1499.99C1229.15 1504.8 1228.62 1509.63 1227.57 1514.32C1225.42 1523.96 1224.83 1533.89 1225.83 1543.72L1226.56 1550.85C1228.27 1567.54 1226.06 1584.39 1220.13 1600.07L1216.88 1608.65L1207.95 1634H1267.11H1332.96H1353.43L1324.03 1596.35L1316.96 1552.74L1301.34 1527.39L1292.41 1515.83L1286.08 1489.37L1288.69 1467L1292.41 1444.63L1299.15 1426.04C1300.6 1422.06 1302.62 1418.3 1305.15 1414.9C1310.42 1407.8 1317.72 1402.47 1326.08 1399.61L1328.5 1398.78C1339.63 1394.07 1350.24 1388.22 1360.16 1381.3L1362.36 1379.77L1364.21 1378.67C1373.3 1373.25 1381.19 1366.03 1387.39 1357.46L1388.46 1355.99C1392.61 1350.26 1397.65 1345.23 1403.39 1341.08L1404.19 1340.51C1408.53 1337.37 1413.27 1334.84 1418.29 1332.98C1426.54 1329.92 1434 1325.06 1440.15 1318.76L1443.77 1315.04C1445.55 1313.22 1447.51 1311.58 1449.62 1310.15L1470.63 1295.9L1487.26 1284.09C1489.81 1282.27 1492.22 1280.26 1494.46 1278.07L1500.84 1271.83C1504.74 1268.01 1508.11 1263.68 1510.84 1258.95L1519 1244.83L1503.74 1241.47C1507.34 1252.46 1498.83 1263.65 1487.29 1263.12L1474.95 1262.55C1467.08 1262.19 1459.49 1265.55 1454.48 1271.63L1449.04 1278.22C1447.33 1280.29 1446.09 1282.7 1445.4 1285.29L1444.04 1290.41C1441.79 1298.85 1435.91 1305.85 1427.99 1309.53C1426.16 1310.38 1424.42 1311.42 1422.8 1312.62L1410.73 1321.62L1407.26 1323.64C1399.02 1328.44 1392 1335.09 1386.75 1343.06L1385.94 1344.3C1384.61 1346.32 1383.11 1348.23 1381.46 1350.01L1376.12 1355.77C1371.74 1360.49 1366.14 1363.91 1359.94 1365.65C1355.64 1366.85 1351.61 1368.87 1348.07 1371.59L1347.62 1371.94C1341.01 1377.02 1332.91 1379.77 1324.57 1379.77H1316.96L1309.15 1382.19C1304.33 1383.69 1300.69 1387.68 1299.65 1392.62L1298.97 1395.86C1298.57 1397.77 1297.65 1399.53 1296.31 1400.96L1291.1 1406.49C1288.65 1409.1 1284.35 1408.51 1282.69 1405.34C1282.23 1404.46 1282.03 1403.48 1282.11 1402.5L1283.93 1379.97C1284.12 1377.61 1284.67 1375.3 1285.54 1373.1L1286.13 1371.64C1287.78 1367.5 1287.95 1362.91 1286.6 1358.66C1286.26 1357.58 1286.01 1356.46 1285.86 1355.34L1285.69 1354.05C1284.74 1346.79 1286.16 1339.42 1289.76 1333.03L1289.96 1332.68C1291.58 1329.79 1293.61 1327.15 1295.98 1324.83L1308.78 1312.3L1313.91 1307.54C1320.65 1301.28 1327.85 1295.53 1335.44 1290.34L1340.4 1286.95L1357.15 1276.51L1377.98 1266.08L1382.76 1264.09C1393.88 1259.49 1404.1 1252.97 1412.96 1244.83L1387.29 1237L1386.54 1238.29C1377.57 1253.72 1364.15 1266.08 1348.04 1273.76C1344.2 1275.59 1340.49 1277.7 1336.94 1280.07L1313.24 1295.9L1296.37 1310.99C1293.82 1313.27 1290.51 1314.54 1287.09 1314.54C1283.84 1314.54 1280.74 1313.16 1278.56 1310.76L1267.11 1298.13L1265.78 1296.22C1257.77 1284.63 1251.37 1272 1246.75 1258.69L1244.78 1253.03L1226.18 1274.28L1232.88 1281.36L1244.78 1298.13L1250.01 1306.43C1252.39 1310.2 1253.23 1314.73 1252.35 1319.1C1250.93 1326.22 1245.24 1331.7 1238.07 1332.86L1233.44 1333.6C1230.64 1334.05 1227.77 1333.69 1225.17 1332.57L1215.39 1328.33C1208.98 1324.05 1204.62 1317.31 1203.33 1309.71L1200.51 1292.92L1188.97 1294.41L1192.8 1323.49C1193.22 1326.67 1194.35 1329.73 1196.11 1332.42C1198.94 1336.75 1203.25 1339.91 1208.24 1341.31L1218.26 1344.13C1220.55 1344.78 1222.78 1345.65 1224.91 1346.75L1225.9 1347.26C1232.09 1350.44 1236.95 1355.71 1239.62 1362.13L1241.5 1366.66C1243.67 1371.87 1244.78 1377.46 1244.78 1383.1V1395.46C1244.78 1399.28 1240.67 1401.69 1237.34 1399.82L1235.48 1398.78L1221.71 1374.55L1211.49 1361.98C1207.45 1357.01 1202.28 1353.1 1196.4 1350.56C1191.5 1348.43 1187.07 1345.35 1183.38 1341.48L1180.99 1338.97C1175.94 1333.66 1171.96 1327.44 1169.27 1320.62L1163.5 1306L1145.07 1314.54L1161.81 1335.78L1167.76 1345.1C1171.46 1349.79 1175.92 1353.81 1180.97 1357L1186.84 1360.71C1189.25 1362.23 1191.77 1363.56 1194.39 1364.67L1201.51 1367.71C1205.72 1369.5 1209.37 1372.41 1212.06 1376.11C1215.19 1380.43 1216.88 1385.63 1216.88 1390.96V1397.06C1216.88 1406.29 1221.48 1414.91 1229.15 1420.03L1242.1 1427.44C1243.76 1428.39 1244.78 1430.15 1244.78 1432.06C1244.78 1435.79 1241.05 1438.36 1237.56 1437.03L1231.24 1434.62C1229.87 1434.09 1228.63 1433.28 1227.61 1432.22L1207.95 1411.83L1185.62 1382.75C1177.48 1369.66 1167.39 1357.89 1155.7 1347.84L1155.11 1347.34C1144.3 1336.5 1135.63 1323.71 1129.58 1309.65L1129.44 1309.32H1112.32L1112.97 1311.25C1115.24 1318.08 1118.94 1324.36 1123.81 1329.66L1129.44 1335.78L1134.04 1341.5C1136.73 1344.84 1136.52 1349.66 1133.55 1352.75C1131.08 1355.32 1127.27 1356.09 1124 1354.67L1112.39 1349.63C1108.91 1348.12 1105.8 1345.89 1103.25 1343.08L1101.78 1341.47C1095.64 1334.69 1092.23 1325.87 1092.23 1316.72Z" fill="#155D64"/>
<path d="M891.179 1261.43L887.582 1260.67C883.617 1259.84 880.24 1257.26 878.396 1253.65C874.913 1246.83 877.828 1238.49 884.798 1235.33L886.793 1234.42C887.854 1233.94 888.856 1233.34 889.783 1232.63L893.523 1229.79C899.374 1225.33 906.526 1222.91 913.882 1222.91C918.201 1222.91 922.48 1222.08 926.484 1220.46L934.203 1217.34L940.969 1214.19C950.828 1209.61 961.181 1206.17 971.823 1203.95L1016.61 1196.85C1018.04 1196.63 1019.48 1196.51 1020.92 1196.51H1021.9C1032.41 1196.51 1041.88 1190.21 1045.95 1180.53L1047.88 1176.66C1051.22 1170 1056.63 1164.6 1063.29 1161.27C1066.36 1159.74 1069.64 1158.67 1073.02 1158.11L1090.78 1155.16C1093.4 1154.72 1096.08 1154.73 1098.7 1155.18L1106.32 1156.51C1114.27 1157.89 1121.93 1152.87 1123.84 1145.04C1124.06 1144.16 1124.35 1143.3 1124.72 1142.47L1128.8 1133.23C1130.43 1129.57 1132.39 1126.07 1134.66 1122.76L1136.89 1119.52C1138.58 1117.07 1140.58 1114.85 1142.84 1112.91L1148.06 1108.45C1150.91 1106.01 1154.53 1104.67 1158.28 1104.67C1163.7 1104.67 1168.74 1101.87 1171.61 1097.27L1173.43 1094.35C1174.84 1092.08 1176.66 1090.09 1178.79 1088.47L1188.2 1081.34C1193.16 1077.58 1198.66 1074.61 1204.53 1072.52C1212.45 1069.69 1220.87 1068.54 1229.26 1069.13L1258.63 1071.21L1283.45 1074.48C1289.34 1075.25 1294.8 1077.94 1299 1082.13C1301.37 1084.5 1304.15 1086.4 1307.21 1087.74L1311.17 1089.48C1317.44 1092.23 1324.66 1091.66 1330.41 1087.94C1332.69 1086.47 1334.66 1084.55 1336.19 1082.31L1339.53 1077.42C1343.63 1071.4 1349.23 1066.55 1355.77 1063.34L1362.82 1059.88C1366.04 1058.3 1368.69 1055.76 1370.41 1052.62C1372.97 1047.92 1377.55 1044.68 1382.83 1043.81L1397.19 1041.46L1408.96 1039.48C1418.6 1037.85 1428.5 1038.55 1437.82 1041.51C1445.43 1043.94 1452.49 1047.81 1458.61 1052.93L1476.9 1068.23L1477.91 1069.17C1495.39 1085.44 1516.3 1097.57 1539.1 1104.67L1555.93 1109.4C1561.62 1111 1565.55 1116.19 1565.55 1122.1V1123.72C1565.55 1126.28 1564.51 1128.73 1562.66 1130.5C1558.91 1134.1 1558.8 1140.06 1562.4 1143.8L1562.94 1144.35C1564.62 1146.1 1566.88 1147.19 1569.29 1147.41L1620.68 1152.27L1634.7 1155.58C1638.67 1156.51 1641.78 1159.59 1642.77 1163.54C1643.83 1167.76 1642.28 1172.2 1638.84 1174.85L1632.35 1179.83C1630.78 1181.03 1629.07 1182.03 1627.24 1182.8L1617.98 1186.74C1616.11 1187.53 1614.56 1188.93 1613.59 1190.72C1610.77 1195.91 1613.62 1202.35 1619.35 1203.76L1633.71 1207.3L1646.59 1211.38C1653.29 1213.5 1658.66 1218.54 1661.21 1225.08C1663.62 1231.27 1663.26 1238.19 1660.23 1244.1L1659.87 1244.81C1658.1 1248.26 1655.55 1251.25 1652.43 1253.55L1644.51 1259.35L1636.86 1265.04C1633.01 1267.89 1632.08 1273.27 1634.74 1277.25C1636.42 1279.77 1636.72 1282.97 1635.54 1285.76L1631.79 1294.57C1628.75 1301.72 1622.75 1307.19 1615.35 1309.56L1597.95 1315.13L1569.85 1320.1C1564.79 1320.99 1559.61 1320.95 1554.56 1319.99L1544.32 1318.04C1534.95 1316.25 1527.38 1309.35 1524.74 1300.19L1524.49 1299.32C1522.87 1293.71 1523.44 1287.69 1526.09 1282.49C1530.54 1273.76 1528.97 1263.17 1522.18 1256.1L1521.53 1255.42C1518.18 1251.93 1513.85 1249.51 1509.11 1248.49L1499.14 1246.34C1492.32 1244.86 1485.28 1244.64 1478.37 1245.68L1460.09 1248.44C1452.93 1249.52 1445.7 1250.06 1438.47 1250.06C1422.48 1250.06 1406.61 1247.42 1391.48 1242.24L1388.25 1241.13L1363.85 1236.37C1358.58 1235.35 1353.62 1233.12 1349.36 1229.87L1339.93 1222.7C1336.16 1219.83 1331.18 1219.11 1326.75 1220.8C1323.21 1222.15 1320.39 1224.9 1318.96 1228.41L1317.39 1232.23C1315.06 1237.93 1310.57 1242.47 1304.89 1244.86L1299.48 1247.13C1294.89 1249.06 1289.96 1250.06 1284.98 1250.06H1272.65C1262.53 1250.06 1252.49 1253.07 1243.99 1258.58C1238.7 1262.01 1234.01 1266.43 1230.31 1271.54C1225.66 1277.95 1219.59 1283.2 1212.57 1286.87L1203.92 1291.38C1200.68 1293.07 1197.21 1294.28 1193.62 1294.97L1181.47 1297.29C1176.62 1298.21 1172.58 1301.52 1170.71 1306.08C1168.47 1311.55 1163.14 1315.13 1157.22 1315.13H1149.97C1146.7 1315.13 1143.47 1314.5 1140.44 1313.27L1138.13 1312.34C1133.58 1310.5 1128.72 1309.55 1123.81 1309.55H1115.61C1112.64 1309.55 1109.68 1309.15 1106.81 1308.37C1099.02 1306.25 1090.74 1307.01 1083.47 1310.51L1079.23 1312.56C1075.68 1314.26 1072.36 1316.42 1069.36 1318.97L1068.59 1319.62C1060.7 1326.32 1050.7 1330 1040.35 1330H1039.33C1030.57 1330 1022.04 1327.16 1015.03 1321.91L1014.26 1321.34C1013.04 1320.42 1011.89 1319.41 1010.82 1318.31C1005.42 1312.71 997.972 1309.55 990.192 1309.55H989.025C981.529 1309.55 974.281 1306.87 968.586 1302L968.285 1301.74C962.396 1296.7 954.9 1293.93 947.149 1293.93H933.698C927.022 1293.93 920.535 1291.72 915.249 1287.64L912.101 1285.22C908.804 1282.67 906.452 1279.1 905.42 1275.06C903.659 1268.18 898.137 1262.89 891.179 1261.43Z" fill="#155D64"/>
<path d="M1133.88 1827.06V1816.91L1149 1825.26V1830.79C1149 1834.71 1148.52 1838.61 1147.57 1842.41L1147.03 1844.57C1145.1 1852.32 1140.91 1859.33 1135.01 1864.71C1131.81 1867.63 1128.16 1870.02 1124.21 1871.79L1107.35 1879.32L1092.66 1883.63C1087.07 1885.27 1081.82 1887.9 1077.15 1891.38C1071.43 1895.64 1066.72 1901.1 1063.33 1907.37L1060.52 1912.55C1057.82 1917.55 1054.3 1922.05 1050.11 1925.88L1047.41 1928.35C1043.98 1931.49 1040.89 1934.98 1038.21 1938.78L1031.76 1947.9L1027.9 1954.02C1025.55 1957.75 1023.71 1961.77 1022.43 1965.99L1022.08 1967.15C1020.93 1970.98 1020.34 1974.95 1020.34 1978.94C1020.34 1982.93 1020.78 1986.93 1021.65 1990.82C1023.44 1998.81 1023.93 2007.04 1023.1 2015.18L1022.72 2018.87C1021.16 2034.16 1023.18 2049.6 1028.62 2063.97L1030.53 2068.99L1037.93 2090H988.874H934.264H917.295L941.669 2058.8L947.531 2022.66L960.489 2001.65L967.894 1992.07L973.139 1970.14L970.979 1951.6L967.894 1933.07L962.3 1917.66C961.099 1914.36 959.423 1911.25 957.325 1908.42C952.956 1902.54 946.905 1898.13 939.974 1895.76L937.967 1895.07C928.736 1891.17 919.937 1886.31 911.714 1880.59L909.89 1879.32L908.35 1878.4C900.817 1873.91 894.278 1867.93 889.131 1860.83L888.249 1859.61C884.804 1854.86 880.623 1850.69 875.864 1847.25L875.206 1846.78C871.607 1844.18 867.672 1842.08 863.509 1840.54C856.669 1838 850.479 1833.98 845.385 1828.75L842.38 1825.67C840.906 1824.16 839.282 1822.81 837.535 1821.62L820.109 1809.81L806.978 1800.49C804.423 1798.67 802.014 1796.66 799.773 1794.47L796.066 1790.85C792.161 1787.03 788.796 1782.7 786.063 1777.97L780 1767.49L792.65 1764.71C789.669 1773.81 796.718 1783.08 806.287 1782.64L816.534 1782.17C823.058 1781.87 829.343 1784.66 833.502 1789.7L838.014 1795.16C839.43 1796.87 840.459 1798.87 841.032 1801.02L842.158 1805.25C844.022 1812.25 848.898 1818.06 855.466 1821.11C856.984 1821.81 858.426 1822.67 859.768 1823.67L869.782 1831.12L872.656 1832.8C879.491 1836.78 885.312 1842.29 889.66 1848.89L890.335 1849.92C891.44 1851.6 892.683 1853.18 894.05 1854.65L898.472 1859.42C902.105 1863.34 906.752 1866.18 911.898 1867.61C915.463 1868.61 918.804 1870.28 921.739 1872.54L922.112 1872.82C927.591 1877.03 934.308 1879.32 941.218 1879.32H947.531L954.01 1881.32C958.009 1882.56 961.023 1885.87 961.885 1889.97L962.448 1892.65C962.781 1894.23 963.545 1895.7 964.655 1896.87L968.976 1901.46C971.014 1903.63 974.576 1903.14 975.953 1900.5C976.332 1899.78 976.498 1898.96 976.432 1898.15L974.92 1879.48C974.762 1877.53 974.312 1875.61 973.585 1873.79L973.099 1872.58C971.728 1869.14 971.591 1865.34 972.71 1861.82C972.995 1860.92 973.201 1860 973.323 1859.07L973.463 1858C974.254 1851.99 973.071 1845.87 970.091 1840.59L969.927 1840.29C968.578 1837.9 966.897 1835.71 964.934 1833.79L954.319 1823.4L951.795 1821.06C945.054 1814.8 937.855 1809.06 930.26 1803.87L928.094 1802.4L914.21 1793.75L896.932 1785.1L892.966 1783.45C883.752 1779.63 875.278 1774.23 867.931 1767.49L889.219 1761L889.834 1762.06C897.272 1774.85 908.4 1785.1 921.762 1791.46C924.95 1792.98 928.025 1794.73 930.963 1796.69L950.616 1809.81L964.606 1822.32C966.723 1824.21 969.464 1825.26 972.304 1825.26C974.997 1825.26 977.565 1824.12 979.375 1822.12L988.874 1811.66C996.244 1801 1002.14 1789.39 1006.39 1777.15L1007.39 1774.28L1022.81 1791.89L1017.26 1797.76L1007.39 1811.66L1003.05 1818.54C1001.08 1821.66 1000.38 1825.42 1001.11 1829.04C1002.28 1834.94 1007 1839.48 1012.94 1840.44L1016.79 1841.06C1019.11 1841.43 1021.49 1841.13 1023.64 1840.2L1031.76 1836.69C1037.08 1833.14 1040.69 1827.55 1041.75 1821.25L1044.1 1807.34L1053.66 1808.57L1050.49 1832.67C1050.14 1835.31 1049.2 1837.84 1047.75 1840.07C1045.4 1843.67 1041.82 1846.28 1037.69 1847.45L1029.38 1849.78C1027.47 1850.32 1025.63 1851.04 1023.87 1851.95L1023.04 1852.37C1017.91 1855.01 1013.88 1859.38 1011.67 1864.7L1010.11 1868.45C1008.31 1872.77 1007.39 1877.4 1007.39 1882.08V1890.86C1007.39 1894.68 1011.5 1897.09 1014.83 1895.22L1015.1 1895.07L1026.51 1874.99L1034.99 1864.57C1038.34 1860.46 1042.63 1857.21 1047.5 1855.11C1051.57 1853.35 1055.24 1850.79 1058.3 1847.58L1059.89 1845.91C1064.32 1841.26 1067.7 1835.69 1069.77 1829.61L1071.25 1825.26H1090.07L1076.19 1842.86L1071.25 1850.59C1068.19 1854.47 1064.49 1857.81 1060.3 1860.45L1055.43 1863.52C1053.43 1864.78 1051.34 1865.88 1049.17 1866.81L1043.26 1869.32C1039.77 1870.81 1036.75 1873.21 1034.52 1876.28C1031.92 1879.86 1030.53 1884.17 1030.53 1888.59V1893.64C1030.53 1901.29 1026.7 1908.43 1020.34 1912.68L1009.61 1918.82C1008.23 1919.61 1007.39 1921.07 1007.39 1922.65C1007.39 1925.74 1010.48 1927.87 1013.37 1926.77L1018.62 1924.77C1019.75 1924.33 1020.78 1923.66 1021.63 1922.78L1037.93 1905.88L1056.44 1881.79C1063.19 1870.94 1071.56 1861.18 1081.25 1852.86L1081.74 1852.44C1090.71 1843.46 1097.89 1832.86 1102.91 1821.2L1103.03 1820.93H1117.22C1114.98 1827.65 1111.35 1833.82 1106.55 1839.03L1103.03 1842.86L1099.22 1847.6C1096.99 1850.37 1097.16 1854.36 1099.62 1856.93C1101.67 1859.06 1104.83 1859.69 1107.54 1858.52L1117.16 1854.34C1120.05 1853.09 1122.63 1851.24 1124.75 1848.91L1125.96 1847.57C1131.06 1841.96 1133.88 1834.65 1133.88 1827.06Z" fill="#224C49"/>
<path d="M1301.08 1781.13L1304.07 1780.5C1307.36 1779.81 1310.16 1777.67 1311.69 1774.68C1314.58 1769.03 1312.16 1762.1 1306.38 1759.48L1304.72 1758.73C1303.85 1758.33 1303.01 1757.84 1302.25 1757.25L1299.14 1754.89C1294.29 1751.19 1288.35 1749.19 1282.25 1749.19C1278.66 1749.19 1275.11 1748.5 1271.79 1747.15L1265.39 1744.56L1259.77 1741.96C1251.59 1738.15 1243 1735.3 1234.17 1733.46L1197.01 1727.57C1195.82 1727.39 1194.63 1727.29 1193.43 1727.29H1192.61C1183.9 1727.29 1176.04 1722.07 1172.67 1714.03L1171.06 1710.83C1168.29 1705.3 1163.8 1700.82 1158.27 1698.06C1155.73 1696.79 1153.01 1695.91 1150.2 1695.44L1135.46 1692.99C1133.29 1692.63 1131.07 1692.64 1128.9 1693.02L1122.56 1694.12C1115.97 1695.26 1109.62 1691.1 1108.03 1684.6C1107.85 1683.87 1107.61 1683.16 1107.31 1682.47L1103.91 1674.81C1102.57 1671.77 1100.94 1668.87 1099.06 1666.13L1097.2 1663.44C1095.8 1661.41 1094.14 1659.56 1092.26 1657.96L1087.93 1654.25C1085.57 1652.23 1082.57 1651.12 1079.46 1651.12C1074.96 1651.12 1070.77 1648.8 1068.39 1644.98L1066.89 1642.56C1065.71 1640.68 1064.21 1639.03 1062.44 1637.69L1054.63 1631.78C1050.52 1628.66 1045.95 1626.19 1041.08 1624.46C1034.51 1622.11 1027.52 1621.16 1020.56 1621.65L996.19 1623.37L975.59 1626.08C970.71 1626.72 966.177 1628.96 962.693 1632.43C960.728 1634.39 958.417 1635.97 955.876 1637.08L952.593 1638.53C947.395 1640.81 941.398 1640.33 936.628 1637.25C934.735 1636.03 933.105 1634.44 931.834 1632.58L929.067 1628.52C925.66 1623.53 921.016 1619.5 915.59 1616.84L909.736 1613.97C907.067 1612.66 904.869 1610.56 903.443 1607.95C901.315 1604.06 897.512 1601.37 893.134 1600.65L881.218 1598.7L871.452 1597.05C863.449 1595.7 855.24 1596.28 847.506 1598.74C841.195 1600.75 835.335 1603.97 830.254 1608.22L815.078 1620.9L814.246 1621.68C799.739 1635.17 782.384 1645.24 763.464 1651.12L749.499 1655.05C744.781 1656.38 741.52 1660.68 741.52 1665.58V1666.92C741.52 1669.04 742.386 1671.07 743.918 1672.54C747.029 1675.53 747.124 1680.47 744.13 1683.58L743.687 1684.03C742.289 1685.48 740.419 1686.38 738.415 1686.57L695.779 1690.6L684.14 1693.34C680.848 1694.12 678.264 1696.67 677.442 1699.95C676.566 1703.44 677.849 1707.13 680.709 1709.32L686.092 1713.45C687.394 1714.45 688.816 1715.28 690.327 1715.92L698.017 1719.18C699.57 1719.84 700.854 1721.01 701.66 1722.49C703.999 1726.79 701.637 1732.14 696.884 1733.31L684.961 1736.24L674.269 1739.62C668.718 1741.38 664.261 1745.56 662.146 1750.98C660.146 1756.12 660.441 1761.86 662.957 1766.76L663.258 1767.35C664.726 1770.21 666.84 1772.69 669.432 1774.59L675.999 1779.41L682.353 1784.12C685.545 1786.49 686.318 1790.95 684.11 1794.25C682.713 1796.34 682.464 1799 683.448 1801.31L686.555 1808.62C689.075 1814.55 694.053 1819.08 700.189 1821.05L714.632 1825.66L737.955 1829.79C742.151 1830.53 746.447 1830.5 750.633 1829.7L759.142 1828.08C766.912 1826.6 773.191 1820.88 775.383 1813.28L775.592 1812.55C776.934 1807.9 776.459 1802.91 774.261 1798.6C770.573 1791.36 771.874 1782.57 777.503 1776.71L778.044 1776.15C780.829 1773.25 784.417 1771.25 788.346 1770.4L796.621 1768.61C802.285 1767.39 808.124 1767.21 813.854 1768.07L829.03 1770.36C834.968 1771.25 840.964 1771.7 846.968 1771.7C860.232 1771.7 873.405 1769.51 885.955 1765.22L888.636 1764.3L908.881 1760.35C913.251 1759.5 917.367 1757.65 920.91 1754.96L928.73 1749.01C931.857 1746.63 935.992 1746.03 939.664 1747.43C942.601 1748.55 944.943 1750.84 946.133 1753.75L947.429 1756.92C949.363 1761.64 953.093 1765.41 957.8 1767.39L962.296 1769.28C966.104 1770.88 970.193 1771.7 974.323 1771.7H984.558C992.957 1771.7 1001.29 1774.2 1008.34 1778.76C1012.73 1781.61 1016.62 1785.28 1019.69 1789.52C1023.54 1794.83 1028.58 1799.19 1034.41 1802.22L1041.59 1805.97C1044.27 1807.37 1047.15 1808.38 1050.13 1808.94L1060.22 1810.87C1064.24 1811.63 1067.59 1814.38 1069.14 1818.16C1071 1822.7 1075.43 1825.66 1080.33 1825.66H1086.35C1089.06 1825.66 1091.75 1825.14 1094.26 1824.13L1096.17 1823.35C1099.95 1821.82 1103.98 1821.04 1108.06 1821.04H1114.86C1117.33 1821.04 1119.79 1820.71 1122.17 1820.06C1128.62 1818.31 1135.5 1818.94 1141.53 1821.84L1145.05 1823.53C1148 1824.95 1150.75 1826.74 1153.24 1828.85L1153.88 1829.39C1160.42 1834.95 1168.73 1838 1177.31 1838H1178.16C1185.43 1838 1192.5 1835.65 1198.32 1831.29L1198.95 1830.82C1199.97 1830.06 1200.93 1829.21 1201.81 1828.3C1206.29 1823.66 1212.47 1821.04 1218.93 1821.04H1219.9C1226.12 1821.04 1232.13 1818.82 1236.86 1814.78L1237.11 1814.56C1241.99 1810.38 1248.21 1808.09 1254.64 1808.09H1265.81C1271.35 1808.09 1276.73 1806.25 1281.11 1802.87L1283.73 1800.86C1286.46 1798.75 1288.41 1795.78 1289.27 1792.44C1290.73 1786.73 1295.31 1782.34 1301.08 1781.13Z" fill="#224C49"/>
<path d="M0 2160L0 1883.5C5.78493 1975.86 14.768 2082.4 41.8269 2137.2C51.4612 2064.31 55.3322 1992.87 50.9084 1923.5C63.9993 1985.02 81.4693 2045.09 84.8441 2109.85C91.2026 2061.84 95.7355 2014.14 112.185 1964.46C111.531 2020.41 97.4303 2071.65 123.085 2099.6C135.495 2055.82 148.013 2012.15 150.135 1958.1C168.424 2011.19 165.906 2074.66 171.586 2134.05C178.823 2075.64 184.724 1912.77 211.918 1861C209.244 1968.25 208.598 2053.18 235.476 2096.34C262.042 2063.15 264.337 1998.13 264.951 1936.43C283.705 1989.42 296.298 2049.79 297.501 2123.8C304.918 2062.05 313.552 2000.3 334.809 1938.55C329.867 2014.32 333.705 2073.24 351.597 2105.19C363.429 2057.51 373.527 2009.84 376.636 1962.16C392.474 2033.2 391.313 2092.12 394.5 2160H0Z" fill="#093301"/>
<path d="M393.487 2160L433.206 1861.31C441.017 1985.96 438.461 2086.05 475 2160C488.01 2061.63 492.726 2008.98 486.752 1915.36C504.43 1998.39 527.943 2072.6 532.5 2160C541.086 2095.21 547.285 2037.69 569.498 1970.64C568.616 2046.15 549.574 2115.31 584.217 2153.03C600.975 2093.95 617.879 2035 620.745 1962.06C645.441 2033.71 641.33 2079.85 649 2160C658.773 2081.17 667.453 1900.88 704.174 1831C700.563 1975.76 699.69 2090.38 735.986 2148.63C771.86 2103.84 774.959 2016.08 775.788 1932.8C801.113 2004.32 817.375 2060.11 819 2160C829.016 2076.66 841.417 2019.01 870.122 1935.67C863.448 2037.93 868.631 2117.46 892.792 2160.57C908.769 2096.23 905.5 2037 946 1969.5C907.183 2082.5 981.987 2125.5 948.487 2160H393.487Z" fill="#093301"/>
<path d="M926.901 2160L947.145 1998.93C951.244 2064.42 949.328 2120.61 968.5 2159.47C975.326 2107.78 978.375 2076.51 975.241 2027.32C984.516 2070.95 996.894 2113.55 999.285 2159.47C1003.79 2125.43 1007 2091.6 1018.66 2056.37C1018.19 2096.04 1008.2 2132.38 1026.38 2152.2C1035.17 2121.16 1044.04 2090.19 1045.55 2051.86C1058.5 2089.51 1056.98 2117.89 1061 2160C1066.13 2118.58 1070.05 2019.72 1089.32 1983C1087.43 2059.06 1086.97 2119.28 1106.01 2149.89C1124.84 2126.35 1126.46 2080.24 1126.9 2036.49C1140.18 2074.07 1148.65 2107.52 1149.5 2160C1154.76 2116.21 1161.33 2081.78 1176.39 2038C1172.89 2091.73 1175.61 2133.51 1188.29 2156.16C1196.67 2122.36 1194.96 2091.24 1216.21 2055.77C1195.84 2115.14 1238.58 2141.87 1221 2160H926.901Z" fill="#093301"/>
<path d="M1554.42 1986.38L1532 2155H1570.12L1574.6 2068.44L1580.21 1978.51L1595.9 1848.12L1609.36 1740.2V1709.85L1601.51 1658.14L1609.36 1607.56L1618.33 1570.46L1643 1521H1626.18L1609.36 1563.72L1590.3 1535.5L1580.21 1542.36L1601.51 1570.46L1595.9 1607.56L1540.97 1563.72V1577.21L1580.21 1615.43V1649.15L1590.3 1689.62L1520.5 1670L1501.44 1671.65L1590.3 1707L1580.21 1826.76L1576.94 1841.17C1575.67 1846.78 1569.95 1850.16 1564.43 1848.58L1561.72 1847.8C1560.04 1847.32 1558.25 1847.98 1557.28 1849.43L1556.2 1851.06C1555.16 1852.62 1555.37 1854.69 1556.69 1856.01C1567.93 1867.28 1573.01 1883.29 1570.33 1898.97L1567.87 1913.32L1554.42 1986.38Z" fill="#224C49" stroke="#224C49"/>
<path d="M1406.05 1766.7L1415.06 1748.35C1417.34 1743.72 1420.43 1739.54 1424.2 1736.01L1429.57 1730.98C1434.02 1726.81 1439.89 1724.49 1445.99 1724.49C1448.92 1724.49 1451.84 1723.95 1454.57 1722.9C1464.36 1719.16 1475.46 1722.13 1482.04 1730.27L1482.92 1731.36C1485.25 1734.24 1488.16 1736.59 1491.47 1738.26L1503.41 1744.27C1508.44 1746.8 1513.81 1748.61 1519.36 1749.63L1521.97 1750.11C1534.55 1752.43 1547.55 1750.06 1558.51 1743.45C1560.83 1742.05 1563.04 1740.47 1565.12 1738.73L1566.92 1737.22C1572.55 1732.5 1578.77 1728.55 1585.44 1725.48L1599.04 1719.21C1602.75 1717.5 1606.78 1716.62 1610.86 1716.62C1621.56 1716.62 1631.34 1722.66 1636.12 1732.22L1636.27 1732.52C1639.14 1738.24 1643.86 1742.86 1649.64 1745.62C1659.93 1750.53 1672.2 1749.01 1680.93 1741.69L1694.74 1730.11L1705.06 1723.24C1711.62 1718.87 1719 1715.88 1726.75 1714.45L1730.8 1713.7C1740.29 1711.94 1750.09 1713.25 1758.79 1717.41L1762.8 1719.34C1769.75 1722.67 1775.32 1728.31 1778.56 1735.3L1779.13 1736.51C1782.56 1743.91 1782.84 1752.39 1779.9 1760C1778 1764.91 1777.43 1770.24 1778.24 1775.45L1778.47 1776.98C1779.78 1785.38 1778.06 1793.98 1773.61 1801.23L1772.76 1802.61C1768.99 1808.76 1763.63 1813.78 1757.25 1817.14L1753.7 1819.02C1748.21 1821.92 1742.26 1823.86 1736.12 1824.77L1727.18 1826.09C1719.25 1827.26 1711.88 1830.84 1706.05 1836.34L1702.82 1839.38C1697.63 1844.27 1690.76 1847 1683.63 1847C1679.09 1847 1674.63 1845.9 1670.61 1843.79L1659.8 1838.11C1656.86 1836.56 1654.32 1834.36 1652.37 1831.67C1645.78 1822.56 1633.29 1820.05 1623.69 1825.9L1620.43 1827.89C1613.26 1832.9 1604.31 1834.63 1595.79 1832.64L1588.28 1830.89C1579.85 1828.93 1571.04 1829.28 1562.79 1831.9L1559.56 1832.92C1553.64 1834.8 1547.47 1835.76 1541.26 1835.76H1529.24H1516.81C1508.03 1835.76 1499.44 1838.36 1492.13 1843.22C1488.37 1845.73 1484.25 1847.64 1479.91 1848.91L1457.76 1855.36C1452.88 1856.79 1447.89 1857.81 1442.85 1858.43L1424.07 1860.73C1412.15 1862.19 1400.12 1859.01 1390.47 1851.85L1387.79 1849.86C1379.3 1843.56 1373.73 1834.08 1372.37 1823.59C1370.59 1809.9 1376.19 1796.3 1387.08 1787.82L1391.94 1784.04C1397.9 1779.41 1402.73 1773.48 1406.05 1766.7Z" fill="#224C49"/>
<path d="M1349.7 1625.04L1354.54 1617.46C1359.5 1609.7 1368.08 1605 1377.29 1605C1384.05 1605 1390.56 1602.46 1395.54 1597.9L1396.14 1597.35C1399.52 1594.24 1403.59 1591.98 1408.01 1590.75L1414.75 1588.88C1419.18 1587.65 1423.85 1587.59 1428.31 1588.7L1429.79 1589.07C1438.51 1591.25 1447.72 1588.39 1453.66 1581.65C1458.22 1576.47 1464.79 1573.5 1471.7 1573.5H1483.05C1489.14 1573.5 1495.14 1574.92 1500.58 1577.64C1505.5 1580.1 1509.84 1583.57 1513.33 1587.82L1522.24 1598.68C1528.68 1606.53 1539.02 1610.03 1548.91 1607.72L1552.17 1606.95C1557.47 1605.71 1563.08 1606.81 1567.54 1609.93C1577 1616.55 1590.19 1613.35 1595.46 1603.08C1597.08 1599.92 1599.55 1597.28 1602.59 1595.45L1615.62 1587.63C1618.81 1585.71 1621.85 1583.55 1624.71 1581.17L1633.9 1573.5L1650.68 1561.74C1660.74 1554.69 1672.38 1550.22 1684.57 1548.71L1690.21 1548.02C1695.72 1547.34 1701.28 1547.31 1706.79 1547.94L1726.02 1550.11C1731.1 1550.68 1735.78 1553.12 1739.16 1556.96C1744.54 1563.07 1753 1565.43 1760.76 1563L1786.5 1554.94C1794.8 1552.34 1803.55 1551.52 1812.19 1552.51L1828.31 1554.38L1847.68 1557.97C1854.82 1559.29 1861.4 1562.75 1866.53 1567.89C1874.95 1576.32 1878.64 1588.38 1876.38 1600.08L1874.72 1608.66C1873.75 1613.69 1872.05 1618.55 1869.66 1623.09L1868.05 1626.15C1864.06 1633.74 1858.79 1640.6 1852.48 1646.41L1843.29 1654.88C1837.09 1660.58 1829.98 1665.21 1822.24 1668.55L1793.59 1680.94C1787.54 1683.55 1781.18 1685.36 1774.66 1686.31L1745.7 1690.54C1735.79 1691.98 1725.68 1690.61 1716.52 1686.58L1715.87 1686.29C1707.1 1682.43 1697.42 1681.12 1687.93 1682.53L1684.27 1683.07C1676.35 1684.25 1668.99 1687.82 1663.17 1693.32L1659.93 1696.38C1654.76 1701.27 1647.91 1704 1640.79 1704C1636.26 1704 1631.8 1702.9 1627.8 1700.79L1617.01 1695.1C1614.07 1693.55 1611.54 1691.35 1609.6 1688.66L1606.44 1684.28C1601.64 1677.64 1592.54 1675.8 1585.54 1680.08C1580.71 1683.04 1574.65 1683.16 1569.7 1680.38L1560.62 1675.29C1553.48 1671.29 1544.54 1672.62 1538.87 1678.52C1535.02 1682.53 1529.52 1684.53 1523.99 1683.93L1511.21 1682.56C1504.85 1681.88 1498.46 1683.68 1493.39 1687.59C1489.04 1690.93 1483.71 1692.75 1478.22 1692.75H1464.94C1462.21 1692.75 1459.49 1693.02 1456.82 1693.55C1448.47 1695.23 1440.83 1699.44 1434.97 1705.62L1433.87 1706.77C1429.34 1711.54 1423.85 1715.28 1417.77 1717.77L1412.58 1719.89C1405.17 1722.91 1397.11 1723.99 1389.17 1723.01C1376.12 1721.41 1364.35 1714.4 1356.72 1703.7L1352.29 1697.47C1341.04 1681.68 1337.53 1661.65 1342.74 1642.97L1344.48 1636.74C1345.63 1632.6 1347.39 1628.66 1349.7 1625.04Z" fill="#224C49"/>
<path d="M1399.87 1423.75L1404.81 1422.95C1410.47 1422.04 1416.23 1423.8 1420.4 1427.73L1422.3 1429.52C1428.26 1435.15 1437.56 1435.21 1443.6 1429.66C1445.41 1428 1447.6 1426.78 1449.98 1426.12L1459.83 1423.38C1464.26 1422.15 1468.93 1422.09 1473.38 1423.2L1474.85 1423.57C1483.57 1425.75 1492.78 1422.89 1498.72 1416.15C1503.29 1410.97 1509.85 1408 1516.76 1408H1526.55C1533.65 1408 1540.66 1409.66 1547.02 1412.84L1547.76 1413.21C1551.3 1414.98 1555.03 1416.32 1558.88 1417.2L1559.55 1417.35C1571.38 1420.04 1583.77 1418.74 1594.78 1413.65L1601.39 1410.6C1605.09 1408.89 1609.11 1408 1613.19 1408H1620.53C1626.7 1408 1632.33 1411.49 1635.09 1417.01C1639.33 1425.5 1649.9 1428.57 1658.03 1423.69L1661.61 1421.54C1664.12 1420.03 1666.92 1419.09 1669.83 1418.78L1678.2 1417.88C1689.74 1416.64 1701.06 1421.69 1707.85 1431.1L1709.82 1433.84C1710.91 1435.35 1712.28 1436.64 1713.85 1437.64L1715.79 1438.87C1720.49 1441.87 1726.64 1441.19 1730.57 1437.25L1732.57 1435.38C1741.2 1427.32 1754.32 1426.49 1763.89 1433.41C1766.37 1435.2 1768.5 1437.44 1770.16 1440.01L1771.45 1442.02C1776.73 1450.19 1777.17 1460.57 1772.6 1469.15C1771.54 1471.13 1770.25 1472.96 1768.75 1474.61L1747.42 1498L1742.23 1504.06C1736.81 1510.4 1729.76 1515.15 1721.85 1517.79C1718.69 1518.84 1715.42 1519.55 1712.1 1519.9L1704.64 1520.69C1698.8 1521.3 1692.9 1520.48 1687.45 1518.3L1679.86 1515.26C1672.34 1512.25 1663.77 1513.57 1657.5 1518.7C1656.04 1519.9 1654.44 1520.9 1652.73 1521.69L1649.43 1523.22C1643.88 1525.78 1637.5 1525.85 1631.9 1523.39C1626.09 1520.85 1619.45 1521.02 1613.78 1523.86L1610.02 1525.74C1608.02 1526.74 1606.13 1527.97 1604.39 1529.39L1588.59 1542.34C1584.47 1545.72 1579.45 1547.91 1574.17 1548.66C1564.58 1550.03 1556.2 1556.15 1552.06 1564.91L1550.93 1567.3C1549.4 1570.54 1547.01 1573.29 1544.01 1575.25C1538.14 1579.11 1530.64 1579.5 1524.39 1576.27L1496.48 1561.84C1491.55 1559.29 1486.29 1557.43 1480.85 1556.31C1464.08 1552.85 1446.61 1556.64 1432.78 1566.74L1430.98 1568.06C1429.66 1569.02 1428.27 1569.88 1426.82 1570.62C1411.4 1578.6 1392.42 1572.69 1384.24 1557.38L1380.53 1550.44C1379.49 1548.48 1378.28 1546.62 1376.92 1544.86L1371.61 1538C1359.72 1522.62 1358.18 1501.62 1367.7 1484.67C1370.69 1479.35 1372.64 1473.52 1373.46 1467.49L1376.1 1448.11C1377.8 1435.65 1387.45 1425.75 1399.87 1423.75Z" fill="#224C49"/>
<path d="M1165.13 2160L1193.68 1935.28C1198.8 2017.08 1196.79 2111.47 1220.75 2160C1229.29 2095.45 1232.72 2032.18 1228.8 1970.75C1240.39 2025.23 1255.86 2078.43 1258.85 2135.78C1264.48 2093.27 1268.5 2051.02 1283.07 2007.02C1282.49 2056.57 1270 2101.95 1292.72 2126.7C1303.71 2087.93 1314.8 2049.26 1316.68 2001.39C1332.87 2048.41 1330.64 2104.62 1335.68 2157.21C1342.09 2105.48 1347.31 1961.25 1371.4 1915.39C1369.03 2010.38 1368.45 2085.59 1392.26 2123.81C1415.79 2094.42 1417.82 2036.84 1418.36 1982.19C1434.97 2029.12 1446.13 2082.59 1447.19 2148.14C1453.76 2093.45 1461.41 2038.76 1480.23 1984.08C1475.86 2051.18 1479.26 2103.36 1495.1 2131.65C1505.58 2089.43 1514.52 2047.21 1517.28 2004.99C1531.3 2067.9 1526.3 2099.88 1529.13 2160H1165.13Z" fill="#093301"/>
<path d="M1447 2160L1488.21 1825.31C1496.02 1949.96 1491.46 2081.05 1528 2155C1541.01 2056.63 1547.73 1972.98 1541.75 1879.36C1559.43 1962.39 1583.02 2043.46 1587.58 2130.86C1596.16 2066.07 1602.29 2001.69 1624.5 1934.64C1623.62 2010.15 1604.57 2079.31 1639.22 2117.03C1655.97 2057.95 1672.88 1999 1675.74 1926.06C1700.44 1997.71 1696.83 2079.35 1704.5 2159.5C1714.27 2080.67 1722.45 1864.88 1759.17 1795C1755.56 1939.76 1754.69 2054.38 1790.99 2112.63C1826.86 2067.84 1829.96 1980.08 1830.79 1896.8C1856.11 1968.32 1873.12 2049.81 1874.74 2149.69C1884.76 2066.35 1891.29 1979.84 1920 1896.5C1920 1999 1920 2115 1920 2160H1447Z" fill="#093301"/>
<path d="M410.424 1737.38L388 1906H426.121L430.606 1819.44L436.212 1729.51L451.909 1599.12L465.364 1491.2V1460.85L457.515 1409.14L465.364 1358.56L474.333 1321.46L499 1272H482.182L474.611 1291.23C470.775 1300.97 457.491 1302.22 451.909 1293.36H436.212L444.26 1303.97C452.735 1315.15 456.333 1329.29 454.236 1343.16L452.944 1351.71C452.484 1354.75 448.901 1356.16 446.494 1354.24L396.97 1314.72V1328.21L436.212 1366.43V1400.15L446.303 1440.62L423.879 1426L410.5 1437C436.193 1458.08 448.953 1491.08 444.12 1523.96L436.212 1577.76L432.009 1596.3C431.247 1599.66 427.818 1601.69 424.505 1600.74L416.315 1598.4C415.478 1598.16 414.581 1598.49 414.099 1599.21L410.98 1603.9C410.657 1604.39 410.721 1605.03 411.133 1605.45C423.349 1617.7 428.874 1635.1 425.959 1652.15L423.879 1664.32L410.424 1737.38Z" fill="#224C49" stroke="#224C49"/>
<path d="M250.002 1506.09L250.996 1503.36C253.561 1496.32 258.853 1490.6 265.679 1487.5C274.447 1483.53 284.647 1484.35 292.662 1489.68L296.664 1492.35L301.095 1495.82C308.17 1501.37 317.557 1503 326.09 1500.16C328.23 1499.45 330.272 1498.47 332.168 1497.25L343.444 1489.96C346.768 1487.82 349.782 1485.22 352.402 1482.26C360.629 1472.95 372.455 1467.62 384.879 1467.62H386.041C393.159 1467.62 400.181 1469.27 406.55 1472.45L407.295 1472.83C410.837 1474.59 414.578 1475.93 418.439 1476.81L419.113 1476.96C430.969 1479.65 443.381 1478.35 454.423 1473.26L461.041 1470.21C464.748 1468.5 468.782 1467.62 472.864 1467.62C483.558 1467.62 493.335 1473.66 498.124 1483.22L498.273 1483.52C501.139 1489.24 505.864 1493.86 511.641 1496.62C521.927 1501.53 534.196 1500.01 542.93 1492.69L556.737 1481.11L567.061 1474.24C573.62 1469.87 580.997 1466.88 588.746 1465.45L593.705 1464.53C602.605 1462.89 611.798 1464.11 619.961 1468.02L623.302 1469.62C631.157 1473.38 640.166 1473.95 648.43 1471.2C655.41 1468.88 662.959 1468.91 669.919 1471.29L683.488 1475.94C693.378 1479.32 702.179 1485.3 708.972 1493.24L719.492 1505.55C730.417 1518.32 731.432 1536.83 721.968 1550.73C719.908 1553.75 717.412 1556.46 714.563 1558.75L708.574 1563.58C696.145 1573.61 681.253 1580.11 665.453 1582.41L650.725 1584.55C640.806 1585.99 630.681 1584.62 621.504 1580.59L620.851 1580.3C612.062 1576.44 602.363 1575.14 592.868 1576.55L589.177 1577.09C581.252 1578.26 573.877 1581.84 568.048 1587.34L564.821 1590.38C559.629 1595.27 552.762 1598 545.626 1598C541.092 1598 536.626 1596.9 532.612 1594.79L521.805 1589.11C518.863 1587.56 516.318 1585.36 514.37 1582.67C507.779 1573.56 495.291 1571.05 485.693 1576.9L482.43 1578.89C475.264 1583.9 466.309 1585.63 457.794 1583.64L450.276 1581.89C441.846 1579.93 433.041 1580.28 424.791 1582.9L421.559 1583.92C415.64 1585.8 409.466 1586.76 403.255 1586.76H391.236H375.484C368.87 1586.76 362.403 1588.72 356.897 1592.38C351.391 1596.04 344.924 1598 338.31 1598H334.819C326.791 1598 318.908 1595.86 311.986 1591.79L303.419 1586.76L281.501 1572.69C275.134 1568.61 269.428 1563.57 264.58 1557.77L262.34 1555.08C257.5 1549.28 253.861 1542.58 251.636 1535.36L249.444 1528.25C247.209 1521 247.405 1513.22 250.002 1506.09Z" fill="#224C49"/>
<path d="M213.758 1340.73L221.717 1339.45C227.376 1338.54 233.138 1340.3 237.31 1344.24L239.209 1346.02C245.177 1351.65 254.473 1351.71 260.514 1346.16C262.333 1344.5 264.521 1343.28 266.9 1342.62L276.754 1339.88C281.182 1338.65 285.852 1338.59 290.31 1339.7L291.787 1340.07C300.507 1342.25 309.717 1339.39 315.661 1332.65C320.225 1327.47 326.795 1324.5 333.698 1324.5H343.497C350.605 1324.5 357.615 1326.16 363.971 1329.34L364.717 1329.71C368.251 1331.48 371.986 1332.82 375.84 1333.7L376.509 1333.85C388.343 1336.54 400.735 1335.24 411.752 1330.15L418.359 1327.1C422.061 1325.39 426.09 1324.5 430.168 1324.5H437.51C443.679 1324.5 449.318 1327.99 452.075 1333.51C456.315 1342 466.889 1345.08 475.024 1340.19L478.605 1338.04C481.114 1336.53 483.92 1335.59 486.83 1335.28L503.961 1333.44C510.544 1332.73 517.003 1331.16 523.172 1328.76L534.106 1324.5L564.447 1311L581.841 1306.02C591.134 1303.37 600.854 1302.53 610.465 1303.56L619.645 1304.55C624.786 1305.1 629.97 1305.12 635.115 1304.6L653.045 1302.81C658.393 1302.27 663.783 1302.31 669.122 1302.93L690.307 1305.38L709.678 1308.97C716.823 1310.29 723.398 1313.75 728.534 1318.89C736.955 1327.32 740.645 1339.38 738.383 1351.08L736.724 1359.66C735.752 1364.69 734.046 1369.55 731.661 1374.09L730.055 1377.15C726.061 1384.74 720.793 1391.6 714.48 1397.41L705.29 1405.88C699.092 1411.58 691.976 1416.21 684.241 1419.55L655.589 1431.94C649.543 1434.55 643.18 1436.36 636.663 1437.31L607.697 1441.54C597.793 1442.98 587.683 1441.61 578.524 1437.58L577.874 1437.29C569.102 1433.43 559.416 1432.12 549.935 1433.53L546.271 1434.07C538.352 1435.25 530.986 1438.82 525.17 1444.32L521.935 1447.38C516.761 1452.27 509.911 1455 502.79 1455C498.264 1455 493.805 1453.9 489.801 1451.79L479.009 1446.1C476.074 1444.55 473.537 1442.35 471.596 1439.66C465.019 1430.54 452.53 1428.03 442.941 1433.9L439.711 1435.88C432.56 1440.89 423.613 1442.61 415.111 1440.63L394.76 1435.88L373.213 1433.56C366.848 1432.88 360.465 1434.68 355.392 1438.59C351.044 1441.93 345.711 1443.75 340.223 1443.75H328.096C324.601 1443.75 321.114 1444.1 317.687 1444.78C309.981 1446.32 302.029 1446.14 294.406 1444.23L279.014 1440.38L275.942 1439.24C263.957 1434.82 251.037 1433.56 238.422 1435.56L222.074 1438.17C213.195 1439.58 204.117 1437.44 196.805 1432.21C189.037 1426.66 183.946 1418.11 182.763 1408.63L180.737 1392.41C179.603 1383.33 181.118 1374.12 185.1 1365.88L187.965 1359.95C192.911 1349.72 202.539 1342.55 213.758 1340.73Z" fill="#224C49"/>
<path d="M261.872 1174.75L266.811 1173.95C272.469 1173.04 278.229 1174.8 282.4 1178.73L284.298 1180.52C290.263 1186.15 299.558 1186.21 305.596 1180.66C307.414 1179 309.602 1177.78 311.98 1177.12L321.83 1174.38C326.256 1173.15 330.926 1173.09 335.382 1174.2L336.855 1174.57C345.574 1176.75 354.782 1173.89 360.724 1167.15C365.286 1161.97 371.855 1159 378.756 1159H388.549C395.655 1159 402.662 1160.66 409.016 1163.84L409.762 1164.21C413.295 1165.98 417.029 1167.32 420.882 1168.2L421.55 1168.35C433.38 1171.04 445.768 1169.74 456.78 1164.65L463.385 1161.6C467.086 1159.89 471.114 1159 475.191 1159H482.528C488.696 1159 494.334 1162.49 497.089 1168.01C501.328 1176.5 511.901 1179.57 520.034 1174.69L523.611 1172.54C526.118 1171.03 528.924 1170.09 531.833 1169.78L540.202 1168.88C551.745 1167.64 563.064 1172.69 569.854 1182.1L571.824 1184.84C572.915 1186.35 574.283 1187.64 575.855 1188.64L577.788 1189.87C582.486 1192.87 588.635 1192.19 592.572 1188.25L594.575 1186.38C603.199 1178.32 616.325 1177.49 625.891 1184.41C628.371 1186.2 630.495 1188.44 632.156 1191.01L633.451 1193.02C638.728 1201.19 639.166 1211.57 634.595 1220.15C633.545 1222.13 632.251 1223.96 630.746 1225.61L609.423 1249L604.233 1255.06C598.808 1261.4 591.762 1266.15 583.849 1268.79C580.687 1269.84 577.42 1270.55 574.105 1270.9L566.64 1271.69C560.8 1272.3 554.899 1271.48 549.448 1269.3L541.863 1266.26C534.338 1263.25 525.769 1264.57 519.499 1269.7C518.044 1270.9 516.443 1271.9 514.735 1272.69L511.426 1274.22C505.879 1276.78 499.499 1276.85 493.902 1274.39C488.091 1271.85 481.448 1272.02 475.776 1274.86L472.025 1276.74C470.016 1277.74 468.126 1278.97 466.388 1280.39L450.586 1293.34C446.467 1296.72 441.447 1298.91 436.175 1299.66C426.576 1301.03 418.204 1307.15 414.058 1315.91L412.927 1318.3C411.397 1321.54 409.005 1324.29 406.014 1326.25C400.137 1330.11 392.635 1330.5 386.39 1327.27L358.482 1312.84C353.551 1310.29 348.289 1308.43 342.852 1307.31C326.077 1303.85 308.612 1307.64 294.78 1317.74L292.978 1319.06C291.661 1320.02 290.273 1320.88 288.824 1321.62C273.395 1329.6 254.424 1323.69 246.239 1308.38L242.531 1301.44C241.486 1299.48 240.279 1297.62 238.923 1295.86L233.613 1289C221.723 1273.62 220.184 1252.62 229.704 1235.67C232.688 1230.35 234.643 1224.52 235.465 1218.49L238.103 1199.11C239.8 1186.65 249.45 1176.75 261.872 1174.75Z" fill="#224C49"/>
<path d="M1744.89 1543.22L1763.14 1535.87C1769.38 1533.36 1771.63 1525.67 1767.74 1520.19C1762.67 1513.04 1754.45 1508.8 1745.69 1508.8H1738.28C1736.82 1508.8 1735.36 1508.99 1733.94 1509.37L1693.31 1520.23C1685.22 1522.39 1676.78 1522.93 1668.48 1521.83L1646.67 1518.94C1643.43 1518.51 1640.31 1517.42 1637.51 1515.73C1630.39 1511.43 1626.04 1503.71 1626.04 1495.39V1488.24L1609.65 1494.98C1597.64 1499.93 1584.76 1502.47 1571.77 1502.47C1563.96 1502.47 1556.17 1501.55 1548.58 1499.73L1527.52 1494.69C1527.26 1494.63 1527.14 1494.33 1527.28 1494.11L1542.95 1468.57C1554.26 1450.15 1568.32 1433.58 1584.65 1419.41C1598.56 1407.35 1613.98 1397.15 1630.53 1389.07L1636.46 1386.18C1650.44 1379.36 1665.01 1373.8 1679.98 1369.56L1707.78 1361.69L1742.42 1356.41C1753.81 1354.67 1765.42 1355.1 1776.65 1357.67C1788.27 1360.32 1799.25 1365.22 1808.99 1372.08L1825.68 1383.84V1371.18L1774.99 1252.67C1773.17 1248.41 1772.23 1243.83 1772.23 1239.21V1229.5C1772.23 1220.59 1777.93 1212.67 1786.38 1209.84L1770.8 1193.24C1763.64 1185.61 1759.66 1175.54 1759.66 1165.08C1759.66 1158.12 1757.89 1151.28 1754.53 1145.19L1744.6 1127.2C1744.33 1126.71 1744.74 1126.13 1745.3 1126.21L1771.75 1130.37C1786.69 1132.72 1801.31 1136.8 1815.32 1142.52C1834.68 1150.44 1852.64 1161.41 1868.52 1175.02L1870.53 1176.75C1881.47 1186.13 1891.43 1196.6 1900.25 1208.01L1920 1233.56V1648L1896.96 1640.27C1888.03 1637.28 1878.18 1639.84 1871.84 1646.8C1867.29 1651.79 1863.5 1657.42 1860.58 1663.51L1852.21 1681.01C1847.12 1691.66 1840.86 1701.72 1833.55 1710.99L1817.22 1731.71C1811.35 1739.15 1804.68 1745.93 1797.33 1751.92L1793.42 1755.1C1783.94 1762.83 1769.8 1760.27 1763.63 1749.71C1761.98 1746.89 1757.83 1747.14 1756.53 1750.14L1747.5 1771.04C1745.18 1776.42 1741.32 1781.01 1736.42 1784.22L1707.78 1803.02L1687 1820.94C1686.44 1821.42 1685.56 1821.15 1685.38 1820.42L1681.06 1803.02L1671.46 1762.63C1666.4 1741.33 1666.29 1719.15 1671.15 1697.81L1681.06 1654.33L1691.72 1621.17C1696.11 1607.5 1702.54 1594.57 1710.79 1582.81L1730.62 1554.54C1734.18 1549.47 1739.14 1545.53 1744.89 1543.22Z" fill="#01342B"/>
<path d="M169.686 1499.09L148.409 1507.76C145.008 1509.15 142.784 1512.46 142.784 1516.13C142.784 1518.29 143.756 1520.34 145.432 1521.7L151.654 1526.78C155.955 1530.28 161.335 1532.2 166.884 1532.2L177.025 1532.2C180.059 1532.2 183.087 1531.94 186.075 1531.42L226.904 1524.28C232.893 1523.24 238.961 1522.71 245.04 1522.71L268.623 1522.71C272.6 1522.71 276.499 1523.81 279.892 1525.88L285.452 1529.28C288.416 1531.09 290.224 1534.32 290.224 1537.79C290.224 1544.91 297.469 1549.74 304.041 1547L319.505 1540.56C322.715 1539.22 326.159 1538.53 329.637 1538.53L343.797 1538.53C351.51 1538.53 359.196 1539.45 366.692 1541.27L388 1546.44L371.426 1573.79C360.81 1591.3 347.578 1607.1 332.191 1620.62C317.726 1633.33 301.657 1644.08 284.395 1652.61L279.994 1654.79C266.149 1661.63 251.716 1667.21 236.871 1671.47L209.52 1679.31L175.365 1684.58C164.095 1686.32 152.596 1685.9 141.486 1683.32C130.047 1680.67 119.241 1675.8 109.682 1668.98L93.12 1657.16L93.12 1669.82L139.928 1780.67C143.861 1789.98 145.888 1799.99 145.888 1810.1L145.888 1811.67C145.888 1820.49 140.271 1828.33 131.92 1831.16L140.027 1839.91C151.776 1852.59 158.304 1869.24 158.304 1886.53L171.877 1911.43C172.672 1912.89 171.446 1914.62 169.806 1914.36L155.252 1912.04C134.596 1908.75 114.397 1903.05 95.071 1895.05L90.6241 1893.21C79.8907 1888.76 69.5457 1883.43 59.6963 1877.27C41.0158 1865.59 24.2964 1851.03 10.155 1834.13L2.23873e-05 1822L1.54005e-05 1393L17.4726 1398.94C29.4697 1403.01 42.7414 1399.55 51.2144 1390.13C53.2738 1387.84 54.9882 1385.26 56.3037 1382.47L72.3264 1348.56C73.7684 1345.5 75.5421 1342.62 77.6153 1339.95L107.977 1300.94C109.449 1299.05 111.125 1297.32 112.973 1295.8L118.835 1290.96C131.366 1280.62 150.183 1284.02 158.304 1298.09C168.429 1274.36 185.274 1254.1 206.765 1239.81L209.52 1237.98L231.248 1219L235.904 1237.98C247.139 1285.87 247.37 1335.68 236.58 1383.66L235.904 1386.67L225.478 1419.52C221.072 1433.4 214.616 1446.54 206.325 1458.51L188.899 1483.67C184.126 1490.57 177.45 1495.92 169.686 1499.09Z" fill="#01342B"/>
<path d="M1164.06 1643.06L1163.98 1647.57L1172.76 1645.22L1172.58 1642.4C1172.47 1640.64 1173.49 1639.01 1175.13 1638.34L1176.04 1637.97C1179.24 1636.67 1182.2 1634.84 1184.79 1632.55C1189.67 1628.24 1193.04 1622.49 1194.42 1616.13L1196.14 1608.24C1196.55 1606.35 1194.81 1604.69 1192.94 1605.19L1180 1608.66C1179.38 1608.82 1178.82 1608.29 1178.94 1607.67C1179 1607.37 1179.22 1607.13 1179.5 1607.03L1190.88 1603.21C1194.04 1602.15 1196.01 1599.01 1195.59 1595.7L1193.59 1579.85C1193.36 1578.04 1191.59 1576.86 1189.84 1577.33L1177.78 1580.56C1177.18 1580.72 1176.56 1580.36 1176.4 1579.76C1176.24 1579.15 1176.59 1578.53 1177.2 1578.37L1187.24 1575.68C1190.36 1574.84 1192.51 1571.96 1192.42 1568.73L1192.02 1553.88C1191.96 1551.85 1189.96 1550.47 1188.05 1551.12L1176.9 1554.91C1176.27 1555.13 1175.58 1554.76 1175.41 1554.12C1175.26 1553.55 1175.56 1552.96 1176.1 1552.74L1187.66 1548.15C1190.86 1546.87 1192.66 1543.46 1191.9 1540.09L1187.51 1520.77C1187.11 1519.02 1185.11 1518.18 1183.58 1519.12L1177.88 1522.63C1177.24 1523.03 1176.4 1522.69 1176.21 1521.97C1176.09 1521.52 1176.25 1521.05 1176.62 1520.78L1183.7 1515.5C1184.91 1514.59 1185.26 1512.93 1184.52 1511.61L1172.04 1489.58C1169.93 1485.86 1164.94 1485.02 1161.73 1487.85C1160.82 1488.66 1160.14 1489.7 1159.78 1490.86L1152.15 1514.97C1151.72 1516.31 1152.29 1517.77 1153.51 1518.47L1161.74 1523.2C1162.18 1523.46 1162.34 1524.03 1162.08 1524.48C1161.88 1524.82 1161.48 1525 1161.09 1524.92L1152.29 1523.14C1150.64 1522.8 1149.05 1523.88 1148.74 1525.53L1145.55 1542.66C1144.93 1546 1146.8 1549.31 1149.99 1550.5L1161.01 1554.61C1161.81 1554.91 1162 1555.95 1161.36 1556.51C1161.06 1556.78 1160.64 1556.87 1160.25 1556.74L1149.24 1553.03C1147.32 1552.39 1145.32 1553.79 1145.28 1555.82L1145.01 1571.73C1144.96 1574.45 1146.91 1576.8 1149.59 1577.26L1158.92 1578.86C1159.74 1579 1160.03 1580.02 1159.41 1580.57C1159.18 1580.77 1158.88 1580.86 1158.58 1580.81L1146.83 1578.8C1144.9 1578.47 1143.18 1580.05 1143.33 1582L1144.77 1599.61C1144.96 1601.88 1146.54 1603.79 1148.74 1604.38L1157.43 1606.74C1158.55 1607.04 1158.78 1608.52 1157.82 1609.16C1157.49 1609.37 1157.09 1609.43 1156.71 1609.33L1149.38 1607.24C1147.2 1606.62 1145.15 1608.55 1145.63 1610.76L1148.17 1622.43C1149.12 1626.83 1151.2 1630.91 1154.19 1634.27C1155.61 1635.87 1157.43 1637.07 1159.46 1637.76L1160.58 1638.14C1162.69 1638.84 1164.09 1640.84 1164.06 1643.06Z" fill="#155D64"/>
<path d="M1164.06 1643.06L1163.98 1647.57L1172.76 1645.22L1172.58 1642.4C1172.47 1640.64 1173.49 1639.01 1175.13 1638.34L1176.04 1637.97C1179.24 1636.67 1182.2 1634.84 1184.79 1632.55C1189.67 1628.24 1193.04 1622.49 1194.42 1616.13L1196.14 1608.24C1196.55 1606.35 1194.81 1604.69 1192.94 1605.19L1180 1608.66C1179.38 1608.82 1178.82 1608.29 1178.94 1607.67C1179 1607.37 1179.22 1607.13 1179.5 1607.03L1190.88 1603.21C1194.04 1602.15 1196.01 1599.01 1195.59 1595.7L1193.59 1579.85C1193.36 1578.04 1191.59 1576.86 1189.84 1577.33L1177.78 1580.56C1177.18 1580.72 1176.56 1580.36 1176.4 1579.76C1176.24 1579.15 1176.59 1578.53 1177.2 1578.37L1187.24 1575.68C1190.36 1574.84 1192.51 1571.96 1192.42 1568.73L1192.02 1553.88C1191.96 1551.85 1189.96 1550.47 1188.05 1551.12L1176.9 1554.91C1176.27 1555.13 1175.58 1554.76 1175.41 1554.12C1175.26 1553.55 1175.56 1552.96 1176.1 1552.74L1187.66 1548.15C1190.86 1546.87 1192.66 1543.46 1191.9 1540.09L1187.51 1520.77C1187.11 1519.02 1185.11 1518.18 1183.58 1519.12L1177.88 1522.63C1177.24 1523.03 1176.4 1522.69 1176.21 1521.97C1176.09 1521.52 1176.25 1521.05 1176.62 1520.78L1183.7 1515.5C1184.91 1514.59 1185.26 1512.93 1184.52 1511.61L1172.04 1489.58C1169.93 1485.86 1164.94 1485.02 1161.73 1487.85C1160.82 1488.66 1160.14 1489.7 1159.78 1490.86L1152.15 1514.97C1151.72 1516.31 1152.29 1517.77 1153.51 1518.47L1161.74 1523.2C1162.18 1523.46 1162.34 1524.03 1162.08 1524.48C1161.88 1524.82 1161.48 1525 1161.09 1524.92L1152.29 1523.14C1150.64 1522.8 1149.05 1523.88 1148.74 1525.53L1145.55 1542.66C1144.93 1546 1146.8 1549.31 1149.99 1550.5L1161.01 1554.61C1161.81 1554.91 1162 1555.95 1161.36 1556.51C1161.06 1556.78 1160.64 1556.87 1160.25 1556.74L1149.24 1553.03C1147.32 1552.39 1145.32 1553.79 1145.28 1555.82L1145.01 1571.73C1144.96 1574.45 1146.91 1576.8 1149.59 1577.26L1158.92 1578.86C1159.74 1579 1160.03 1580.02 1159.41 1580.57C1159.18 1580.77 1158.88 1580.86 1158.58 1580.81L1146.83 1578.8C1144.9 1578.47 1143.18 1580.05 1143.33 1582L1144.77 1599.61C1144.96 1601.88 1146.54 1603.79 1148.74 1604.38L1157.43 1606.74C1158.55 1607.04 1158.78 1608.52 1157.82 1609.16C1157.49 1609.37 1157.09 1609.43 1156.71 1609.33L1149.38 1607.24C1147.2 1606.62 1145.15 1608.55 1145.63 1610.76L1148.17 1622.43C1149.12 1626.83 1151.2 1630.91 1154.19 1634.27C1155.61 1635.87 1157.43 1637.07 1159.46 1637.76L1160.58 1638.14C1162.69 1638.84 1164.09 1640.84 1164.06 1643.06Z" fill="#155D64"/>
<path d="M1068.94 1613.8L1069.71 1616.93L1075.43 1613.63L1074.79 1611.73C1074.38 1610.51 1074.8 1609.17 1075.82 1608.39L1076.4 1607.96C1078.39 1606.46 1080.12 1604.63 1081.5 1602.56C1084.12 1598.63 1085.42 1593.97 1085.22 1589.25L1084.96 1583.52C1084.9 1582.12 1083.37 1581.28 1082.16 1581.98L1073.74 1586.84C1073.34 1587.07 1072.85 1586.8 1072.82 1586.35C1072.81 1586.13 1072.91 1585.92 1073.09 1585.8L1079.04 1581.86C1081.82 1580.02 1082.92 1576.48 1081.66 1573.39L1078.3 1565.13C1077.62 1563.45 1075.6 1562.76 1074.02 1563.67L1067 1567.72C1066.61 1567.95 1066.11 1567.81 1065.89 1567.42C1065.66 1567.03 1065.79 1566.54 1066.18 1566.31L1071.47 1563.26C1074.24 1561.66 1075.55 1558.37 1074.65 1555.31L1072.37 1547.58C1071.79 1545.63 1069.5 1544.81 1067.82 1545.93L1061.64 1550.06C1061.25 1550.33 1060.7 1550.2 1060.46 1549.78C1060.25 1549.42 1060.35 1548.95 1060.69 1548.7L1066.61 1544.3C1069.38 1542.24 1070.23 1538.47 1068.63 1535.42L1062.78 1524.33C1062.18 1523.17 1060.62 1522.96 1059.72 1523.9L1056.37 1527.43C1056 1527.82 1055.36 1527.75 1055.09 1527.28C1054.92 1526.99 1054.95 1526.63 1055.15 1526.37L1058.67 1521.94C1059.62 1520.75 1059.52 1519.05 1058.46 1517.97L1046.21 1505.57C1044.03 1503.36 1040.38 1503.71 1038.66 1506.29C1038.17 1507.03 1037.88 1507.88 1037.84 1508.77L1036.98 1526.33C1036.91 1527.72 1037.82 1528.95 1039.16 1529.3L1045.18 1530.87C1045.54 1530.97 1045.76 1531.34 1045.66 1531.7C1045.58 1531.98 1045.34 1532.18 1045.05 1532.2L1039.37 1532.56C1037.71 1532.67 1036.45 1534.12 1036.58 1535.78L1037.41 1546.97C1037.61 1549.7 1039.76 1551.87 1042.47 1552.12L1050.46 1552.85C1051.08 1552.9 1051.41 1553.6 1051.07 1554.11C1050.91 1554.35 1050.63 1554.49 1050.34 1554.48L1043.05 1554.05C1041.03 1553.93 1039.47 1555.8 1039.96 1557.76L1042.43 1567.77C1042.9 1569.68 1044.7 1570.95 1046.66 1570.76L1053.48 1570.11C1054.08 1570.05 1054.47 1570.71 1054.14 1571.21C1054.02 1571.39 1053.83 1571.5 1053.62 1571.52L1046.05 1572.25C1044.11 1572.44 1042.86 1574.4 1043.52 1576.24L1047.41 1587.2C1047.96 1588.75 1049.43 1589.78 1051.07 1589.78L1057.58 1589.78C1058.42 1589.77 1058.86 1590.76 1058.31 1591.39C1058.12 1591.6 1057.85 1591.71 1057.57 1591.71L1053.18 1591.66C1051.03 1591.64 1049.62 1593.92 1050.6 1595.83L1053.99 1602.42C1055.48 1605.31 1057.7 1607.76 1060.42 1609.54C1061.7 1610.38 1063.18 1610.87 1064.72 1610.96L1065.59 1611.01C1067.19 1611.1 1068.55 1612.23 1068.94 1613.8Z" fill="#155D64"/>
<path d="M1068.94 1613.8L1069.71 1616.93L1075.43 1613.63L1074.79 1611.73C1074.38 1610.51 1074.8 1609.17 1075.82 1608.39L1076.4 1607.96C1078.39 1606.46 1080.12 1604.63 1081.5 1602.56C1084.12 1598.63 1085.42 1593.97 1085.22 1589.25L1084.96 1583.52C1084.9 1582.12 1083.37 1581.28 1082.16 1581.98L1073.74 1586.84C1073.34 1587.07 1072.85 1586.8 1072.82 1586.35C1072.81 1586.13 1072.91 1585.92 1073.09 1585.8L1079.04 1581.86C1081.82 1580.02 1082.92 1576.48 1081.66 1573.39L1078.3 1565.13C1077.62 1563.45 1075.6 1562.76 1074.02 1563.67L1067 1567.72C1066.61 1567.95 1066.11 1567.81 1065.89 1567.42C1065.66 1567.03 1065.79 1566.54 1066.18 1566.31L1071.47 1563.26C1074.24 1561.66 1075.55 1558.37 1074.65 1555.31L1072.37 1547.58C1071.79 1545.63 1069.5 1544.81 1067.82 1545.93L1061.64 1550.06C1061.25 1550.33 1060.7 1550.2 1060.46 1549.78C1060.25 1549.42 1060.35 1548.95 1060.69 1548.7L1066.61 1544.3C1069.38 1542.24 1070.23 1538.47 1068.63 1535.42L1062.78 1524.33C1062.18 1523.17 1060.62 1522.96 1059.72 1523.9L1056.37 1527.43C1056 1527.82 1055.36 1527.75 1055.09 1527.28C1054.92 1526.99 1054.95 1526.63 1055.15 1526.37L1058.67 1521.94C1059.62 1520.75 1059.52 1519.05 1058.46 1517.97L1046.21 1505.57C1044.03 1503.36 1040.38 1503.71 1038.66 1506.29C1038.17 1507.03 1037.88 1507.88 1037.84 1508.77L1036.98 1526.33C1036.91 1527.72 1037.82 1528.95 1039.16 1529.3L1045.18 1530.87C1045.54 1530.97 1045.76 1531.34 1045.66 1531.7C1045.58 1531.98 1045.34 1532.18 1045.05 1532.2L1039.37 1532.56C1037.71 1532.67 1036.45 1534.12 1036.58 1535.78L1037.41 1546.97C1037.61 1549.7 1039.76 1551.87 1042.47 1552.12L1050.46 1552.85C1051.08 1552.9 1051.41 1553.6 1051.07 1554.11C1050.91 1554.35 1050.63 1554.49 1050.34 1554.48L1043.05 1554.05C1041.03 1553.93 1039.47 1555.8 1039.96 1557.76L1042.43 1567.77C1042.9 1569.68 1044.7 1570.95 1046.66 1570.76L1053.48 1570.11C1054.08 1570.05 1054.47 1570.71 1054.14 1571.21C1054.02 1571.39 1053.83 1571.5 1053.62 1571.52L1046.05 1572.25C1044.11 1572.44 1042.86 1574.4 1043.52 1576.24L1047.41 1587.2C1047.96 1588.75 1049.43 1589.78 1051.07 1589.78L1057.58 1589.78C1058.42 1589.77 1058.86 1590.76 1058.31 1591.39C1058.12 1591.6 1057.85 1591.71 1057.57 1591.71L1053.18 1591.66C1051.03 1591.64 1049.62 1593.92 1050.6 1595.83L1053.99 1602.42C1055.48 1605.31 1057.7 1607.76 1060.42 1609.54C1061.7 1610.38 1063.18 1610.87 1064.72 1610.96L1065.59 1611.01C1067.19 1611.1 1068.55 1612.23 1068.94 1613.8Z" fill="#155D64"/>
<path d="M1100.49 1626.9L1099.6 1630H1106.19L1106.59 1628.04C1106.85 1626.78 1107.88 1625.82 1109.16 1625.66L1109.88 1625.58C1112.35 1625.27 1114.76 1624.55 1116.99 1623.45C1121.23 1621.36 1124.68 1617.97 1126.86 1613.78L1129.51 1608.69C1130.16 1607.45 1129.25 1605.96 1127.85 1605.96H1118.12C1117.67 1605.96 1117.37 1605.48 1117.58 1605.07C1117.68 1604.88 1117.87 1604.75 1118.09 1604.74L1125.21 1604.3C1128.54 1604.09 1131.26 1601.57 1131.71 1598.27L1132.93 1589.44C1133.18 1587.64 1131.78 1586.03 1129.96 1586.03H1121.85C1121.4 1586.03 1121.04 1585.66 1121.04 1585.21C1121.04 1584.76 1121.4 1584.4 1121.85 1584.4H1127.95C1131.15 1584.4 1133.93 1582.21 1134.68 1579.1L1136.57 1571.26C1137.04 1569.3 1135.48 1567.43 1133.46 1567.57L1126.04 1568.06C1125.56 1568.09 1125.16 1567.71 1125.16 1567.23C1125.16 1566.8 1125.47 1566.45 1125.89 1566.4L1133.22 1565.55C1136.65 1565.15 1139.27 1562.32 1139.41 1558.87L1139.9 1546.34C1139.95 1545.04 1138.7 1544.07 1137.46 1544.44L1132.79 1545.82C1132.27 1545.97 1131.75 1545.59 1131.75 1545.05C1131.75 1544.72 1131.96 1544.42 1132.26 1544.3L1137.53 1542.22C1138.94 1541.66 1139.71 1540.14 1139.33 1538.67L1134.92 1521.81C1134.14 1518.81 1130.8 1517.29 1128.02 1518.66C1127.23 1519.05 1126.55 1519.65 1126.07 1520.39L1116.55 1535.18C1115.8 1536.34 1115.97 1537.87 1116.95 1538.84L1121.38 1543.21C1121.64 1543.47 1121.64 1543.9 1121.38 1544.16C1121.17 1544.37 1120.86 1544.41 1120.61 1544.29L1115.5 1541.77C1114.01 1541.03 1112.2 1541.65 1111.47 1543.16L1106.6 1553.27C1105.41 1555.73 1106.18 1558.68 1108.41 1560.26L1114.97 1564.88C1115.47 1565.24 1115.41 1566 1114.86 1566.28C1114.6 1566.41 1114.29 1566.39 1114.05 1566.23L1107.94 1562.21C1106.26 1561.1 1103.97 1561.94 1103.41 1563.88L1100.55 1573.78C1100 1575.67 1100.92 1577.68 1102.71 1578.49L1108.95 1581.33C1109.5 1581.58 1109.51 1582.36 1108.97 1582.62C1108.78 1582.72 1108.55 1582.72 1108.36 1582.63L1101.45 1579.48C1099.67 1578.67 1097.6 1579.75 1097.25 1581.67L1095.15 1593.1C1094.85 1594.72 1095.6 1596.35 1097.02 1597.17L1102.67 1600.42C1103.39 1600.84 1103.28 1601.92 1102.49 1602.18C1102.22 1602.26 1101.93 1602.23 1101.69 1602.09L1097.92 1599.85C1096.06 1598.75 1093.7 1600.02 1093.6 1602.18L1093.24 1609.57C1093.08 1612.82 1093.77 1616.05 1095.24 1618.95C1095.93 1620.32 1096.97 1621.49 1098.25 1622.33L1098.98 1622.81C1100.33 1623.7 1100.94 1625.36 1100.49 1626.9Z" fill="#155D64"/>
<path d="M1100.49 1626.9L1099.6 1630H1106.19L1106.59 1628.04C1106.85 1626.78 1107.88 1625.82 1109.16 1625.66L1109.88 1625.58C1112.35 1625.27 1114.76 1624.55 1116.99 1623.45C1121.23 1621.36 1124.68 1617.97 1126.86 1613.78L1129.51 1608.69C1130.16 1607.45 1129.25 1605.96 1127.85 1605.96H1118.12C1117.67 1605.96 1117.37 1605.48 1117.58 1605.07C1117.68 1604.88 1117.87 1604.75 1118.09 1604.74L1125.21 1604.3C1128.54 1604.09 1131.26 1601.57 1131.71 1598.27L1132.93 1589.44C1133.18 1587.64 1131.78 1586.03 1129.96 1586.03H1121.85C1121.4 1586.03 1121.04 1585.66 1121.04 1585.21C1121.04 1584.76 1121.4 1584.4 1121.85 1584.4H1127.95C1131.15 1584.4 1133.93 1582.21 1134.68 1579.1L1136.57 1571.26C1137.04 1569.3 1135.48 1567.43 1133.46 1567.57L1126.04 1568.06C1125.56 1568.09 1125.16 1567.71 1125.16 1567.23C1125.16 1566.8 1125.47 1566.45 1125.89 1566.4L1133.22 1565.55C1136.65 1565.15 1139.27 1562.32 1139.41 1558.87L1139.9 1546.34C1139.95 1545.04 1138.7 1544.07 1137.46 1544.44L1132.79 1545.82C1132.27 1545.97 1131.75 1545.59 1131.75 1545.05C1131.75 1544.72 1131.96 1544.42 1132.26 1544.3L1137.53 1542.22C1138.94 1541.66 1139.71 1540.14 1139.33 1538.67L1134.92 1521.81C1134.14 1518.81 1130.8 1517.29 1128.02 1518.66C1127.23 1519.05 1126.55 1519.65 1126.07 1520.39L1116.55 1535.18C1115.8 1536.34 1115.97 1537.87 1116.95 1538.84L1121.38 1543.21C1121.64 1543.47 1121.64 1543.9 1121.38 1544.16C1121.17 1544.37 1120.86 1544.41 1120.61 1544.29L1115.5 1541.77C1114.01 1541.03 1112.2 1541.65 1111.47 1543.16L1106.6 1553.27C1105.41 1555.73 1106.18 1558.68 1108.41 1560.26L1114.97 1564.88C1115.47 1565.24 1115.41 1566 1114.86 1566.28C1114.6 1566.41 1114.29 1566.39 1114.05 1566.23L1107.94 1562.21C1106.26 1561.1 1103.97 1561.94 1103.41 1563.88L1100.55 1573.78C1100 1575.67 1100.92 1577.68 1102.71 1578.49L1108.95 1581.33C1109.5 1581.58 1109.51 1582.36 1108.97 1582.62C1108.78 1582.72 1108.55 1582.72 1108.36 1582.63L1101.45 1579.48C1099.67 1578.67 1097.6 1579.75 1097.25 1581.67L1095.15 1593.1C1094.85 1594.72 1095.6 1596.35 1097.02 1597.17L1102.67 1600.42C1103.39 1600.84 1103.28 1601.92 1102.49 1602.18C1102.22 1602.26 1101.93 1602.23 1101.69 1602.09L1097.92 1599.85C1096.06 1598.75 1093.7 1600.02 1093.6 1602.18L1093.24 1609.57C1093.08 1612.82 1093.77 1616.05 1095.24 1618.95C1095.93 1620.32 1096.97 1621.49 1098.25 1622.33L1098.98 1622.81C1100.33 1623.7 1100.94 1625.36 1100.49 1626.9Z" fill="#155D64"/>
<defs>
<filter id="filter0_f_655_9392" x="564" y="160" width="1711" height="1711" filterUnits="userSpaceOnUse" color-interpolation-filters="sRGB">
<feFlood flood-opacity="0" result="BackgroundImageFix"/>
<feBlend mode="normal" in="SourceGraphic" in2="BackgroundImageFix" result="shape"/>
<feGaussianBlur stdDeviation="220" result="effect1_foregroundBlur_655_9392"/>
</filter>
</defs>
</svg>
