<svg width="204" height="204" viewBox="0 0 204 204" fill="none" xmlns="http://www.w3.org/2000/svg">
<path d="M119.488 34.7278L102 -4.58773e-07L84.5119 34.7278L45.5203 40.3515L73.7036 67.4381L130.296 67.4381L158.48 40.3515L119.488 34.7278Z" fill="#3275D8"/>
<path d="M84.5127 169.272L102.001 204L119.489 169.272L158.48 163.648L130.297 136.562L73.7044 136.562L45.521 163.649L84.5127 169.272Z" fill="white"/>
<path d="M169.272 119.489L204 102.001L169.272 84.5129L163.648 45.5215L136.561 73.7047L136.561 130.297L163.648 158.48L169.272 119.489Z" fill="white"/>
<path d="M34.728 84.511L-2.44606e-06 101.999L34.728 119.487L40.3517 158.479L67.4385 130.295L67.4385 73.7029L40.3517 45.5196L34.728 84.511Z" fill="white"/>
</svg>
