<svg width="204" height="204" viewBox="0 0 204 204" fill="none" xmlns="http://www.w3.org/2000/svg">
<path d="M119.488 34.7278L102 -4.58773e-07L84.5121 34.7278L45.5205 40.3515L73.7039 67.4381L130.297 67.4381L158.48 40.3515L119.488 34.7278Z" fill="white"/>
<path d="M84.5129 169.272L102.001 204L119.489 169.272L158.481 163.648L130.297 136.562L73.7047 136.562L45.5213 163.649L84.5129 169.272Z" fill="white"/>
<path d="M169.272 119.489L204 102.001L169.272 84.5129L163.648 45.5215L136.562 73.7047L136.562 130.297L163.648 158.48L169.272 119.489Z" fill="white"/>
<path d="M34.7282 84.511L0.000241695 101.999L34.7282 119.487L40.3519 158.479L67.4387 130.295L67.4387 73.7029L40.3519 45.5196L34.7282 84.511Z" fill="#FFE600"/>
</svg>
