<svg width="150" height="1098" viewBox="0 0 150 1098" fill="none" xmlns="http://www.w3.org/2000/svg">
<path d="M44.0309 97V27H105.931V97H93.1309V34.8L96.1309 38H53.8309L56.8309 34.8V97H44.0309Z" fill="#3275D8"/>
<path d="M75.0637 220C69.597 220 64.5637 219.1 59.9637 217.3C55.3637 215.5 51.3637 213 47.9637 209.8C44.5637 206.533 41.9303 202.733 40.0637 198.4C38.197 194 37.2637 189.2 37.2637 184C37.2637 178.8 38.197 174.033 40.0637 169.7C41.9303 165.3 44.5637 161.5 47.9637 158.3C51.3637 155.033 55.3637 152.5 59.9637 150.7C64.5637 148.9 69.5637 148 74.9637 148C80.4303 148 85.4303 148.9 89.9637 150.7C94.5637 152.5 98.5637 155.033 101.964 158.3C105.364 161.5 107.997 165.3 109.864 169.7C111.73 174.033 112.664 178.8 112.664 184C112.664 189.2 111.73 194 109.864 198.4C107.997 202.8 105.364 206.6 101.964 209.8C98.5637 213 94.5637 215.5 89.9637 217.3C85.4303 219.1 80.4637 220 75.0637 220ZM74.9637 208.6C78.497 208.6 81.7637 208 84.7637 206.8C87.7637 205.6 90.3637 203.9 92.5637 201.7C94.7637 199.433 96.4637 196.833 97.6637 193.9C98.9303 190.9 99.5637 187.6 99.5637 184C99.5637 180.4 98.9303 177.133 97.6637 174.2C96.4637 171.2 94.7637 168.6 92.5637 166.4C90.3637 164.133 87.7637 162.4 84.7637 161.2C81.7637 160 78.497 159.4 74.9637 159.4C71.4303 159.4 68.1637 160 65.1637 161.2C62.2303 162.4 59.6303 164.133 57.3637 166.4C55.1637 168.6 53.4303 171.2 52.1637 174.2C50.9637 177.133 50.3637 180.4 50.3637 184C50.3637 187.533 50.9637 190.8 52.1637 193.8C53.4303 196.8 55.1637 199.433 57.3637 201.7C59.5637 203.9 62.1637 205.6 65.1637 206.8C68.1637 208 71.4303 208.6 74.9637 208.6ZM48.8625 341V271H77.6625C83.8625 271 89.1625 272 93.5625 274C98.0292 276 101.463 278.867 103.863 282.6C106.263 286.333 107.463 290.767 107.463 295.9C107.463 301.033 106.263 305.467 103.863 309.2C101.463 312.933 98.0292 315.8 93.5625 317.8C89.1625 319.8 83.8625 320.8 77.6625 320.8H56.0625L61.8625 314.7V341H48.8625ZM61.8625 316.1L56.0625 309.8H77.0625C82.7958 309.8 87.0958 308.6 89.9625 306.2C92.8958 303.733 94.3625 300.3 94.3625 295.9C94.3625 291.433 92.8958 288 89.9625 285.6C87.0958 283.2 82.7958 282 77.0625 282H56.0625L61.8625 275.6V316.1ZM68.4941 463V400.8L71.5941 404H45.3941V393H104.594V404H78.3941L81.3941 400.8V463H68.4941ZM73.5738 580.5C64.7738 580.5 57.2738 579.3 51.0738 576.9C44.9405 574.5 40.2405 571.033 36.9738 566.5C33.7072 561.9 32.0738 556.367 32.0738 549.9C32.0738 543.3 33.7072 537.733 36.9738 533.2C40.2405 528.667 44.9405 525.2 51.0738 522.8C57.2738 520.4 64.7738 519.2 73.5738 519.2C73.7072 519.2 74.0072 519.2 74.4738 519.2C75.0072 519.2 75.5072 519.2 75.9738 519.2C76.5072 519.2 76.8072 519.2 76.8738 519.2C85.6072 519.2 93.0405 520.4 99.1738 522.8C105.307 525.2 109.974 528.7 113.174 533.3C116.374 537.833 117.974 543.367 117.974 549.9C117.974 556.3 116.374 561.8 113.174 566.4C110.04 571 105.44 574.5 99.3738 576.9C93.3738 579.3 86.0405 580.5 77.3738 580.5C77.2405 580.5 76.8738 580.5 76.2738 580.5C75.7405 580.5 75.1738 580.5 74.5738 580.5C74.0405 580.5 73.7072 580.5 73.5738 580.5ZM74.8738 570.4C75.0072 570.4 75.2072 570.4 75.4738 570.4C75.7405 570.4 75.9072 570.4 75.9738 570.4C82.4405 570.333 87.8405 569.533 92.1738 568C96.5738 566.467 99.8738 564.2 102.074 561.2C104.34 558.133 105.474 554.333 105.474 549.8C105.474 545.267 104.34 541.5 102.074 538.5C99.8072 535.5 96.5072 533.233 92.1738 531.7C87.8405 530.167 82.5072 529.4 76.1738 529.4C76.1072 529.4 75.9072 529.4 75.5738 529.4C75.2405 529.4 75.0072 529.4 74.8738 529.4C68.2738 529.4 62.7072 530.167 58.1738 531.7C53.7072 533.167 50.3405 535.433 48.0738 538.5C45.8738 541.5 44.7738 545.3 44.7738 549.9C44.7738 554.5 45.9405 558.333 48.2738 561.4C50.6738 564.4 54.1072 566.667 58.5738 568.2C63.0405 569.667 68.4738 570.4 74.8738 570.4ZM69.0738 587.8V512.2H81.0738V587.8H69.0738ZM75.0637 708C69.597 708 64.5637 707.1 59.9637 705.3C55.3637 703.5 51.3637 701 47.9637 697.8C44.5637 694.533 41.9303 690.733 40.0637 686.4C38.197 682 37.2637 677.2 37.2637 672C37.2637 666.8 38.197 662.033 40.0637 657.7C41.9303 653.3 44.5637 649.5 47.9637 646.3C51.3637 643.033 55.3637 640.5 59.9637 638.7C64.5637 636.9 69.5637 636 74.9637 636C80.4303 636 85.4303 636.9 89.9637 638.7C94.5637 640.5 98.5637 643.033 101.964 646.3C105.364 649.5 107.997 653.3 109.864 657.7C111.73 662.033 112.664 666.8 112.664 672C112.664 677.2 111.73 682 109.864 686.4C107.997 690.8 105.364 694.6 101.964 697.8C98.5637 701 94.5637 703.5 89.9637 705.3C85.4303 707.1 80.4637 708 75.0637 708ZM74.9637 696.6C78.497 696.6 81.7637 696 84.7637 694.8C87.7637 693.6 90.3637 691.9 92.5637 689.7C94.7637 687.433 96.4637 684.833 97.6637 681.9C98.9303 678.9 99.5637 675.6 99.5637 672C99.5637 668.4 98.9303 665.133 97.6637 662.2C96.4637 659.2 94.7637 656.6 92.5637 654.4C90.3637 652.133 87.7637 650.4 84.7637 649.2C81.7637 648 78.497 647.4 74.9637 647.4C71.4303 647.4 68.1637 648 65.1637 649.2C62.2303 650.4 59.6303 652.133 57.3637 654.4C55.1637 656.6 53.4303 659.2 52.1637 662.2C50.9637 665.133 50.3637 668.4 50.3637 672C50.3637 675.533 50.9637 678.8 52.1637 681.8C53.4303 684.8 55.1637 687.433 57.3637 689.7C59.5637 691.9 62.1637 693.6 65.1637 694.8C68.1637 696 71.4303 696.6 74.9637 696.6ZM43.7539 830C42.6206 830 41.4872 829.9 40.3539 829.7C39.2206 829.5 37.9872 829.267 36.6539 829L37.5539 817.7C38.4872 817.967 39.4872 818.1 40.5539 818.1C43.3539 818.1 45.5872 816.967 47.2539 814.7C48.9206 812.367 50.1206 808.967 50.8539 804.5C51.5872 800.033 52.0872 794.533 52.3539 788L53.3539 759H104.854V829H92.0539V766.8L95.0539 770H61.7539L64.5539 766.7L63.8539 787.5C63.6539 794.433 63.1872 800.533 62.4539 805.8C61.7206 811.067 60.5872 815.5 59.0539 819.1C57.5872 822.633 55.6206 825.333 53.1539 827.2C50.6872 829.067 47.5539 830 43.7539 830ZM43.7867 951V881H56.5867V930.7L94.1867 881H106.287V951H93.4867V901.4L55.8867 951H43.7867ZM75.0637 1074C69.597 1074 64.5637 1073.1 59.9637 1071.3C55.3637 1069.5 51.3637 1067 47.9637 1063.8C44.5637 1060.53 41.9303 1056.73 40.0637 1052.4C38.197 1048 37.2637 1043.2 37.2637 1038C37.2637 1032.8 38.197 1028.03 40.0637 1023.7C41.9303 1019.3 44.5637 1015.5 47.9637 1012.3C51.3637 1009.03 55.3637 1006.5 59.9637 1004.7C64.5637 1002.9 69.5637 1002 74.9637 1002C80.4303 1002 85.4303 1002.9 89.9637 1004.7C94.5637 1006.5 98.5637 1009.03 101.964 1012.3C105.364 1015.5 107.997 1019.3 109.864 1023.7C111.73 1028.03 112.664 1032.8 112.664 1038C112.664 1043.2 111.73 1048 109.864 1052.4C107.997 1056.8 105.364 1060.6 101.964 1063.8C98.5637 1067 94.5637 1069.5 89.9637 1071.3C85.4303 1073.1 80.4637 1074 75.0637 1074ZM74.9637 1062.6C78.497 1062.6 81.7637 1062 84.7637 1060.8C87.7637 1059.6 90.3637 1057.9 92.5637 1055.7C94.7637 1053.43 96.4637 1050.83 97.6637 1047.9C98.9303 1044.9 99.5637 1041.6 99.5637 1038C99.5637 1034.4 98.9303 1031.13 97.6637 1028.2C96.4637 1025.2 94.7637 1022.6 92.5637 1020.4C90.3637 1018.13 87.7637 1016.4 84.7637 1015.2C81.7637 1014 78.497 1013.4 74.9637 1013.4C71.4303 1013.4 68.1637 1014 65.1637 1015.2C62.2303 1016.4 59.6303 1018.13 57.3637 1020.4C55.1637 1022.6 53.4303 1025.2 52.1637 1028.2C50.9637 1031.13 50.3637 1034.4 50.3637 1038C50.3637 1041.53 50.9637 1044.8 52.1637 1047.8C53.4303 1050.8 55.1637 1053.43 57.3637 1055.7C59.5637 1057.9 62.1637 1059.6 65.1637 1060.8C68.1637 1062 71.4303 1062.6 74.9637 1062.6Z" fill="white"/>
</svg>
